<?xml version="1.0" encoding="UTF-8" standalone="no"?> <!-- Created with Vectornator for iOS (http://vectornator.io/) --><!DOCTYPE svg PUBLIC "-//W3C//DTD SVG 1.1//EN" "http://www.w3.org/Graphics/SVG/1.1/DTD/svg11.dtd">
<svg version="1.1" viewBox="0 0 170.044 79.8113" xmlns="http://www.w3.org/2000/svg" width="100%" xmlns:xlink="http://www.w3.org/1999/xlink" height="100%" style="fill-rule:nonzero;clip-rule:evenodd;stroke-linecap:round;stroke-linejoin:round;" xmlns:vectornator="http://vectornator.io" xml:space="preserve">
<metadata>
<vectornator:setting value="false" key="WDDisplayWhiteBackground"/>
<vectornator:setting value="false" key="WDIsolateActiveLayer"/>
<vectornator:setting value="false" key="WDCMYKEnabledKey"/>
<vectornator:setting key="WDSnapToGrid" value="false"/>
<vectornator:setting value="true" key="VNDimensionsVisible"/>
<vectornator:setting value="false" key="WDOutlineMode"/>
<vectornator:setting value="false" key="WDSnapToEdges"/>
<vectornator:setting key="UndoHistoryDisabled" value="false"/>
<vectornator:setting key="WDUnits" value="Points"/>
<vectornator:setting key="WDSnapToPoints" value="false"/>
<vectornator:setting value="true" key="WDRulersVisible"/>
<vectornator:setting value="false" key="IsTimeLapseWatermarkDisabled"/>
<vectornator:setting key="VNPencilOnly" value="false"/>
<vectornator:setting key="WDGuidesVisible" value="true"/>
<vectornator:setting key="WDDynamicGuides" value="false"/>
<vectornator:setting value="true" key="VNSnapToGuides"/>
</metadata>
<defs/>
<g vectornator:layerName="Untitled" id="Untitled">
<g opacity="1">
<path fill="#6968ac" d="M18.1774+22.3808L18.1848+22.3612L18.6337+21.2389L18.6423+21.2168C18.6484+21.2021+18.6533+21.1874+18.6582+21.1726C18.8459+20.628+18.5564+20.0344+18.0118+19.8467C17.4672+19.659+16.8735+19.9485+16.6859+20.4931L16.2799+21.6743C16.1069+22.1809+16.3584+22.7427+16.8613+22.9438C17.3801+23.1536+17.9701+22.9009+18.1774+22.3808Z" opacity="1"/>
<path d="M15.9708+25.7993C15.49+25.6901+15.0116+25.9907+14.9012+26.4715L14.624+27.6883C14.5234+28.1335+14.7871+28.5861+15.2324+28.71C15.6911+28.8388+16.167+28.5714+16.2958+28.1127L16.302+28.093L16.6282+26.9302L16.6344+26.9081C16.638+26.8947+16.6417+26.8824+16.6442+26.8689C16.7533+26.3881+16.4516+25.9097+15.9708+25.7993Z" fill="#6968ac" opacity="1"/>
<path d="M15.2827+32.7958C15.2839+32.7847+15.2851+32.7737+15.2863+32.7626C15.328+32.3542+15.03+31.9899+14.6228+31.9482C14.2143+31.9065+13.85+32.2045+13.8083+32.6118L13.682+33.8506C13.6439+34.226+13.9077+34.5694+14.2842+34.6271C14.673+34.6859+15.0361+34.4185+15.095+34.0297L15.0974+34.0113L15.2778+32.8166L15.2827+32.7958Z" opacity="1" fill="#6968ac"/>
<path opacity="1" d="M14.088+40.6116C14.3983+40.6177+14.6559+40.3712+14.662+40.0608L14.662+40.0461L14.6865+38.8342L14.6865+38.8171C14.6865+38.8085+14.6865+38.7987+14.6865+38.7901C14.6767+38.4626+14.4044+38.205+14.0769+38.2148C13.7494+38.2246+13.4918+38.4969+13.5017+38.8244L13.5372+40.0657C13.547+40.3626+13.7875+40.6054+14.088+40.6116Z" fill="#6968ac"/>
<path d="M14.8668+44.896L14.8656+44.885C14.8644+44.8789+14.8644+44.8715+14.8632+44.8654C14.8264+44.6237+14.6007+44.4581+14.359+44.4937C14.1174+44.5293+13.9518+44.7562+13.9874+44.9978L14.1726+46.2195C14.2057+46.4354+14.402+46.5899+14.6215+46.5679C14.8485+46.5446+15.0128+46.3422+14.9895+46.1165L14.9883+46.1067L14.8668+44.896Z" opacity="1" fill="#6968ac"/>
<path fill="#6968ac" opacity="1" d="M15.7377+50.9014C15.6972+50.7456+15.5378+50.6512+15.382+50.6916C15.2262+50.7321+15.1318+50.8916+15.1723+51.0474L15.4801+52.2396C15.5169+52.3733+15.6543+52.4604+15.7917+52.4297C15.9328+52.3978+16.0223+52.258+15.9904+52.1169L15.7439+50.921C15.7414+50.9161+15.739+50.9063+15.7377+50.9014Z"/>
<path opacity="1" fill="#6968ac" d="M17.4365+58.1812C17.4954+58.1628+17.5298+58.1015+17.5114+58.0414L17.1728+56.8638C17.1728+56.8614+17.1704+56.8577+17.1704+56.8552C17.1446+56.7804+17.0637+56.7412+16.9901+56.7669C16.9152+56.7927+16.876+56.8736+16.9018+56.9472L17.2992+58.11C17.3188+58.1665+17.3789+58.1984+17.4365+58.1812Z"/>
<path opacity="1" fill="#6968ac" d="M33.0927+67.3107C33.0878+67.2959+33.0731+67.2886+33.0583+67.2923C33.0436+67.2959+33.0363+67.3119+33.0399+67.3254L33.3993+68.4992L33.0915+67.3107C33.0927+67.3119+33.0927+67.3107+33.0927+67.3107Z"/>
<path opacity="1" d="M31.6784+61.3372C31.6551+61.2513+31.5668+61.1998+31.4797+61.2231C31.3926+61.2464+31.3424+61.3347+31.3657+61.4218L31.6833+62.6092C31.703+62.6779+31.7729+62.722+31.844+62.7061C31.9164+62.6889+31.9618+62.6165+31.9458+62.5442L31.6809+61.347C31.6797+61.3433+31.6797+61.3396+31.6784+61.3372Z" fill="#6968ac"/>
<path fill="#6968ac" d="M30.5144+55.3122C30.4788+55.1515+30.3206+55.0509+30.1612+55.0853C30.0005+55.1209+29.8999+55.2791+29.9342+55.4385L30.1979+56.6394C30.2298+56.7792+30.3684+56.8736+30.5107+56.8467C30.6579+56.8197+30.7548+56.6786+30.7278+56.5327L30.5181+55.3269C30.5169+55.3245+30.5156+55.3171+30.5144+55.3122Z" opacity="1"/>
<path opacity="1" fill="#6968ac" d="M29.4583+50.9382C29.6803+50.91+29.8361+50.7064+29.8079+50.4844L29.6656+49.27C29.6644+49.2639+29.6632+49.2516+29.6619+49.2455C29.6239+49.01+29.4019+48.8505+29.1664+48.8886C28.9309+48.9266+28.7714+49.1486+28.8095+49.3841L29.0069+50.6009C29.0437+50.8131+29.2424+50.9664+29.4583+50.9382Z"/>
<path opacity="1" d="M29.2522+44.4128L29.2522+44.4054L29.1909+43.1874L29.1909+43.1776C29.1909+43.1702+29.1897+43.1629+29.1897+43.1555C29.1603+42.844+28.8843+42.6146+28.5727+42.644C28.2612+42.6735+28.0318+42.9494+28.0612+43.261L28.1765+44.49C28.2035+44.7758+28.4513+44.9929+28.7408+44.9782C29.0388+44.9635+29.2682+44.7096+29.2522+44.4128Z" fill="#6968ac"/>
<path d="M28.4415+38.9839C28.8144+38.9949+29.1247+38.7018+29.1357+38.3289L29.1357+38.3166L29.1713+37.1023L29.1713+37.0876C29.1713+37.0778+29.1713+37.0692+29.1713+37.0594C29.1652+36.6718+28.8475+36.3627+28.4599+36.3676C28.0723+36.3737+27.7632+36.6914+27.7681+37.079L27.7865+38.3178C27.7926+38.6785+28.0796+38.9741+28.4415+38.9839Z" opacity="1" fill="#6968ac"/>
<path d="M28.9113+30.112C28.4501+30.0764+28.0477+30.4211+28.0122+30.8823L27.9165+32.1199C27.8846+32.5492+28.1949+32.9331+28.6255+32.9859C29.0695+33.0399+29.473+32.7234+29.527+32.2794L29.5295+32.2634L29.6754+31.0626L29.6779+31.0442C29.6791+31.0332+29.6803+31.0221+29.6816+31.0111C29.7171+30.5499+29.3725+30.1476+28.9113+30.112Z" opacity="1" fill="#6968ac"/>
<path d="M29.9968+23.9325C29.4681+23.8368+28.9628+24.1876+28.8671+24.715L28.6451+25.9416C28.5568+26.4359+28.8708+26.9192+29.3651+27.0308C29.8741+27.1461+30.3795+26.8272+30.4948+26.3194L30.4997+26.2998L30.7671+25.1235L30.772+25.1002C30.7744+25.0879+30.7769+25.0744+30.7794+25.0621C30.875+24.5335+30.5242+24.0281+29.9968+23.9325Z" opacity="1" fill="#6968ac"/>
<path d="M31.7533+17.9087C31.167+17.7345+30.5512+18.0694+30.377+18.6557L30.0213+19.8553C29.8594+20.4048+30.1562+20.9935+30.7045+21.1824C31.2675+21.3775+31.882+21.0782+32.0771+20.514L32.0857+20.4906L32.4782+19.3536L32.4868+19.3278C32.4917+19.3144+32.4966+19.2996+32.5002+19.2849C32.6732+18.6986+32.3396+18.0816+31.7533+17.9087Z" fill="#6968ac" opacity="1"/>
<path d="M34.2862+14.9207L34.2923+14.9085L34.5229+14.4154L34.529+14.4007C34.5364+14.3859+34.5425+14.37+34.5486+14.3553C34.8075+13.7297+34.5106+13.0109+33.8838+12.7521C33.2571+12.4933+32.5395+12.7901+32.2807+13.4169L32.0636+13.9419C31.8183+14.538+32.0808+15.2311+32.672+15.507C33.2791+15.7916+34.0016+15.5291+34.2862+14.9207Z" opacity="1" fill="#6968ac"/>
<path opacity="1" fill="#6968ac" d="M52.3955+15.469L52.9609+14.4092L52.9756+14.3823C52.9879+14.3602+52.999+14.3369+53.01+14.3136C53.3682+13.5457+53.037+12.6331+52.2691+12.2737C51.5013+11.9156+50.5887+12.2468+50.2293+13.0146L49.6982+14.1517C49.3646+14.8692+49.6442+15.7339+50.3508+16.1105C51.0818+16.5006+51.9907+16.2246+52.3808+15.4935L52.3955+15.469Z"/>
<path d="M49.5375+17.959C48.8249+17.7026+48.0399+18.0718+47.7835+18.7845L47.3591+19.9632C47.1212+20.6268+47.4413+21.3713+48.0987+21.6485C48.7795+21.9356+49.5633+21.6154+49.8503+20.9347L49.8613+20.9101L50.3275+19.8025L50.3385+19.7756C50.3471+19.7547+50.3557+19.7338+50.363+19.7118C50.6194+19.0016+50.2502+18.2153+49.5375+17.959Z" opacity="1" fill="#6968ac"/>
<path opacity="1" fill="#6968ac" d="M47.8473+26.6015L47.8547+26.5782L48.2116+25.4289L48.2202+25.4031C48.2263+25.3835+48.2312+25.3651+48.2361+25.3455C48.3993+24.6991+48.008+24.0416+47.3616+23.8785C46.7152+23.7153+46.0577+24.1066+45.8946+24.753L45.5879+25.9661C45.4371+26.5659+45.7805+27.1903+46.3791+27.3755C46.9973+27.5668+47.6547+27.2209+47.8473+26.6015Z"/>
<path d="M45.2236+33.2422C45.7707+33.3526+46.3043+32.9994+46.4159+32.4523L46.4195+32.4315L46.6587+31.249L46.6636+31.2257C46.6673+31.2086+46.6698+31.1914+46.6722+31.1742C46.7569+30.6039+46.3619+30.0727+45.7915+29.9881C45.2212+29.9035+44.6901+30.2984+44.6054+30.8688L44.4227+32.1027C44.3466+32.6302+44.6937+33.1355+45.2236+33.2422Z" opacity="1" fill="#6968ac"/>
<path d="M44.6447+39.1912C45.1108+39.2378+45.5266+38.898+45.5732+38.4319L45.5744+38.4148L45.6959+37.2102L45.6983+37.1906C45.6995+37.1759+45.7008+37.1612+45.702+37.1465C45.7253+36.6607+45.35+36.2474+44.863+36.2241C44.3761+36.2008+43.9639+36.5761+43.9406+37.0631L43.8817+38.3056C43.8621+38.7533+44.1945+39.1458+44.6447+39.1912Z" fill="#6968ac" opacity="1"/>
<path opacity="1" d="M45.3119+44.4876L45.3119+44.4753L45.3193+43.2585L45.3193+43.2438C45.3193+43.2316+45.3193+43.2205+45.3181+43.2082C45.2997+42.8121+44.9636+42.5054+44.5674+42.525C44.1712+42.5434+43.8646+42.8795+43.8842+43.2757L43.9418+44.517C43.959+44.8776+44.2559+45.1683+44.6214+45.1696C45.0004+45.1708+45.3095+44.8654+45.3119+44.4876Z" fill="#6968ac"/>
<path opacity="1" d="M45.5879+50.5506L45.5879+50.542L45.4922+49.3314L45.491+49.3203C45.4898+49.3105+45.4898+49.3019+45.4886+49.2921C45.4481+48.9879+45.1697+48.7745+44.8655+48.815C44.5613+48.8554+44.3478+49.1339+44.3883+49.4381L44.5502+50.6585C44.587+50.9308+44.8311+51.132+45.1083+51.1099C45.3966+51.0891+45.6112+50.8376+45.5879+50.5506Z" fill="#6968ac"/>
<path d="M46.3435+56.5915L46.1583+55.3882C46.1571+55.3821+46.1546+55.3686+46.1534+55.3625C46.1092+55.1503+45.9019+55.0154+45.6897+55.0595C45.4775+55.1037+45.3426+55.311+45.3868+55.5232L45.6382+56.724C45.6799+56.908+45.8602+57.0368+46.0491+57.0049C46.2441+56.973+46.3766+56.7878+46.3435+56.5915Z" fill="#6968ac" opacity="1"/>
<path d="M46.9617+61.2268C46.8403+61.2599+46.7691+61.3863+46.8022+61.5077L47.1285+62.6901C47.1567+62.7895+47.2598+62.852+47.3616+62.8287C47.4671+62.8042+47.5321+62.6987+47.5088+62.5944L47.2475+61.401C47.2463+61.3973+47.245+61.3899+47.2438+61.3863C47.2095+61.2648+47.0844+61.1937+46.9617+61.2268Z" fill="#6968ac" opacity="1"/>
<path opacity="1" fill="#6968ac" d="M48.6838+67.345C48.6728+67.3107+48.636+67.2923+48.6016+67.3033C48.5673+67.3143+48.5489+67.3511+48.5599+67.3855L48.9463+68.5495C48.9524+68.5655+48.9696+68.5753+48.9856+68.5704C49.0027+68.5655+49.0126+68.5471+49.0076+68.5299L48.6838+67.3475C48.6851+67.3487+48.6838+67.3462+48.6838+67.345Z"/>
<path opacity="1" d="M64.5522+63.9793C64.5264+63.9854+64.5105+64.0111+64.5166+64.0357L64.7999+65.2279L64.6098+64.0173C64.6098+64.0161+64.6098+64.0136+64.6086+64.0124C64.6037+63.9891+64.5779+63.9731+64.5522+63.9793Z" fill="#6968ac"/>
<path opacity="1" fill="#6968ac" d="M63.9352+57.9383C63.9352+57.931+63.934+57.9199+63.9327+57.9126C63.9082+57.758+63.7623+57.6525+63.6077+57.6771C63.4532+57.7016+63.3477+57.8476+63.3722+58.0021L63.566+59.2115C63.5868+59.3317+63.6985+59.4213+63.8224+59.409C63.9524+59.3967+64.048+59.2814+64.0346+59.1514L63.9352+57.9383Z"/>
<path d="M63.6972+53.0602L63.6972+53.0541L63.6776+51.8336L63.6776+51.8262C63.6776+51.814+63.6764+51.8005+63.6752+51.787C63.6482+51.5012+63.3955+51.2915+63.1085+51.3172C62.8215+51.343+62.6129+51.5969+62.6387+51.8839L62.754+53.1117C62.7773+53.3546+62.9846+53.5447+63.2324+53.5398C63.4936+53.5361+63.7021+53.3215+63.6972+53.0602Z" opacity="1" fill="#6968ac"/>
<path d="M63.7524+46.9641L63.7524+46.9542L63.8089+45.7375L63.8089+45.7264C63.8101+45.708+63.8101+45.6884+63.8089+45.67C63.7966+45.253+63.447+44.9242+63.03+44.9365C62.6129+44.9488+62.2842+45.2984+62.2965+45.7154L62.3345+46.9518C62.3468+47.3173+62.6387+47.6203+63.0104+47.6387C63.4016+47.6571+63.734+47.3553+63.7524+46.9641Z" opacity="1" fill="#6968ac"/>
<path opacity="1" d="M62.3431+39.5236L62.3026+40.7624C62.2879+41.2506+62.6497+41.6787+63.144+41.7327C63.6629+41.7903+64.1302+41.4162+64.1866+40.8974L64.1879+40.8851L64.3216+39.6769L64.3228+39.6622C64.3252+39.6377+64.3265+39.6131+64.3277+39.5886C64.3461+39.0403+63.9156+38.5816+63.3685+38.5632C62.8202+38.546+62.3615+38.9753+62.3431+39.5236Z" fill="#6968ac"/>
<path d="M65.0134+34.8748L65.228+33.6838L65.2317+33.6654C65.2366+33.636+65.2415+33.6053+65.244+33.5746C65.3127+32.8988+64.8208+32.2965+64.1449+32.2279C63.4691+32.1592+62.8668+32.651+62.7982+33.3269L62.673+34.5657C62.6129+35.1729+63.0287+35.7371+63.6396+35.8475C64.2811+35.9628+64.8956+35.536+65.0109+34.8944L65.0134+34.8748Z" fill="#6968ac" opacity="1"/>
<path opacity="1" d="M65.412+25.9649C64.6159+25.8214+63.853+26.3501+63.7095+27.1473L63.4875+28.3788C63.3599+29.0988+63.8039+29.8139+64.524+30.0016C65.2808+30.1991+66.056+29.7465+66.2534+28.9884L66.2596+28.9639L66.5638+27.7999L66.5699+27.7741C66.5785+27.7385+66.5871+27.703+66.5932+27.6674C66.7379+26.8714+66.2093+26.1096+65.412+25.9649Z" fill="#6968ac"/>
<path fill="#6968ac" opacity="1" d="M67.2629+19.8479C66.3577+19.594+65.4181+20.1227+65.1655+21.0279L64.8257+22.2434C64.5976+23.0665+65.0354+23.9447+65.8511+24.2428C66.7085+24.5556+67.6579+24.114+67.9707+23.2566L67.9842+23.221L68.3926+22.1012L68.4049+22.0668C68.4196+22.0276+68.4319+21.9871+68.4441+21.9454C68.6968+21.0402+68.1681+20.1006+67.2629+19.8479Z"/>
<path d="M86.156+39.3801C86.156+39.3813+86.156+39.3813+86.156+39.3801C86.1548+39.3862+86.1573+39.3911+86.1634+39.3923C86.1683+39.3936+86.1744+39.3911+86.1757+39.385L86.5068+38.2038L86.156+39.3801Z" opacity="1" fill="#6968ac"/>
<path opacity="1" fill="#6968ac" d="M84.5185+44.0031L84.05+45.1352L84.0488+45.1377C84.0365+45.1683+84.0512+45.2039+84.0831+45.2162C84.1138+45.2284+84.1493+45.2137+84.1616+45.1818L84.613+44.0399C84.6228+44.0141+84.6105+43.9847+84.5848+43.9749C84.5578+43.9638+84.5283+43.9773+84.5185+44.0031Z"/>
<path opacity="1" d="M81.9268+49.5485L81.3331+50.6181L81.3306+50.6217C81.3024+50.6757+81.3221+50.7432+81.376+50.7714C81.43+50.7996+81.4975+50.78+81.5257+50.726L82.1034+49.6417C82.1279+49.5926+82.1095+49.5313+82.0617+49.5055C82.0138+49.4798+81.9525+49.4994+81.9268+49.5485Z" fill="#6968ac"/>
<path d="M78.7021+54.7418L77.9796+55.728C77.9796+55.728+77.9759+55.7329+77.9759+55.7341C77.9244+55.8065+77.9416+55.9071+78.0139+55.9586C78.0863+56.0101+78.1869+55.993+78.2384+55.9206L78.9498+54.916C78.9952+54.8473+78.9805+54.7516+78.913+54.705C78.8443+54.656+78.7499+54.6731+78.7021+54.7418Z" opacity="1" fill="#6968ac"/>
<path fill="#6968ac" d="M74.8322+59.4617L73.9809+60.3363C73.9809+60.3363+73.9748+60.3424+73.9748+60.3437C73.8951+60.4283+73.8988+60.562+73.9834+60.6417C74.068+60.7214+74.2017+60.7178+74.2814+60.6331L75.1266+59.7353C75.1989+59.6531+75.1965+59.5243+75.1168+59.4495C75.0333+59.3747+74.907+59.3796+74.8322+59.4617Z" opacity="1"/>
<path fill="#6968ac" d="M70.338+63.5659L70.3318+63.5708L69.3616+64.308L69.3542+64.3141C69.353+64.3141+69.353+64.3153+69.3518+64.3153C69.2377+64.4049+69.2181+64.5692+69.3076+64.6821C69.3972+64.7949+69.5615+64.8158+69.6744+64.7262L70.6446+63.9645C70.7526+63.8799+70.7722+63.7241+70.69+63.615C70.6054+63.5033+70.4484+63.4825+70.338+63.5659Z" opacity="1"/>
<path opacity="1" fill="#6968ac" d="M65.2746+66.9366L65.266+66.9415L64.194+67.5167L64.1842+67.5216C64.183+67.5216+64.1817+67.5229+64.1817+67.5229C64.0321+67.6063+63.9781+67.7964+64.0615+67.9473C64.1449+68.0969+64.3351+68.1509+64.4859+68.0675L65.5653+67.4652C65.7088+67.3855+65.7616+67.204+65.6843+67.0592C65.6034+66.912+65.4206+66.8581+65.2746+66.9366Z"/>
<path opacity="1" d="M59.755+69.4744L59.7452+69.478L58.5983+69.8816L58.5861+69.8853C58.5848+69.8853+58.5836+69.8865+58.5824+69.8865C58.3947+69.9564+58.299+70.1637+58.3689+70.3514C58.4389+70.539+58.6462+70.6347+58.8338+70.5648L59.9942+70.1355C60.1733+70.0693+60.2677+69.8705+60.2039+69.689C60.1389+69.5062+59.9378+69.4094+59.755+69.4744Z" fill="#6968ac"/>
<path fill="#6968ac" d="M53.9177+71.145L53.9066+71.1474L52.7132+71.3793L52.6997+71.3817C52.6984+71.3817+52.6972+71.3817+52.6948+71.3829C52.4715+71.4295+52.3292+71.6479+52.3771+71.8711C52.4249+72.0944+52.642+72.2366+52.8653+72.1888L54.0759+71.9337C54.2893+71.8883+54.4292+71.6798+54.3874+71.4639C54.3457+71.2455+54.136+71.1033+53.9177+71.145Z" opacity="1"/>
<path fill="#6968ac" d="M47.9037+71.9778L47.8927+71.979L46.6796+72.0502L46.6661+72.0514C46.6649+72.0514+46.6624+72.0514+46.6612+72.0514C46.4061+72.071+46.2159+72.2931+46.2356+72.547C46.2552+72.8021+46.4772+72.9922+46.7311+72.9726L47.965+72.8794C48.2104+72.861+48.3968+72.6488+48.3821+72.4022C48.3661+72.1532+48.1527+71.9631+47.9037+71.9778Z" opacity="1"/>
<path d="M41.8297+72.0477L41.8186+72.0465L40.6055+71.9766L40.5908+71.9754C40.5884+71.9754+40.5871+71.9754+40.5847+71.9754C40.3013+71.9643+40.0622+72.1839+40.0511+72.4672C40.0401+72.7506+40.2596+72.9898+40.543+73.0008L41.7806+73.0523C42.0541+73.0633+42.2872+72.8536+42.3031+72.5788C42.3191+72.3016+42.1069+72.0637+41.8297+72.0477Z" opacity="1" fill="#6968ac"/>
<path d="M35.7998+71.4087L35.785+71.4062L34.5928+71.1891L34.5756+71.1854C34.5732+71.1854+34.572+71.1842+34.5695+71.1842C34.2616+71.1339+33.9709+71.3412+33.9206+71.6491C33.8703+71.957+34.0776+72.2477+34.3855+72.298L35.6096+72.5003C35.9077+72.5494+36.191+72.3507+36.245+72.0526C36.3014+71.7534+36.1015+71.4639+35.7998+71.4087Z" fill="#6968ac" opacity="1"/>
<path d="M29.9171+70.0092L29.8999+70.003L28.7506+69.6252L28.731+69.6191C28.7285+69.6179+28.726+69.6179+28.7236+69.6166C28.3985+69.5161+28.0527+69.6976+27.9521+70.0226C27.8515+70.3477+28.033+70.6936+28.3581+70.7942L29.5479+71.1634C29.8631+71.2615+30.1992+71.0885+30.3034+70.7745C30.4077+70.4569+30.2347+70.1146+29.9171+70.0092Z" fill="#6968ac" opacity="1"/>
<path opacity="1" fill="#6968ac" d="M24.3128+67.7866L24.2932+67.7768L23.2199+67.2285L23.1978+67.2174C23.1954+67.2162+23.1929+67.215+23.1905+67.2138C22.8593+67.0519+22.4594+67.1892+22.2963+67.5204C22.1331+67.8516+22.2718+68.2515+22.6029+68.4146L23.724+68.9641C24.0454+69.1211+24.4354+68.9923+24.5986+68.6722C24.7642+68.3484+24.6354+67.9522+24.3128+67.7866Z"/>
<path d="M19.1354+64.6894L18.175+63.9682L18.1516+63.9498C18.1492+63.9486+18.1467+63.9461+18.1455+63.9449C17.8241+63.7119+17.374+63.783+17.1409+64.1044C16.9079+64.4257+16.979+64.8759+17.3004+65.1089L18.3148+65.8449C18.6276+66.0718+19.0655+66.0068+19.2985+65.6965C19.534+65.3837+19.4702+64.9384+19.1574+64.7042L19.1354+64.6894Z" opacity="1" fill="#6968ac"/>
<path opacity="1" fill="#6968ac" d="M14.6289+60.746L13.8255+59.8592L13.8022+59.8334C13.7997+59.8309+13.7985+59.8285+13.796+59.8273C13.5041+59.5169+13.0172+59.501+12.7056+59.7917C12.3953+60.0836+12.3793+60.5706+12.67+60.8821L13.5299+61.7996C13.8132+62.1014+14.2879+62.1222+14.5958+61.8425C14.9073+61.5604+14.9306+61.0796+14.6485+60.7681L14.6289+60.746Z"/>
<path fill="#6968ac" d="M10.9945+56.0187L10.3898+54.9908L10.3702+54.9577C10.369+54.9553+10.3665+54.9528+10.3653+54.9491C10.1285+54.5615+9.62197+54.4389+9.23437+54.6756C8.84677+54.9123+8.72411+55.4189+8.96084+55.8065L9.61829+56.8822C9.84889+57.2588+10.3407+57.3839+10.7234+57.1594C11.1098+56.9325+11.2398+56.4345+11.0117+56.0481L10.9945+56.0187Z" opacity="1"/>
<path opacity="1" fill="#6968ac" d="M8.4285+50.6585L8.05685+49.5288L8.04335+49.4896C8.04213+49.4859+8.0409+49.4835+8.03967+49.4798C7.88144+49.0235+7.38345+48.7819+6.92716+48.9413C6.47087+49.0995+6.22923+49.5975+6.38869+50.0538L6.80327+51.2473C6.95782+51.6913+7.43987+51.9317+7.8888+51.7845C8.34264+51.6361+8.58918+51.1479+8.43954+50.6941L8.4285+50.6585Z"/>
<path d="M7.0719+44.9242L7.06822+44.885L6.94556+43.7038L6.94065+43.6609C6.94065+43.6572+6.93942+43.6535+6.93942+43.6498C6.8781+43.142+6.4169+42.7802+5.90909+42.8415C5.40129+42.9028+5.03944+43.364+5.10077+43.8718L5.25287+45.1279C5.31297+45.6222+5.75945+45.9803+6.25622+45.9276C6.75912+45.8773+7.12464+45.4271+7.0719+44.9242Z" opacity="1" fill="#6968ac"/>
<path opacity="1" d="M5.87843+39.8609C6.40954+39.9161+6.88423+39.5297+6.93942+38.9986L6.9431+38.9581L7.06454+37.7794L7.06944+37.734C7.06944+37.7303+7.07067+37.7266+7.07067+37.723C7.11728+37.1845+6.71864+36.711+6.18017+36.6656C5.6417+36.619+5.16823+37.0177+5.12285+37.5561L5.01369+38.8183C4.96953+39.3408+5.35222+39.8069+5.87843+39.8609Z" fill="#6968ac"/>
<path fill="#6968ac" d="M6.74562+33.8457C7.28041+34.0199+7.85568+33.7292+8.02986+33.1944L8.04335+33.1527L8.4101+32.0291L8.42482+31.9825C8.42605+31.9789+8.42727+31.9752+8.4285+31.9715C8.59654+31.4281+8.29112+30.8528+7.74774+30.6848C7.20437+30.518+6.6291+30.8222+6.46106+31.3656L6.08695+32.5799C5.92626+33.1061+6.21696+33.6728+6.74562+33.8457Z" opacity="1"/>
<path d="M10.3273+27.7643L10.3506+27.7251L10.9479+26.7058L10.9737+26.6616C10.9761+26.6579+10.9773+26.6542+10.9798+26.6506C11.273+26.1305+11.089+25.4718+10.5689+25.1787C10.0488+24.8855+9.39014+25.0695+9.09699+25.5896L8.47266+26.6972C8.18686+27.205+8.35981+27.8502+8.86394+28.1458C9.37297+28.4451+10.0292+28.2733+10.3273+27.7643Z" opacity="1" fill="#6968ac"/>
<path d="M13.7151+22.9389L13.7458+22.9046L14.5394+22.0288L14.5737+21.992C14.5761+21.9883+14.5798+21.9859+14.5823+21.9822C14.9944+21.5112+14.9466+20.7961+14.4768+20.3839C14.0058+19.9718+13.2907+20.0196+12.8786+20.4894L12.0408+21.4462C11.6385+21.9049+11.6777+22.6053+12.1316+23.0162C12.5903+23.4332+13.2993+23.3977+13.7151+22.9389Z" fill="#6968ac" opacity="1"/>
<path opacity="1" fill="#6968ac" d="M17.5825+16.2356L16.5792+17.0145C16.075+17.4058+15.9757+18.1319+16.3596+18.6446C16.7484+19.1635+17.4832+19.269+18.002+18.8801L18.0376+18.8544L18.9845+18.1442L19.0237+18.1148C19.0274+18.1123+19.0311+18.1086+19.0348+18.1062C19.5512+17.7051+19.6456+16.9618+19.2445+16.4454C18.8434+15.9278+18.0989+15.8345+17.5825+16.2356Z"/>
<path opacity="1" fill="#6968ac" d="M22.9672+12.9018L21.8474+13.493C21.2586+13.8045+21.0243+14.5331+21.3273+15.1305C21.6327+15.734+22.3699+15.9744+22.9734+15.6689L23.0102+15.6505L24.0675+15.1145L24.1092+15.0937C24.1129+15.0912+24.1178+15.0888+24.1214+15.0875C24.7249+14.7686+24.9555+14.0204+24.6366+13.4182C24.3177+12.8134+23.5707+12.5829+22.9672+12.9018Z"/>
<path opacity="1" d="M28.4231+13.3225L28.4599+13.3102L29.5908+12.9435L29.6325+12.93C29.6374+12.9287+29.6423+12.9263+29.6472+12.9251C30.3194+12.6945+30.6775+11.9622+30.4469+11.29C30.2163+10.6179+29.4841+10.2597+28.8119+10.4903L27.616+10.9C26.9585+11.1257+26.6004+11.8383+26.8162+12.5019C27.0321+13.1728+27.7521+13.5396+28.4231+13.3225Z" fill="#6968ac"/>
<path fill="#6968ac" d="M34.9289+8.95461L33.69+9.19502C32.9811+9.33362+32.5088+10.0156+32.6352+10.7295C32.7627+11.4519+33.4521+11.934+34.1745+11.8064L34.2101+11.8003L35.384+11.593L35.4244+11.5856C35.4293+11.5844+35.4342+11.5832+35.4392+11.5832C36.1653+11.4421+36.64+10.7393+36.4989+10.0144C36.3579+9.28824+35.655+8.81478+34.9289+8.95461Z" opacity="1"/>
<path fill="#6968ac" d="M41.1833+8.22479L39.9272+8.31065C39.1778+8.36217+38.605+9.0049+38.643+9.75802C38.6822+10.5185+39.3311+11.1048+40.0916+11.0656L40.1247+11.0643L41.3169+11.003L41.3562+11.0006C41.3611+11.0006+41.3672+11.0006+41.3721+10.9993C42.1388+10.9466+42.7165+10.2842+42.665+9.51761C42.6122+8.751+41.9486+8.17205+41.1833+8.22479Z" opacity="1"/>
<path d="M46.0369+11.0349L46.0786+11.0386L47.261+11.1281L47.3088+11.1318C47.3137+11.1318+47.3186+11.133+47.3223+11.133C48.1159+11.1809+48.7979+10.5774+48.8457+9.78378C48.8936+8.99018+48.2901+8.3082+47.4965+8.26036L46.2307+8.18309C45.453+8.13648+44.7784+8.72278+44.7195+9.50167C44.6606+10.2891+45.2494+10.9748+46.0369+11.0349Z" fill="#6968ac" opacity="1"/>
<path d="M53.768+9.19011L52.5255+8.93253C51.738+8.76939+50.9616+9.26739+50.7862+10.0549C50.6083+10.8497+51.1088+11.6384+51.9036+11.8162L51.9453+11.826L53.1008+12.0836L53.1498+12.0947C53.1547+12.0959+53.1596+12.0971+53.1633+12.0971C53.9655+12.2639+54.7517+11.7488+54.9186+10.9454C55.0866+10.1419+54.5714+9.35693+53.768+9.19011Z" fill="#6968ac" opacity="1"/>
<path opacity="1" d="M59.8458+11.0067L58.6523+10.5749C57.8722+10.2928+57.0074+10.6878+56.7131+11.4667C56.415+12.2517+56.8112+13.1299+57.5962+13.428L57.6367+13.4439L58.7431+13.8634L58.7909+13.8818C58.7958+13.883+58.8007+13.8855+58.8044+13.8867C59.5992+14.1737+60.4762+13.7628+60.7645+12.968C61.0515+12.1707+60.6406+11.2937+59.8458+11.0067Z" fill="#6968ac"/>
<path opacity="1" d="M63.0005+15.8223L63.0398+15.8431L64.0763+16.4123L64.1216+16.4368C64.1265+16.4392+64.1302+16.4417+64.1351+16.4441C64.9042+16.8514+65.8585+16.5582+66.2657+15.7891C66.6729+15.0201+66.3798+14.0658+65.6107+13.6586L64.4884+13.0649C63.734+12.6663+62.7945+12.9447+62.3823+13.6954C61.9653+14.4534+62.2425+15.4052+63.0005+15.8223Z" fill="#6968ac"/>
<path d="M69.9234+16.3399C69.2107+15.8259+68.2135+15.978+67.6873+16.6858C67.1562+17.4009+67.3046+18.4104+68.0185+18.9415L68.0541+18.9685L69.0022+19.6737L69.0439+19.7044C69.0476+19.7081+69.0525+19.7105+69.0562+19.713C69.7823+20.2367+70.7967+20.0724+71.3205+19.3462C71.8442+18.6201+71.6799+17.6057+70.9537+17.082L69.9234+16.3399Z" opacity="1" fill="#6968ac"/>
<path fill="#6968ac" d="M75.7877+21.2057L74.8665+20.3287C74.2115+19.7056+73.1751+19.7216+72.5397+20.368C71.8982+21.0218+71.908+22.0717+72.5618+22.712L72.5949+22.7439L73.4388+23.5706L73.4768+23.6086C73.4805+23.6123+73.4842+23.616+73.4878+23.6197C74.1551+24.255+75.21+24.2293+75.8453+23.562C76.4807+22.8972+76.455+21.8411+75.7877+21.2057Z" opacity="1"/>
<path d="M79.7483+28.3604C80.488+27.7704+80.6094+26.6923+80.0194+25.9526L79.2258+24.9566C78.6469+24.2305+77.5883+24.1017+76.8511+24.6721C76.1066+25.2473+75.9705+26.3182+76.5457+27.0615L76.5752+27.0995L77.2976+28.0329L77.332+28.0771C77.3356+28.082+77.3393+28.0857+77.3418+28.0906C77.9305+28.8302+79.0087+28.9516+79.7483+28.3604Z" opacity="1" fill="#6968ac"/>
<path fill="#6968ac" opacity="1" d="M82.9497+33.6531C83.785+33.1576+84.061+32.0782+83.5655+31.2429L82.9154+30.1463C82.4284+29.327+81.3711+29.0449+80.5407+29.5208C79.703+30.0016+79.4123+31.07+79.8931+31.9089L79.9176+31.9519L80.5027+32.9736L80.5309+33.0239C80.5334+33.0288+80.537+33.0337+80.5395+33.0386C81.035+33.8727+82.1144+34.1487+82.9497+33.6531Z"/>
<path opacity="1" d="M86.3474+36.9846L85.8555+35.8046C85.4789+34.9018+84.4449+34.4639+83.5336+34.827C82.6124+35.195+82.1647+36.2388+82.5315+37.16L82.5511+37.2078L82.9865+38.2995L83.0086+38.3547C83.0111+38.3596+83.0135+38.3657+83.0147+38.3706C83.3974+39.2905+84.4548+39.726+85.3747+39.3433C86.2946+38.9606+86.7301+37.9045+86.3474+36.9846Z" fill="#6968ac"/>
</g>
<g opacity="1">
<path opacity="1" fill="#6968ac" d="M153.321+57.4305L153.314+57.4501L152.865+58.5725L152.857+58.5945C152.85+58.6093+152.846+58.624+152.841+58.6387C152.653+59.1833+152.942+59.777+153.487+59.9646C154.032+60.1523+154.625+59.8628+154.813+59.3182L155.219+58.137C155.392+57.6304+155.14+57.0687+154.638+56.8675C154.117+56.659+153.529+56.9104+153.321+57.4305Z"/>
<path d="M155.527+54.012C156.008+54.1212+156.486+53.8207+156.596+53.3399L156.874+52.1231C156.974+51.6778+156.71+51.2252+156.265+51.1013C155.806+50.9725+155.331+51.2399+155.202+51.6987L155.196+51.7183L154.869+52.8811L154.863+52.9032C154.86+52.9167+154.856+52.9289+154.853+52.9424C154.745+53.4233+155.046+53.9016+155.527+54.012Z" opacity="1" fill="#6968ac"/>
<path fill="#6968ac" d="M156.215+47.0156C156.214+47.0266+156.212+47.0376+156.211+47.0487C156.17+47.4571+156.468+47.8214+156.875+47.8631C157.283+47.9048+157.648+47.6068+157.689+47.1996L157.816+45.9607C157.854+45.5854+157.59+45.2419+157.213+45.1843C156.825+45.1254+156.461+45.3928+156.403+45.7816L156.4+45.8L156.22+46.9947L156.215+47.0156Z" opacity="1"/>
<path opacity="1" fill="#6968ac" d="M157.41+39.1998C157.099+39.1936+156.842+39.4402+156.836+39.7505L156.836+39.7652L156.811+40.9771L156.811+40.9943C156.811+41.0028+156.811+41.0127+156.811+41.0212C156.821+41.3487+157.093+41.6063+157.421+41.5965C157.748+41.5867+158.006+41.3144+157.996+40.9869L157.96+39.7456C157.952+39.4488+157.71+39.2059+157.41+39.1998Z"/>
<path fill="#6968ac" opacity="1" d="M156.632+34.9153L156.633+34.9263C156.634+34.9325+156.634+34.9398+156.636+34.946C156.672+35.1876+156.898+35.3532+157.14+35.3176C157.381+35.2821+157.547+35.0551+157.511+34.8135L157.326+33.5918C157.293+33.3759+157.097+33.2214+156.877+33.2435C156.65+33.2668+156.486+33.4692+156.509+33.6948L156.511+33.7047L156.632+34.9153Z"/>
<path opacity="1" fill="#6968ac" d="M155.76+28.9099C155.8+29.0657+155.96+29.1602+156.116+29.1197C156.271+29.0792+156.366+28.9197+156.325+28.764L156.017+27.5717C155.981+27.438+155.843+27.3509+155.706+27.3816C155.565+27.4135+155.475+27.5533+155.507+27.6944L155.754+28.8903C155.757+28.8952+155.76+28.905+155.76+28.9099Z"/>
<path d="M154.061+21.6301C154.002+21.6485+153.968+21.7099+153.986+21.77L154.325+22.9475C154.325+22.95+154.327+22.9536+154.327+22.9561C154.353+23.0309+154.434+23.0702+154.508+23.0444C154.582+23.0186+154.622+22.9377+154.596+22.8641L154.198+21.7013C154.18+21.6449+154.119+21.613+154.061+21.6301Z" opacity="1" fill="#6968ac"/>
<path d="M138.405+12.5007C138.41+12.5154+138.425+12.5227+138.439+12.5191C138.454+12.5154+138.461+12.4994+138.458+12.4859L138.098+11.3121L138.406+12.5007C138.405+12.4994+138.405+12.5007+138.405+12.5007Z" opacity="1" fill="#6968ac"/>
<path d="M139.819+18.4741C139.842+18.56+139.931+18.6115+140.018+18.5882C140.105+18.5649+140.155+18.4766+140.132+18.3895L139.814+17.2022C139.795+17.1335+139.725+17.0893+139.654+17.1053C139.581+17.1224+139.536+17.1948+139.552+17.2672L139.817+18.4643C139.818+18.468+139.819+18.4717+139.819+18.4741Z" fill="#6968ac" opacity="1"/>
<path fill="#6968ac" opacity="1" d="M140.984+24.4991C141.02+24.6598+141.178+24.7604+141.338+24.7261C141.498+24.6905+141.599+24.5323+141.565+24.3728L141.301+23.172C141.269+23.0321+141.13+22.9377+140.988+22.9647C140.841+22.9917+140.744+23.1327+140.771+23.2787L140.981+24.4844C140.982+24.4869+140.983+24.4955+140.984+24.4991Z"/>
<path fill="#6968ac" d="M142.041+28.8731C141.819+28.9014+141.663+29.105+141.691+29.327L141.833+30.5413C141.834+30.5474+141.836+30.5597+141.837+30.5658C141.875+30.8013+142.097+30.9608+142.332+30.9228C142.568+30.8847+142.727+30.6627+142.689+30.4272L142.492+29.2105C142.455+28.9983+142.256+28.8449+142.041+28.8731Z" opacity="1"/>
<path opacity="1" d="M142.245+35.3986L142.245+35.4059L142.307+36.6239L142.307+36.6337C142.307+36.6411+142.308+36.6485+142.308+36.6558C142.337+36.9674+142.613+37.1967+142.925+37.1673C143.236+37.1379+143.466+36.8619+143.436+36.5503L143.321+35.3213C143.294+35.0355+143.046+34.8184+142.757+34.8331C142.46+34.8478+142.231+35.1017+142.245+35.3986Z" fill="#6968ac"/>
<path fill="#6968ac" opacity="1" d="M143.057+40.8274C142.684+40.8164+142.374+41.1096+142.363+41.4824L142.363+41.4947L142.328+42.709L142.328+42.7237C142.328+42.7336+142.328+42.7421+142.328+42.752C142.334+43.1396+142.651+43.4487+143.039+43.4438C143.427+43.4376+143.736+43.1199+143.731+42.7323L143.712+41.4935C143.706+41.1329+143.419+40.8373+143.057+40.8274Z"/>
<path d="M142.586+49.6993C143.048+49.7349+143.45+49.3902+143.485+48.929L143.581+47.6914C143.613+47.2621+143.303+46.8782+142.872+46.8254C142.428+46.7715+142.025+47.0879+141.971+47.532L141.968+47.5479L141.822+48.7487L141.82+48.7671C141.818+48.7782+141.817+48.7892+141.816+48.8003C141.78+49.2615+142.125+49.6638+142.586+49.6993Z" opacity="1" fill="#6968ac"/>
<path d="M141.502+55.8789C142.031+55.9746+142.536+55.6238+142.632+55.0963L142.854+53.8697C142.942+53.3754+142.628+52.8921+142.134+52.7805C141.625+52.6652+141.119+52.9841+141.004+53.4919L140.999+53.5116L140.732+54.6879L140.727+54.7112C140.724+54.7234+140.722+54.7369+140.719+54.7492C140.623+55.2779+140.973+55.7832+141.502+55.8789Z" opacity="1" fill="#6968ac"/>
<path d="M139.746+61.9026C140.332+62.0768+140.948+61.742+141.122+61.1557L141.478+59.9561C141.639+59.4065+141.343+58.8178+140.794+58.6289C140.231+58.4339+139.617+58.7331+139.422+59.2974L139.413+59.3207L139.021+60.4577L139.012+60.4835C139.007+60.497+139.002+60.5117+138.999+60.5264C138.824+61.1127+139.159+61.7297+139.746+61.9026Z" fill="#6968ac" opacity="1"/>
<path fill="#6968ac" d="M137.213+64.8906L137.207+64.9029L136.976+65.396L136.97+65.4107C136.962+65.4254+136.956+65.4413+136.95+65.4561C136.691+66.0816+136.988+66.8004+137.615+67.0592C138.242+67.318+138.959+67.0212+139.218+66.3944L139.435+65.8694C139.681+65.2733+139.418+64.5803+138.827+64.3043C138.218+64.0197+137.496+64.2822+137.213+64.8906Z" opacity="1"/>
<path fill="#6968ac" opacity="1" d="M119.102+64.3423L118.537+65.4021L118.522+65.4291C118.51+65.4512+118.499+65.4745+118.488+65.4978C118.129+66.2656+118.461+67.1782+119.228+67.5376C119.996+67.8957+120.909+67.5646+121.268+66.7967L121.799+65.6597C122.133+64.9421+121.853+64.0774+121.147+63.7008C120.416+63.3108+119.507+63.5867+119.117+64.3178L119.102+64.3423Z"/>
<path d="M121.961+61.8524C122.674+62.1087+123.459+61.7395+123.715+61.0269L124.14+59.8481C124.378+59.1845+124.058+58.44+123.4+58.1628C122.719+57.8758+121.936+58.1959+121.649+58.8767L121.637+58.9012L121.171+60.0088L121.16+60.0358C121.152+60.0566+121.143+60.0775+121.136+60.0996C120.879+60.8098+121.249+61.596+121.961+61.8524Z" opacity="1" fill="#6968ac"/>
<path fill="#6968ac" d="M123.652+53.2098L123.644+53.2331L123.287+54.3824L123.279+54.4082C123.273+54.4278+123.268+54.4462+123.263+54.4659C123.1+55.1123+123.491+55.7697+124.137+55.9328C124.784+56.096+125.441+55.7047+125.604+55.0583L125.911+53.8452C126.062+53.2454+125.718+52.6211+125.12+52.4359C124.502+52.2445+123.844+52.5904+123.652+53.2098Z" opacity="1"/>
<path d="M126.275+46.5691C125.728+46.4587+125.195+46.812+125.083+47.359L125.079+47.3799L124.84+48.5623L124.835+48.5856C124.832+48.6028+124.829+48.6199+124.827+48.6371C124.742+49.2075+125.137+49.7386+125.707+49.8232C126.278+49.9079+126.809+49.5129+126.893+48.9425L127.076+47.7086C127.152+47.1812+126.804+46.6758+126.275+46.5691Z" opacity="1" fill="#6968ac"/>
<path opacity="1" d="M126.853+40.6202C126.387+40.5735+125.971+40.9133+125.924+41.3794L125.923+41.3966L125.802+42.6011L125.799+42.6207C125.798+42.6354+125.797+42.6502+125.796+42.6649C125.772+43.1506+126.148+43.564+126.635+43.5873C127.122+43.6106+127.534+43.2352+127.557+42.7483L127.616+41.5057C127.635+41.058+127.303+40.6655+126.853+40.6202Z" fill="#6968ac"/>
<path fill="#6968ac" opacity="1" d="M126.187+35.3238L126.187+35.336L126.18+36.5528L126.18+36.5675C126.18+36.5798+126.18+36.5908+126.181+36.6031C126.199+36.9993+126.535+37.3059+126.931+37.2863C127.328+37.2679+127.634+36.9318+127.615+36.5356L127.557+35.2943C127.54+34.9337+127.243+34.643+126.877+34.6418C126.497+34.6405+126.189+34.946+126.187+35.3238Z"/>
<path fill="#6968ac" d="M125.91+29.2607L125.911+29.2693L126.007+30.48L126.008+30.491C126.009+30.5008+126.009+30.5094+126.01+30.5192C126.051+30.8234+126.329+31.0368+126.633+30.9964C126.938+30.9559+127.151+30.6774+127.111+30.3733L126.949+29.1528C126.912+28.8805+126.668+28.6793+126.39+28.7014C126.102+28.7223+125.888+28.9737+125.91+29.2607Z" opacity="1"/>
<path d="M125.155+23.2198L125.341+24.4231C125.342+24.4292+125.344+24.4427+125.345+24.4488C125.39+24.661+125.597+24.796+125.809+24.7518C126.021+24.7077+126.156+24.5004+126.112+24.2882L125.861+23.0873C125.819+22.9033+125.639+22.7746+125.45+22.8064C125.253+22.8383+125.122+23.0235+125.155+23.2198Z" opacity="1" fill="#6968ac"/>
<path opacity="1" fill="#6968ac" d="M124.536+18.5845C124.657+18.5514+124.728+18.4251+124.695+18.3036L124.369+17.1212C124.341+17.0219+124.238+16.9593+124.136+16.9826C124.031+17.0071+123.966+17.1126+123.989+17.2169L124.25+18.4104C124.251+18.414+124.253+18.4214+124.254+18.4251C124.288+18.5465+124.414+18.6177+124.536+18.5845Z"/>
<path d="M122.815+12.4663C122.826+12.5007+122.863+12.5191+122.897+12.508C122.932+12.497+122.95+12.4602+122.939+12.4258L122.553+11.2618C122.546+11.2459+122.529+11.2361+122.513+11.241C122.496+11.2459+122.486+11.2643+122.491+11.2814L122.815+12.4639C122.814+12.4626+122.814+12.4651+122.815+12.4663Z" fill="#6968ac" opacity="1"/>
<path fill="#6968ac" d="M106.945+15.8321C106.971+15.8259+106.987+15.8002+106.981+15.7757L106.698+14.5834L106.888+15.7941C106.888+15.7953+106.888+15.7977+106.889+15.799C106.895+15.8223+106.921+15.8382+106.945+15.8321Z" opacity="1"/>
<path d="M107.564+21.873C107.564+21.8804+107.565+21.8914+107.566+21.8988C107.591+22.0533+107.737+22.1588+107.891+22.1343C108.046+22.1097+108.151+21.9638+108.127+21.8092L107.933+20.5998C107.912+20.4796+107.8+20.3901+107.676+20.4023C107.546+20.4146+107.451+20.5299+107.464+20.6599L107.564+21.873Z" opacity="1" fill="#6968ac"/>
<path fill="#6968ac" opacity="1" d="M107.8+26.7511L107.8+26.7573L107.82+27.9777L107.82+27.9851C107.82+27.9974+107.821+28.0108+107.822+28.0243C107.849+28.3101+108.102+28.5199+108.389+28.4941C108.676+28.4684+108.885+28.2145+108.859+27.9274L108.744+26.6996C108.72+26.4568+108.513+26.2666+108.265+26.2715C108.004+26.2752+107.797+26.4899+107.8+26.7511Z"/>
<path d="M107.746+32.8473L107.746+32.8571L107.69+34.0739L107.69+34.0849C107.689+34.1033+107.689+34.1229+107.69+34.1413C107.702+34.5584+108.052+34.8871+108.469+34.8748C108.886+34.8626+109.215+34.513+109.202+34.0959L109.164+32.8595C109.152+32.494+108.86+32.1911+108.488+32.1727C108.096+32.1543+107.765+32.456+107.746+32.8473Z" fill="#6968ac" opacity="1"/>
<path d="M109.156+40.2877L109.196+39.0489C109.211+38.5607+108.849+38.1326+108.355+38.0787C107.836+38.021+107.369+38.3951+107.312+38.914L107.311+38.9262L107.177+40.1344L107.176+40.1491C107.174+40.1737+107.172+40.1982+107.171+40.2227C107.153+40.771+107.583+41.2298+108.13+41.2482C108.679+41.2653+109.137+40.836+109.156+40.2877Z" fill="#6968ac" opacity="1"/>
<path d="M106.485+44.9365L106.271+46.1275L106.267+46.1459C106.262+46.1754+106.257+46.206+106.255+46.2367C106.186+46.9125+106.678+47.5148+107.354+47.5835C108.03+47.6522+108.632+47.1603+108.701+46.4845L108.826+45.2456C108.886+44.6384+108.47+44.0742+107.859+43.9638C107.218+43.8485+106.603+44.2754+106.488+44.9169L106.485+44.9365Z" fill="#6968ac" opacity="1"/>
<path opacity="1" d="M106.086+53.8464C106.882+53.9899+107.645+53.4613+107.788+52.664L108.01+51.4325C108.138+50.7125+107.694+49.9974+106.974+49.8097C106.217+49.6123+105.442+50.0649+105.244+50.8229L105.238+50.8474L104.934+52.0115L104.928+52.0372C104.919+52.0728+104.911+52.1084+104.904+52.1439C104.76+52.94+105.29+53.7017+106.086+53.8464Z" fill="#6968ac"/>
<path fill="#6968ac" opacity="1" d="M104.235+59.9634C105.14+60.2173+106.079+59.6887+106.332+58.7834L106.672+57.5679C106.9+56.7449+106.462+55.8666+105.646+55.5686C104.789+55.2558+103.84+55.6973+103.527+56.5547L103.513+56.5903L103.105+57.7102L103.093+57.7445C103.078+57.7838+103.066+57.8242+103.053+57.8659C102.801+58.7712+103.329+59.7107+104.235+59.9634Z"/>
<path d="M85.3428+40.4313C85.3428+40.4313+85.3428+40.43+85.3428+40.4313C85.344+40.4251+85.3416+40.4202+85.3354+40.419C85.3305+40.4178+85.3244+40.4202+85.3232+40.4264L84.992+41.6076L85.3428+40.4313Z" opacity="1" fill="#6968ac"/>
<path d="M86.9791+35.8083L87.4476+34.6761L87.4488+34.6737C87.4611+34.643+87.4464+34.6074+87.4145+34.5952C87.3838+34.5829+87.3483+34.5976+87.336+34.6295L86.8846+35.7715C86.8748+35.7972+86.8871+35.8267+86.9128+35.8365C86.941+35.8475+86.9693+35.834+86.9791+35.8083Z" fill="#6968ac" opacity="1"/>
<path opacity="1" fill="#6968ac" d="M89.5708+30.2629L90.1645+29.1933L90.167+29.1896C90.1952+29.1356+90.1755+29.0682+90.1216+29.04C90.0676+29.0117+90.0001+29.0314+89.9719+29.0853L89.3942+30.1696C89.3697+30.2187+89.3881+30.28+89.4359+30.3058C89.485+30.3316+89.5451+30.3119+89.5708+30.2629Z"/>
<path opacity="1" fill="#6968ac" d="M92.7955+25.0695L93.518+24.0833C93.518+24.0833+93.5217+24.0784+93.5217+24.0772C93.5732+24.0048+93.556+23.9042+93.4837+23.8527C93.4113+23.8012+93.3107+23.8184+93.2592+23.8907L92.5478+24.8953C92.5024+24.964+92.5171+25.0597+92.5846+25.1063C92.6545+25.1554+92.7477+25.1382+92.7955+25.0695Z"/>
<path d="M96.6666+20.3496L97.5179+19.475C97.5179+19.475+97.524+19.4689+97.524+19.4677C97.6038+19.383+97.6001+19.2493+97.5154+19.1696C97.4308+19.0899+97.2971+19.0936+97.2174+19.1782L96.3723+20.0761C96.2999+20.1582+96.3023+20.287+96.3821+20.3619C96.4643+20.4379+96.5918+20.4318+96.6666+20.3496Z" opacity="1" fill="#6968ac"/>
<path d="M101.161+16.2454L101.167+16.2405L102.137+15.5034L102.145+15.4972C102.146+15.4972+102.146+15.496+102.147+15.496C102.261+15.4065+102.281+15.2421+102.191+15.1292C102.102+15.0164+101.937+14.9955+101.824+15.0851L100.854+15.8468C100.746+15.9314+100.727+16.0872+100.809+16.1964C100.892+16.308+101.05+16.3288+101.161+16.2454Z" fill="#6968ac" opacity="1"/>
<path opacity="1" fill="#6968ac" d="M106.224+12.8748L106.233+12.8699L107.305+12.2946L107.315+12.2897C107.316+12.2897+107.317+12.2885+107.317+12.2885C107.467+12.2051+107.521+12.0149+107.437+11.8641C107.354+11.7144+107.164+11.6605+107.013+11.7439L105.933+12.3461C105.79+12.4258+105.737+12.6074+105.815+12.7521C105.894+12.8993+106.077+12.9533+106.224+12.8748Z"/>
<path fill="#6968ac" opacity="1" d="M111.744+10.337L111.754+10.3333L112.901+9.92974L112.913+9.92606C112.914+9.92606+112.915+9.92484+112.916+9.92484C113.104+9.85492+113.2+9.64763+113.13+9.45996C113.06+9.27229+112.853+9.17662+112.665+9.24654L111.505+9.67584C111.326+9.74208+111.231+9.94078+111.295+10.1223C111.36+10.3051+111.561+10.402+111.744+10.337Z"/>
<path opacity="1" d="M117.581+8.66636L117.592+8.66391L118.786+8.43208L118.799+8.42963C118.8+8.42963+118.802+8.42963+118.804+8.4284C119.027+8.38179+119.17+8.16346+119.122+7.94022C119.074+7.71698+118.857+7.5747+118.634+7.62254L117.423+7.87767C117.21+7.92305+117.07+8.13157+117.111+8.34745C117.152+8.56578+117.363+8.70807+117.581+8.66636Z" fill="#6968ac"/>
<path d="M123.595+7.83351L123.606+7.83228L124.819+7.76114L124.833+7.75991C124.834+7.75991+124.836+7.75991+124.838+7.75991C125.093+7.74029+125.283+7.51828+125.263+7.26437C125.244+7.00924+125.022+6.81912+124.768+6.83875L123.534+6.93197C123.288+6.95037+123.102+7.16257+123.117+7.40911C123.131+7.65811+123.346+7.84823+123.595+7.83351Z" opacity="1" fill="#6968ac"/>
<path d="M129.668+7.76359L129.679+7.76482L130.892+7.83474L130.907+7.83596C130.909+7.83596+130.91+7.83596+130.913+7.83596C131.196+7.847+131.435+7.62744+131.446+7.3441C131.458+7.06076+131.238+6.82158+130.955+6.81054L129.717+6.75902C129.443+6.74798+129.21+6.95773+129.194+7.23248C129.18+7.50969+129.391+7.74765+129.668+7.76359Z" opacity="1" fill="#6968ac"/>
<path fill="#6968ac" opacity="1" d="M135.698+8.40264L135.713+8.4051L136.905+8.6222L136.922+8.62588C136.924+8.62588+136.926+8.62711+136.928+8.62711C137.236+8.6774+137.527+8.47011+137.577+8.16223C137.627+7.85436+137.42+7.56366+137.112+7.51337L135.888+7.31098C135.59+7.26192+135.307+7.46063+135.253+7.75869C135.197+8.0592+135.397+8.34745+135.698+8.40264Z"/>
<path d="M141.582+9.80218L141.599+9.80831L142.748+10.1861L142.768+10.1922C142.77+10.1935+142.773+10.1935+142.775+10.1947C143.1+10.2953+143.446+10.1137+143.547+9.78869C143.647+9.46364+143.466+9.11775+143.141+9.01717L141.951+8.64796C141.636+8.54984+141.3+8.72278+141.195+9.03679C141.091+9.35448+141.264+9.69669+141.582+9.80218Z" opacity="1" fill="#6968ac"/>
<path fill="#6968ac" opacity="1" d="M147.186+12.0248L147.206+12.0346L148.279+12.5829L148.301+12.5939C148.303+12.5951+148.306+12.5963+148.308+12.5976C148.64+12.7595+149.039+12.6221+149.203+12.2909C149.366+11.9597+149.227+11.5599+148.896+11.3967L147.775+10.8472C147.453+10.6902+147.063+10.819+146.9+11.1392C146.735+11.463+146.862+11.8592+147.186+12.0248Z"/>
<path opacity="1" d="M152.362+15.1219L153.323+15.8431L153.346+15.8615C153.348+15.8627+153.351+15.8652+153.352+15.8664C153.673+16.0995+154.124+16.0283+154.357+15.707C154.59+15.3856+154.519+14.9354+154.197+14.7024L153.183+13.9664C152.87+13.7395+152.432+13.8045+152.199+14.1149C151.964+14.4276+152.027+14.8729+152.34+15.1072L152.362+15.1219Z" fill="#6968ac"/>
<path d="M156.869+19.0654L157.672+19.9522L157.695+19.9779C157.698+19.9804+157.699+19.9828+157.702+19.9841C157.993+20.2944+158.48+20.3103+158.792+20.0196C159.102+19.7277+159.118+19.2408+158.828+18.9292L157.968+18.0117C157.684+17.71+157.21+17.6891+156.902+17.9688C156.59+18.2509+156.567+18.7317+156.849+19.0433L156.869+19.0654Z" opacity="1" fill="#6968ac"/>
<path fill="#6968ac" opacity="1" d="M160.504+23.7926L161.109+24.8205L161.129+24.8536C161.13+24.8561+161.132+24.8585+161.134+24.8622C161.37+25.2498+161.877+25.3725+162.264+25.1357C162.652+24.899+162.775+24.3924+162.538+24.0048L161.881+22.9291C161.65+22.5525+161.158+22.4274+160.775+22.6519C160.389+22.8788+160.259+23.3768+160.487+23.7632L160.504+23.7926Z"/>
<path d="M163.069+29.1528L163.441+30.2825L163.454+30.3217C163.455+30.3254+163.457+30.3279+163.458+30.3315C163.616+30.7878+164.114+31.0295+164.57+30.87C165.027+30.7118+165.268+30.2138+165.109+29.7575L164.694+28.564C164.54+28.12+164.058+27.8796+163.609+28.0268C163.155+28.1752+162.908+28.6634+163.058+29.1172L163.069+29.1528Z" opacity="1" fill="#6968ac"/>
<path d="M164.427+34.8871L164.431+34.9263L164.553+36.1075L164.558+36.1505C164.558+36.1542+164.559+36.1578+164.559+36.1615C164.621+36.6693+165.082+37.0312+165.59+36.9698C166.098+36.9085+166.459+36.4473+166.398+35.9395L166.246+34.6835C166.186+34.1892+165.739+33.831+165.243+33.8837C164.74+33.9353+164.374+34.3842+164.427+34.8871Z" opacity="1" fill="#6968ac"/>
<path fill="#6968ac" opacity="1" d="M165.62+39.9504C165.089+39.8952+164.615+40.2816+164.559+40.8127L164.556+40.8532L164.434+42.032L164.429+42.0773C164.429+42.081+164.428+42.0847+164.428+42.0884C164.382+42.6268+164.78+43.1003+165.319+43.1457C165.857+43.1923+166.331+42.7937+166.376+42.2552L166.485+40.993C166.529+40.4705+166.145+40.0044+165.62+39.9504Z"/>
<path opacity="1" fill="#6968ac" d="M164.752+45.9668C164.217+45.7927+163.642+46.0834+163.468+46.6182L163.454+46.6599L163.087+47.7834L163.073+47.83C163.072+47.8337+163.07+47.8374+163.069+47.8411C162.901+48.3844+163.206+48.9597+163.75+49.1278C164.293+49.2946+164.868+48.9904+165.037+48.447L165.411+47.2327C165.573+46.7052+165.281+46.1386+164.752+45.9668Z"/>
<path d="M161.17+52.047L161.147+52.0863L160.55+53.1056L160.524+53.1497C160.521+53.1534+160.52+53.1571+160.518+53.1608C160.225+53.6808+160.409+54.3395+160.929+54.6327C161.449+54.9258+162.107+54.7418+162.401+54.2218L163.025+53.1142C163.311+52.6064+163.138+51.9612+162.634+51.6656C162.125+51.3663+161.47+51.538+161.17+52.047Z" fill="#6968ac" opacity="1"/>
<path opacity="1" fill="#6968ac" d="M157.784+56.8724L157.753+56.9068L156.959+57.7825L156.925+57.8193C156.923+57.823+156.919+57.8255+156.917+57.8292C156.504+58.3002+156.552+59.0153+157.022+59.4274C157.493+59.8395+158.208+59.7917+158.62+59.3219L159.458+58.3652C159.86+57.9064+159.821+57.206+159.367+56.7951C158.909+56.3781+158.2+56.4137+157.784+56.8724Z"/>
<path opacity="1" d="M153.915+63.5757L154.918+62.7968C155.423+62.4055+155.522+61.6794+155.138+61.1667C154.749+60.6478+154.014+60.5424+153.496+60.9312L153.46+60.9569L152.513+61.6671L152.474+61.6966C152.47+61.699+152.466+61.7027+152.463+61.7052C151.946+62.1063+151.852+62.8496+152.253+63.366C152.655+63.8836+153.399+63.9768+153.915+63.5757Z" fill="#6968ac"/>
<path opacity="1" fill="#6968ac" d="M148.53+66.9096L149.65+66.3184C150.239+66.0068+150.473+65.2782+150.17+64.6809C149.865+64.0774+149.128+63.837+148.524+64.1424L148.487+64.1608L147.43+64.6968L147.388+64.7177C147.385+64.7201+147.38+64.7226+147.376+64.7238C146.773+65.0427+146.542+65.7909+146.861+66.3932C147.18+66.9979+147.928+67.2285+148.53+66.9096Z"/>
<path opacity="1" fill="#6968ac" d="M143.075+66.4888L143.038+66.5011L141.907+66.8679L141.865+66.8814C141.86+66.8826+141.855+66.885+141.85+66.8863C141.178+67.1169+140.82+67.8491+141.051+68.5213C141.281+69.1935+142.014+69.5516+142.686+69.321L143.882+68.9114C144.539+68.6857+144.897+67.973+144.681+67.3094C144.465+66.6385+143.745+66.2717+143.075+66.4888Z"/>
<path d="M136.569+70.8567L137.808+70.6163C138.517+70.4777+138.989+69.7957+138.862+69.0819C138.735+68.3594+138.046+67.8773+137.323+68.0049L137.287+68.011L136.114+68.2183L136.073+68.2257C136.068+68.2269+136.063+68.2282+136.058+68.2282C135.332+68.3692+134.858+69.072+134.999+69.797C135.141+70.5231+135.843+70.9978+136.569+70.8567Z" opacity="1" fill="#6968ac"/>
<path opacity="1" fill="#6968ac" d="M130.316+71.5878L131.572+71.5019C132.321+71.4504+132.894+70.8077+132.856+70.0545C132.817+69.294+132.168+68.7077+131.407+68.747L131.374+68.7482L130.182+68.8095L130.143+68.812C130.138+68.812+130.132+68.812+130.127+68.8132C129.36+68.866+128.782+69.5283+128.834+70.2949C128.885+71.0603+129.549+71.6393+130.316+71.5878Z"/>
<path opacity="1" fill="#6968ac" d="M125.462+68.7764L125.42+68.7727L124.238+68.6832L124.19+68.6795C124.185+68.6795+124.18+68.6783+124.177+68.6783C123.383+68.6305+122.701+69.2339+122.653+70.0275C122.605+70.8211+123.209+71.5031+124.002+71.551L125.268+71.6282C126.046+71.6749+126.72+71.0885+126.779+70.3097C126.838+69.5222+126.248+68.8365+125.462+68.7764Z"/>
<path d="M117.73+70.6212L118.972+70.8788C119.76+71.0419+120.536+70.5439+120.711+69.7565C120.889+68.9617+120.389+68.173+119.594+67.9951L119.552+67.9853L118.397+67.7277L118.348+67.7167C118.343+67.7154+118.338+67.7142+118.334+67.7142C117.532+67.5474+116.746+68.0626+116.579+68.866C116.412+69.6694+116.927+70.4544+117.73+70.6212Z" opacity="1" fill="#6968ac"/>
<path fill="#6968ac" d="M111.653+68.8046L112.847+69.2364C113.627+69.5185+114.491+69.1236+114.786+68.3447C115.084+67.5597+114.688+66.6814+113.903+66.3834L113.862+66.3674L112.756+65.9479L112.708+65.9295C112.703+65.9283+112.698+65.9258+112.694+65.9246C111.9+65.6376+111.023+66.0485+110.734+66.8433C110.447+67.6406+110.858+68.5176+111.653+68.8046Z" opacity="1"/>
<path fill="#6968ac" opacity="1" d="M108.497+63.9891L108.458+63.9682L107.421+63.3991L107.376+63.3745C107.371+63.3721+107.367+63.3696+107.362+63.3672C106.593+62.96+105.639+63.2531+105.232+64.0222C104.825+64.7913+105.118+65.7455+105.887+66.1528L107.009+66.7464C107.764+67.1451+108.703+66.8666+109.115+66.116C109.534+65.3579+109.256+64.4061+108.497+63.9891Z"/>
<path fill="#6968ac" d="M101.574+63.4714C102.287+63.9854+103.284+63.8333+103.81+63.1256C104.341+62.4105+104.193+61.401+103.479+60.8699L103.444+60.8429L102.495+60.1376L102.454+60.1069C102.45+60.1032+102.445+60.1008+102.441+60.0983C101.715+59.5746+100.701+59.7389+100.177+60.4651C99.6534+61.1912+99.8177+62.2056+100.544+62.7294L101.574+63.4714Z" opacity="1"/>
<path opacity="1" d="M95.7111+58.6056L96.6323+59.4826C97.2873+60.1057+98.3238+60.0898+98.9591+59.4433C99.6006+58.7896+99.5908+57.7396+98.9371+57.0993L98.9039+57.0674L98.06+56.2407L98.022+56.2027C98.0183+56.199+98.0147+56.1953+98.011+56.1917C97.3437+55.5563+96.2889+55.582+95.6535+56.2493C95.0181+56.9153+95.0439+57.9702+95.7111+58.6056Z" fill="#6968ac"/>
<path opacity="1" fill="#6968ac" d="M91.7505+51.4509C91.0109+52.0409+90.8894+53.1191+91.4794+53.8587L92.273+54.8547C92.852+55.5808+93.9105+55.7096+94.6477+55.1393C95.3922+54.564+95.5284+53.4932+94.9531+52.7499L94.9237+52.7118L94.2012+51.7784L94.1669+51.7342C94.1632+51.7293+94.1595+51.7257+94.157+51.7208C93.5671+50.9811+92.4901+50.8609+91.7505+51.4509Z"/>
<path d="M88.5479+46.1582C87.7126+46.6537+87.4366+47.7331+87.9321+48.5684L88.5822+49.665C89.0692+50.4844+90.1265+50.7665+90.9569+50.2906C91.7946+49.8097+92.0853+48.7414+91.6045+47.9024L91.58+47.8595L90.9949+46.8377L90.9667+46.7887C90.9642+46.7837+90.9606+46.7788+90.9581+46.7739C90.4626+45.9386+89.3844+45.6626+88.5479+46.1582Z" opacity="1" fill="#6968ac"/>
<path d="M85.1515+42.8268L85.6433+44.0068C86.0199+44.9095+87.0539+45.3474+87.9652+44.9843C88.8864+44.6164+89.3341+43.5725+88.9674+42.6514L88.9477+42.6035L88.5123+41.5119L88.4902+41.4567C88.4878+41.4518+88.4853+41.4456+88.4841+41.4407C88.1014+40.5208+87.0441+40.0854+86.1241+40.4681C85.2042+40.8507+84.7688+41.9068+85.1515+42.8268Z" fill="#6968ac" opacity="1"/>
</g>
</g>
</svg>
