<svg width="172" height="80" viewBox="0 0 172 80" xmlns="http://www.w3.org/2000/svg" xmlns:xlink="http://www.w3.org/1999/xlink">
    <g id="Group">
        <path id="Path" fill="#19448d" stroke="none" d="M 31.273001 25.790001 L 31.278999 25.774002 L 31.645 24.859001 L 31.652 24.841003 C 31.657 24.829002 31.660999 24.817001 31.665001 24.805 C 31.818001 24.361 31.582001 23.876999 31.138 23.723999 C 30.694 23.570999 30.209999 23.806999 30.056999 24.250999 L 29.726 25.213997 C 29.584999 25.626999 29.790001 26.084999 30.200001 26.249001 C 30.622999 26.419998 31.104 26.213997 31.273001 25.790001 Z"/>
        <path id="path1" fill="#19448d" stroke="none" d="M 29.474001 28.577003 C 29.082001 28.487999 28.691999 28.733002 28.601999 29.125 L 28.375999 30.116997 C 28.294001 30.480003 28.509001 30.848999 28.872 30.949997 C 29.246 31.055 29.634001 30.836998 29.739 30.462997 L 29.743999 30.446999 L 30.01 29.499001 L 30.014999 29.481003 C 30.018 29.470001 30.021 29.459999 30.023001 29.448997 C 30.112 29.056999 29.865999 28.667 29.474001 28.577003 Z"/>
        <path id="path2" fill="#19448d" stroke="none" d="M 28.913 34.280998 C 28.914 34.272003 28.915001 34.263 28.916 34.253998 C 28.950001 33.920998 28.707001 33.624001 28.375 33.589996 C 28.042 33.556 27.745001 33.798996 27.711 34.130997 L 27.608 35.140999 C 27.577 35.446999 27.792 35.726997 28.099001 35.774002 C 28.416 35.821999 28.712 35.603996 28.76 35.287003 L 28.761999 35.272003 L 28.909 34.297997 L 28.913 34.280998 Z"/>
        <path id="path3" fill="#19448d" stroke="none" d="M 27.938999 40.653 C 28.191999 40.657997 28.402 40.457001 28.407 40.204002 L 28.407 40.192001 L 28.427 39.204002 L 28.427 39.190002 C 28.427 39.182999 28.427 39.175003 28.427 39.167999 C 28.419001 38.901001 28.197001 38.691002 27.93 38.698997 C 27.663 38.707001 27.452999 38.929001 27.461 39.195999 L 27.49 40.208 C 27.497999 40.449997 27.694 40.648003 27.938999 40.653 Z"/>
        <path id="path4" fill="#19448d" stroke="none" d="M 28.573999 44.145996 L 28.573 44.137001 C 28.572001 44.131996 28.572001 44.125999 28.570999 44.121002 C 28.541 43.923996 28.357 43.789001 28.16 43.818001 C 27.962999 43.847 27.827999 44.031998 27.857 44.228996 L 28.007999 45.224998 C 28.035 45.401001 28.195 45.527 28.374001 45.509003 C 28.559 45.489998 28.693001 45.324997 28.674 45.140999 L 28.673 45.133003 L 28.573999 44.145996 Z"/>
        <path id="path5" fill="#19448d" stroke="none" d="M 29.284 49.042 C 29.250999 48.915001 29.121 48.837997 28.993999 48.871002 C 28.867001 48.903999 28.790001 49.033997 28.823 49.161003 L 29.073999 50.133003 C 29.104 50.241997 29.216 50.312996 29.327999 50.288002 C 29.443001 50.262001 29.516001 50.148003 29.49 50.032997 L 29.289 49.057999 C 29.287001 49.054001 29.285 49.045998 29.284 49.042 Z"/>
        <path id="path6" fill="#19448d" stroke="none" d="M 30.669001 54.976997 C 30.716999 54.961998 30.745001 54.912003 30.73 54.862999 L 30.454 53.903 C 30.454 53.901001 30.452 53.898003 30.452 53.895996 C 30.431 53.834999 30.365 53.803001 30.305 53.823997 C 30.243999 53.845001 30.212 53.911003 30.233 53.971001 L 30.556999 54.918999 C 30.573 54.964996 30.622 54.990997 30.669001 54.976997 Z"/>
        <path id="path7" fill="#19448d" stroke="none" d="M 43.432999 62.419998 C 43.429001 62.407997 43.417 62.402 43.404999 62.404999 C 43.393002 62.407997 43.387001 62.420998 43.389999 62.431999 L 43.682999 63.389 L 43.431999 62.419998 C 43.432999 62.420998 43.432999 62.419998 43.432999 62.419998 Z"/>
        <path id="path8" fill="#19448d" stroke="none" d="M 42.279999 57.550003 C 42.261002 57.480003 42.188999 57.437996 42.118 57.457001 C 42.047001 57.475998 42.006001 57.547997 42.025002 57.619003 L 42.284 58.586998 C 42.299999 58.642998 42.356998 58.679001 42.415001 58.666 C 42.473999 58.652 42.511002 58.593002 42.498001 58.533997 L 42.282001 57.557999 C 42.280998 57.555 42.280998 57.552002 42.279999 57.550003 Z"/>
        <path id="path9" fill="#19448d" stroke="none" d="M 41.331001 52.638 C 41.301998 52.506996 41.173 52.425003 41.042999 52.453003 C 40.911999 52.482002 40.830002 52.611 40.858002 52.740997 L 41.073002 53.720001 C 41.098999 53.834 41.212002 53.911003 41.327999 53.889 C 41.448002 53.866997 41.527 53.751999 41.505001 53.633003 L 41.334 52.650002 C 41.333 52.648003 41.332001 52.641998 41.331001 52.638 Z"/>
        <path id="path10" fill="#19448d" stroke="none" d="M 40.470001 49.071999 C 40.651001 49.048996 40.778 48.883003 40.755001 48.701996 L 40.639 47.711998 C 40.638 47.707001 40.637001 47.696999 40.636002 47.692001 C 40.605 47.5 40.424 47.370003 40.231998 47.401001 C 40.040001 47.431999 39.91 47.612999 39.941002 47.805 L 40.102001 48.796997 C 40.132 48.970001 40.293999 49.095001 40.470001 49.071999 Z"/>
        <path id="path11" fill="#19448d" stroke="none" d="M 40.301998 43.751999 L 40.301998 43.746002 L 40.251999 42.752998 L 40.251999 42.745003 C 40.251999 42.738998 40.250999 42.733002 40.250999 42.726997 C 40.227001 42.473 40.001999 42.286003 39.748001 42.309998 C 39.493999 42.334 39.306999 42.558998 39.331001 42.812996 L 39.424999 43.815002 C 39.446999 44.047997 39.648998 44.224998 39.884998 44.212997 C 40.127998 44.200996 40.314999 43.994003 40.301998 43.751999 Z"/>
        <path id="path12" fill="#19448d" stroke="none" d="M 39.640999 39.325996 C 39.945 39.334999 40.198002 39.096001 40.207001 38.792 L 40.207001 38.781998 L 40.236 37.792 L 40.236 37.779999 C 40.236 37.772003 40.236 37.764999 40.236 37.756996 C 40.230999 37.441002 39.972 37.189003 39.655998 37.193001 C 39.34 37.197998 39.088001 37.457001 39.091999 37.773003 L 39.106998 38.782997 C 39.112 39.076996 39.346001 39.318001 39.640999 39.325996 Z"/>
        <path id="path13" fill="#19448d" stroke="none" d="M 40.023998 32.093002 C 39.647999 32.064003 39.32 32.345001 39.291 32.721001 L 39.213001 33.730003 C 39.187 34.080002 39.439999 34.392998 39.791 34.435997 C 40.153 34.480003 40.481998 34.222 40.526001 33.860001 L 40.528 33.847 L 40.646999 32.867996 L 40.648998 32.852997 C 40.650002 32.844002 40.651001 32.834999 40.652 32.825996 C 40.681 32.449997 40.400002 32.122002 40.023998 32.093002 Z"/>
        <path id="path14" fill="#19448d" stroke="none" d="M 40.909 27.055 C 40.478001 26.976997 40.066002 27.263 39.987999 27.693001 L 39.806999 28.693001 C 39.735001 29.096001 39.991001 29.489998 40.394001 29.581001 C 40.808998 29.675003 41.221001 29.415001 41.314999 29.000999 L 41.319 28.985001 L 41.536999 28.026001 L 41.541 28.007004 C 41.542999 27.997002 41.544998 27.986 41.547001 27.975998 C 41.625 27.544998 41.339001 27.133003 40.909 27.055 Z"/>
        <path id="path15" fill="#19448d" stroke="none" d="M 42.341 22.143997 C 41.862999 22.001999 41.361 22.275002 41.219002 22.752998 L 40.929001 23.731003 C 40.797001 24.179001 41.039001 24.659004 41.486 24.813004 C 41.945 24.972 42.445999 24.727997 42.605 24.267998 L 42.612 24.249001 L 42.931999 23.321999 L 42.938999 23.301003 C 42.943001 23.290001 42.946999 23.278 42.950001 23.265999 C 43.091 22.788002 42.819 22.285004 42.341 22.143997 Z"/>
        <path id="path16" fill="#19448d" stroke="none" d="M 44.405998 19.708 L 44.410999 19.697998 L 44.598999 19.295998 L 44.604 19.284004 C 44.610001 19.272003 44.615002 19.259003 44.619999 19.247002 C 44.831001 18.737 44.589001 18.151001 44.077999 17.940002 C 43.567001 17.729004 42.981998 17.971001 42.771 18.482002 L 42.594002 18.910004 C 42.394001 19.396004 42.608002 19.960999 43.09 20.185997 C 43.584999 20.417999 44.174 20.204002 44.405998 19.708 Z"/>
        <path id="path17" fill="#19448d" stroke="none" d="M 59.169998 20.154999 L 59.631001 19.291 L 59.643002 19.268997 C 59.653 19.250999 59.661999 19.232002 59.671001 19.212997 C 59.963001 18.586998 59.693001 17.843002 59.067001 17.550003 C 58.441002 17.258003 57.696999 17.528 57.403999 18.153999 L 56.971001 19.081001 C 56.699001 19.666 56.926998 20.371002 57.502998 20.678001 C 58.098999 20.996002 58.84 20.771004 59.158001 20.175003 L 59.169998 20.154999 Z"/>
        <path id="path18" fill="#19448d" stroke="none" d="M 56.84 22.184998 C 56.258999 21.975998 55.618999 22.277 55.41 22.858002 L 55.063999 23.819 C 54.869999 24.360001 55.131001 24.967003 55.667 25.193001 C 56.222 25.427002 56.861 25.166 57.095001 24.611 L 57.104 24.591003 L 57.484001 23.688004 L 57.493 23.666 C 57.5 23.649002 57.507 23.632004 57.513 23.613998 C 57.722 23.035004 57.421001 22.393997 56.84 22.184998 Z"/>
        <path id="path19" fill="#19448d" stroke="none" d="M 55.462002 29.231003 L 55.467999 29.211998 L 55.758999 28.275002 L 55.765999 28.253998 C 55.771 28.237999 55.775002 28.223 55.778999 28.207001 C 55.911999 27.68 55.592999 27.143997 55.066002 27.011002 C 54.539001 26.877998 54.002998 27.196999 53.869999 27.723999 L 53.619999 28.712997 C 53.497002 29.202003 53.777 29.710999 54.264999 29.862 C 54.769001 30.017998 55.305 29.736 55.462002 29.231003 Z"/>
        <path id="path20" fill="#19448d" stroke="none" d="M 53.323002 34.644997 C 53.769001 34.735001 54.203999 34.446999 54.294998 34.000999 L 54.298 33.984001 L 54.493 33.019997 L 54.497002 33.000999 C 54.5 32.987 54.501999 32.973 54.504002 32.959 C 54.573002 32.494003 54.250999 32.060997 53.785999 31.991997 C 53.320999 31.922997 52.888 32.245003 52.819 32.709999 L 52.669998 33.715996 C 52.608002 34.145996 52.890999 34.557999 53.323002 34.644997 Z"/>
        <path id="path21" fill="#19448d" stroke="none" d="M 52.851002 39.495003 C 53.230999 39.532997 53.57 39.255997 53.608002 38.875999 L 53.609001 38.862 L 53.708 37.879997 L 53.709999 37.863998 C 53.710999 37.851997 53.712002 37.839996 53.713001 37.828003 C 53.731998 37.431999 53.425999 37.095001 53.028999 37.075996 C 52.632 37.056999 52.296001 37.362999 52.277 37.760002 L 52.229 38.773003 C 52.213001 39.138 52.484001 39.458 52.851002 39.495003 Z"/>
        <path id="path22" fill="#19448d" stroke="none" d="M 53.395 43.812996 L 53.395 43.803001 L 53.401001 42.810997 L 53.401001 42.798996 C 53.401001 42.789001 53.401001 42.779999 53.400002 42.769997 C 53.384998 42.446999 53.111 42.196999 52.787998 42.212997 C 52.465 42.227997 52.215 42.501999 52.230999 42.824997 L 52.278 43.836998 C 52.292 44.130997 52.534 44.367996 52.832001 44.369003 C 53.140999 44.370003 53.393002 44.121002 53.395 43.812996 Z"/>
        <path id="path23" fill="#19448d" stroke="none" d="M 53.619999 48.755997 L 53.619999 48.749001 L 53.542 47.762001 L 53.541 47.752998 C 53.540001 47.745003 53.540001 47.737999 53.539001 47.730003 C 53.506001 47.482002 53.278999 47.307999 53.030998 47.340996 C 52.783001 47.374001 52.609001 47.600998 52.641998 47.848999 L 52.773998 48.844002 C 52.804001 49.066002 53.002998 49.230003 53.229 49.211998 C 53.464001 49.195 53.639 48.989998 53.619999 48.755997 Z"/>
        <path id="path24" fill="#19448d" stroke="none" d="M 54.236 53.681 L 54.084999 52.699997 C 54.084 52.695 54.082001 52.683998 54.081001 52.679001 C 54.044998 52.505997 53.875999 52.395996 53.702999 52.431999 C 53.529999 52.468002 53.419998 52.637001 53.456001 52.809998 L 53.660999 53.789001 C 53.695 53.939003 53.841999 54.043999 53.995998 54.017998 C 54.154999 53.991997 54.263 53.840996 54.236 53.681 Z"/>
        <path id="path25" fill="#19448d" stroke="none" d="M 54.740002 57.459999 C 54.640999 57.487 54.583 57.589996 54.610001 57.689003 L 54.875999 58.653 C 54.898998 58.734001 54.983002 58.784996 55.066002 58.765999 C 55.152 58.746002 55.205002 58.659996 55.186001 58.574997 L 54.973 57.601997 C 54.972 57.598999 54.971001 57.593002 54.970001 57.589996 C 54.942001 57.490997 54.84 57.432999 54.740002 57.459999 Z"/>
        <path id="path26" fill="#19448d" stroke="none" d="M 56.144001 62.447998 C 56.134998 62.419998 56.105 62.404999 56.077 62.414001 C 56.049 62.422997 56.034 62.453003 56.042999 62.481003 L 56.358002 63.43 C 56.362999 63.443001 56.376999 63.451004 56.389999 63.446999 C 56.403999 63.443001 56.411999 63.428001 56.408001 63.414001 L 56.144001 62.449997 C 56.145 62.450996 56.144001 62.448997 56.144001 62.447998 Z"/>
        <path id="path27" fill="#19448d" stroke="none" d="M 69.081001 59.704002 C 69.059998 59.709 69.046997 59.730003 69.052002 59.75 L 69.282997 60.722 L 69.127998 59.735001 C 69.127998 59.734001 69.127998 59.732002 69.126999 59.731003 C 69.123001 59.711998 69.101997 59.698997 69.081001 59.704002 Z"/>
        <path id="path28" fill="#19448d" stroke="none" d="M 68.578003 54.778999 C 68.578003 54.773003 68.577003 54.764 68.575996 54.758003 C 68.556 54.631996 68.436996 54.545998 68.310997 54.566002 C 68.184998 54.585999 68.098999 54.705002 68.119003 54.831001 L 68.277 55.817001 C 68.293999 55.915001 68.385002 55.987999 68.486 55.977997 C 68.592003 55.968002 68.669998 55.874001 68.658997 55.767998 L 68.578003 54.778999 Z"/>
        <path id="path29" fill="#19448d" stroke="none" d="M 68.384003 50.802002 L 68.384003 50.796997 L 68.367996 49.802002 L 68.367996 49.795998 C 68.367996 49.786003 68.366997 49.775002 68.365997 49.764 C 68.344002 49.530998 68.138 49.360001 67.903999 49.380997 C 67.669998 49.402 67.5 49.609001 67.521004 49.843002 L 67.614998 50.844002 C 67.634003 51.042 67.803001 51.196999 68.004997 51.193001 C 68.218002 51.190002 68.388 51.014999 68.384003 50.802002 Z"/>
        <path id="path30" fill="#19448d" stroke="none" d="M 68.429001 45.832001 L 68.429001 45.823997 L 68.474998 44.832001 L 68.474998 44.822998 C 68.475998 44.807999 68.475998 44.792 68.474998 44.777 C 68.464996 44.436996 68.18 44.168999 67.839996 44.179001 C 67.5 44.189003 67.232002 44.473999 67.241997 44.814003 L 67.273003 45.821999 C 67.282997 46.120003 67.521004 46.366997 67.823997 46.381996 C 68.142998 46.397003 68.414001 46.151001 68.429001 45.832001 Z"/>
        <path id="path31" fill="#19448d" stroke="none" d="M 67.279999 39.765999 L 67.247002 40.776001 C 67.235001 41.173996 67.529999 41.523003 67.932999 41.567001 C 68.356003 41.613998 68.737 41.308998 68.782997 40.886002 L 68.783997 40.875999 L 68.892998 39.890999 L 68.893997 39.878998 C 68.896004 39.859001 68.897003 39.838997 68.898003 39.819 C 68.913002 39.372002 68.561996 38.998001 68.115997 38.983002 C 67.668999 38.969002 67.294998 39.319 67.279999 39.765999 Z"/>
        <path id="path32" fill="#19448d" stroke="none" d="M 69.457001 35.975998 L 69.632004 35.004997 L 69.635002 34.989998 C 69.639 34.965996 69.642998 34.941002 69.644997 34.916 C 69.700996 34.364998 69.300003 33.874001 68.749001 33.818001 C 68.197998 33.762001 67.707001 34.163002 67.651001 34.713997 L 67.549004 35.723999 C 67.5 36.219002 67.838997 36.679001 68.336998 36.768997 C 68.860001 36.862999 69.361 36.514999 69.455002 35.991997 L 69.457001 35.975998 Z"/>
        <path id="path33" fill="#19448d" stroke="none" d="M 69.781998 28.711998 C 69.133003 28.595001 68.511002 29.026001 68.393997 29.676003 L 68.212997 30.68 C 68.109001 31.266998 68.471001 31.849998 69.057999 32.002998 C 69.675003 32.164001 70.306999 31.794998 70.468002 31.177002 L 70.473 31.156998 L 70.721001 30.208 L 70.725998 30.187004 C 70.733002 30.157997 70.739998 30.128998 70.745003 30.099998 C 70.862999 29.451004 70.431999 28.830002 69.781998 28.711998 Z"/>
        <path id="path34" fill="#19448d" stroke="none" d="M 71.291 23.724998 C 70.553001 23.517998 69.787003 23.948997 69.581001 24.687004 L 69.304001 25.678001 C 69.117996 26.348999 69.474998 27.065002 70.139999 27.307999 C 70.838997 27.563004 71.612999 27.203003 71.867996 26.503998 L 71.878998 26.474998 L 72.211998 25.562004 L 72.222 25.534004 C 72.234001 25.501999 72.244003 25.469002 72.253998 25.434998 C 72.459999 24.696999 72.028999 23.931 71.291 23.724998 Z"/>
        <path id="path35" fill="#19448d" stroke="none" d="M 86.694 39.649002 C 86.694 39.650002 86.694 39.650002 86.694 39.649002 C 86.693001 39.653999 86.695 39.657997 86.699997 39.658997 C 86.704002 39.659996 86.709 39.657997 86.709999 39.653 L 86.980003 38.690002 L 86.694 39.649002 Z"/>
        <path id="path36" fill="#19448d" stroke="none" d="M 85.359001 43.417999 L 84.976997 44.340996 C 84.976997 44.340996 84.975998 44.343002 84.975998 44.343002 C 84.966003 44.367996 84.977997 44.397003 85.003998 44.406998 C 85.028999 44.417 85.057999 44.404999 85.068001 44.378998 L 85.435997 43.447998 C 85.444 43.427002 85.433998 43.403 85.413002 43.394997 C 85.390999 43.386002 85.366997 43.397003 85.359001 43.417999 Z"/>
        <path id="path37" fill="#19448d" stroke="none" d="M 83.246002 47.939003 L 82.762001 48.810997 C 82.762001 48.810997 82.760002 48.814003 82.760002 48.814003 C 82.737 48.858002 82.752998 48.913002 82.796997 48.935997 C 82.841003 48.959 82.896004 48.943001 82.918999 48.899002 L 83.389999 48.014999 C 83.410004 47.974998 83.394997 47.925003 83.356003 47.903999 C 83.317001 47.883003 83.266998 47.899002 83.246002 47.939003 Z"/>
        <path id="path38" fill="#19448d" stroke="none" d="M 80.616997 52.172997 L 80.028 52.976997 C 80.028 52.976997 80.025002 52.981003 80.025002 52.982002 C 79.983002 53.041 79.997002 53.123001 80.056 53.165001 C 80.114998 53.207001 80.196999 53.193001 80.238998 53.134003 L 80.819 52.315002 C 80.856003 52.259003 80.844002 52.181 80.789001 52.142998 C 80.733002 52.102997 80.655998 52.116997 80.616997 52.172997 Z"/>
        <path id="path39" fill="#19448d" stroke="none" d="M 77.461998 56.020996 L 76.767998 56.734001 C 76.767998 56.734001 76.763 56.738998 76.763 56.739998 C 76.697998 56.808998 76.700996 56.917999 76.769997 56.983002 C 76.838997 57.047997 76.947998 57.044998 77.013 56.975998 L 77.702003 56.244003 C 77.761002 56.177002 77.759003 56.071999 77.694 56.011002 C 77.625999 55.949997 77.523003 55.954002 77.461998 56.020996 Z"/>
        <path id="path40" fill="#19448d" stroke="none" d="M 73.797997 59.366997 L 73.792999 59.371002 L 73.001999 59.972 L 72.996002 59.976997 C 72.995003 59.976997 72.995003 59.977997 72.994003 59.977997 C 72.901001 60.051003 72.885002 60.184998 72.958 60.277 C 73.030998 60.369003 73.165001 60.386002 73.257004 60.312996 L 74.047997 59.692001 C 74.136002 59.623001 74.152 59.496002 74.084999 59.406998 C 74.015999 59.316002 73.888 59.298996 73.797997 59.366997 Z"/>
        <path id="path41" fill="#19448d" stroke="none" d="M 69.669998 62.114998 L 69.663002 62.119003 L 68.789001 62.587997 L 68.780998 62.592003 C 68.779999 62.592003 68.778999 62.593002 68.778999 62.593002 C 68.656998 62.661003 68.612999 62.816002 68.681 62.939003 C 68.749001 63.060997 68.903999 63.105003 69.027 63.037003 L 69.906998 62.545998 C 70.024002 62.481003 70.067001 62.333 70.003998 62.214996 C 69.938004 62.095001 69.789001 62.051003 69.669998 62.114998 Z"/>
        <path id="path42" fill="#19448d" stroke="none" d="M 65.169998 64.183998 L 65.162003 64.187004 L 64.226997 64.515999 L 64.217003 64.519005 C 64.216003 64.519005 64.214996 64.520004 64.213997 64.520004 C 64.060997 64.577003 63.983002 64.746002 64.040001 64.899002 C 64.097 65.052002 64.265999 65.130005 64.418999 65.072998 L 65.364998 64.723 C 65.511002 64.668999 65.587997 64.507004 65.536003 64.359001 C 65.483002 64.209999 65.319 64.131004 65.169998 64.183998 Z"/>
        <path id="path43" fill="#19448d" stroke="none" d="M 60.410999 65.546005 L 60.402 65.548004 L 59.429001 65.737 L 59.417999 65.738998 C 59.417 65.738998 59.416 65.738998 59.414001 65.739998 C 59.231998 65.778 59.116001 65.956001 59.154999 66.138 C 59.194 66.32 59.370998 66.436005 59.553001 66.397003 L 60.540001 66.189003 C 60.714001 66.152 60.827999 65.982002 60.793999 65.806 C 60.759998 65.627998 60.589001 65.512001 60.410999 65.546005 Z"/>
        <path id="path44" fill="#19448d" stroke="none" d="M 55.507999 66.224998 L 55.499001 66.225998 L 54.509998 66.284004 L 54.499001 66.285004 C 54.498001 66.285004 54.495998 66.285004 54.494999 66.285004 C 54.286999 66.301003 54.132 66.482002 54.147999 66.689003 C 54.164001 66.897003 54.345001 67.052002 54.551998 67.036003 L 55.557999 66.959999 C 55.757999 66.945 55.91 66.772003 55.897999 66.570999 C 55.884998 66.368004 55.710999 66.213005 55.507999 66.224998 Z"/>
        <path id="path45" fill="#19448d" stroke="none" d="M 50.556 66.281998 L 50.547001 66.280998 L 49.557999 66.223999 L 49.546001 66.223 C 49.543999 66.223 49.542999 66.223 49.541 66.223 C 49.310001 66.214005 49.115002 66.392998 49.105999 66.624001 C 49.097 66.855003 49.276001 67.050003 49.507 67.058998 L 50.515999 67.100998 C 50.738998 67.110001 50.929001 66.939003 50.942001 66.715004 C 50.955002 66.488998 50.782001 66.294998 50.556 66.281998 Z"/>
        <path id="path46" fill="#19448d" stroke="none" d="M 45.639999 65.761002 L 45.627998 65.759003 L 44.655998 65.582001 L 44.641998 65.579002 C 44.639999 65.579002 44.639 65.578003 44.637001 65.578003 C 44.386002 65.537003 44.148998 65.706001 44.108002 65.957001 C 44.067001 66.208 44.236 66.445 44.487 66.486 L 45.485001 66.651001 C 45.728001 66.691002 45.959 66.528999 46.002998 66.286003 C 46.049 66.042 45.886002 65.806 45.639999 65.761002 Z"/>
        <path id="path47" fill="#19448d" stroke="none" d="M 40.844002 64.620003 L 40.830002 64.614998 L 39.893002 64.306999 L 39.876999 64.302002 C 39.875 64.301003 39.873001 64.301003 39.870998 64.300003 C 39.605999 64.218002 39.324001 64.366005 39.242001 64.631004 C 39.16 64.896004 39.307999 65.178001 39.573002 65.260002 L 40.542999 65.561005 C 40.799999 65.640999 41.074001 65.5 41.159 65.244003 C 41.243999 64.985001 41.103001 64.706001 40.844002 64.620003 Z"/>
        <path id="path48" fill="#19448d" stroke="none" d="M 36.275002 62.807999 L 36.258999 62.800003 L 35.383999 62.352997 L 35.366001 62.344002 C 35.363998 62.343002 35.362 62.342003 35.360001 62.340996 C 35.09 62.209 34.764 62.320999 34.631001 62.590996 C 34.498001 62.861 34.611 63.186996 34.881001 63.32 L 35.794998 63.767998 C 36.056999 63.896004 36.375 63.791 36.507999 63.529999 C 36.643002 63.265999 36.537998 62.943001 36.275002 62.807999 Z"/>
        <path id="path49" fill="#19448d" stroke="none" d="M 32.054001 60.282997 L 31.271 59.695 L 31.252001 59.68 C 31.25 59.679001 31.247999 59.677002 31.247 59.676003 C 30.985001 59.486 30.618 59.543999 30.427999 59.806 C 30.238001 60.068001 30.296 60.434998 30.558001 60.625 L 31.385 61.224998 C 31.639999 61.409996 31.997 61.357002 32.187 61.103996 C 32.379002 60.848999 32.327 60.486 32.071999 60.294998 L 32.054001 60.282997 Z"/>
        <path id="path50" fill="#19448d" stroke="none" d="M 28.379999 57.068001 L 27.725 56.345001 L 27.705999 56.323997 C 27.704 56.321999 27.702999 56.32 27.701 56.319 C 27.462999 56.066002 27.066 56.053001 26.812 56.290001 C 26.559 56.528 26.546 56.925003 26.783001 57.179001 L 27.483999 57.927002 C 27.715 58.172997 28.101999 58.190002 28.353001 57.961998 C 28.607 57.732002 28.625999 57.339996 28.396 57.085999 L 28.379999 57.068001 Z"/>
        <path id="path51" fill="#19448d" stroke="none" d="M 25.417 53.213997 L 24.924 52.375999 L 24.908001 52.348999 C 24.907 52.347 24.905001 52.345001 24.903999 52.342003 C 24.711 52.026001 24.298 51.926003 23.982 52.119003 C 23.666 52.311996 23.566 52.724998 23.759001 53.041 L 24.295 53.917999 C 24.483 54.224998 24.884001 54.326996 25.195999 54.143997 C 25.511 53.959 25.617001 53.553001 25.431 53.237999 L 25.417 53.213997 Z"/>
        <path id="path52" fill="#19448d" stroke="none" d="M 23.325001 48.844002 L 23.021999 47.922997 L 23.011 47.890999 C 23.01 47.888 23.009001 47.886002 23.007999 47.883003 C 22.879 47.511002 22.473 47.314003 22.101 47.444 C 21.729 47.572998 21.532 47.978996 21.662001 48.350998 L 22 49.323997 C 22.125999 49.685997 22.518999 49.881996 22.885 49.762001 C 23.254999 49.640999 23.455999 49.242996 23.334 48.873001 L 23.325001 48.844002 Z"/>
        <path id="path53" fill="#19448d" stroke="none" d="M 22.219 44.168999 L 22.216 44.137001 L 22.115999 43.173996 L 22.112 43.139 C 22.112 43.136002 22.111 43.133003 22.111 43.129997 C 22.061001 42.715996 21.684999 42.420998 21.271 42.471001 C 20.857 42.520996 20.562 42.897003 20.612 43.310997 L 20.736 44.334999 C 20.785 44.737999 21.149 45.029999 21.554001 44.987 C 21.964001 44.945999 22.261999 44.579002 22.219 44.168999 Z"/>
        <path id="path54" fill="#19448d" stroke="none" d="M 21.246 40.041 C 21.679001 40.085999 22.066 39.770996 22.111 39.337997 L 22.114 39.305 L 22.212999 38.344002 L 22.216999 38.306999 C 22.216999 38.304001 22.218 38.301003 22.218 38.297997 C 22.256001 37.859001 21.931 37.473 21.492001 37.435997 C 21.052999 37.398003 20.667 37.723 20.629999 38.162003 L 20.541 39.191002 C 20.504999 39.616997 20.816999 39.997002 21.246 40.041 Z"/>
        <path id="path55" fill="#19448d" stroke="none" d="M 21.952999 35.137001 C 22.389 35.278999 22.858 35.042 23 34.606003 L 23.011 34.571999 L 23.309999 33.655998 L 23.322001 33.617996 C 23.323 33.614998 23.323999 33.612 23.325001 33.609001 C 23.462 33.166 23.212999 32.696999 22.77 32.559998 C 22.327 32.423996 21.858 32.671997 21.721001 33.114998 L 21.416 34.105003 C 21.285 34.533997 21.521999 34.996002 21.952999 35.137001 Z"/>
        <path id="path56" fill="#19448d" stroke="none" d="M 24.872999 30.179001 L 24.892 30.147003 L 25.379 29.316002 L 25.4 29.279999 C 25.402 29.277 25.403 29.274002 25.405001 29.271004 C 25.643999 28.847 25.493999 28.309998 25.07 28.070999 C 24.646 27.832001 24.108999 27.982002 23.870001 28.405998 L 23.361 29.308998 C 23.128 29.723 23.268999 30.249001 23.68 30.489998 C 24.094999 30.734001 24.629999 30.594002 24.872999 30.179001 Z"/>
        <path id="path57" fill="#19448d" stroke="none" d="M 27.635 26.245003 L 27.66 26.217003 L 28.306999 25.502998 L 28.334999 25.473 C 28.337 25.470001 28.34 25.468002 28.341999 25.465004 C 28.677999 25.081001 28.639 24.498001 28.256001 24.162003 C 27.872 23.826004 27.289 23.864998 26.952999 24.248001 L 26.27 25.028 C 25.941999 25.402 25.974001 25.973 26.344 26.307999 C 26.718 26.648003 27.296 26.619003 27.635 26.245003 Z"/>
        <path id="path58" fill="#19448d" stroke="none" d="M 30.788 20.779999 L 29.969999 21.415001 C 29.559 21.734001 29.478001 22.326004 29.791 22.744003 C 30.108 23.167 30.707001 23.252998 31.129999 22.935997 L 31.159 22.915001 L 31.931 22.335999 L 31.962999 22.312004 C 31.966 22.309998 31.969 22.306999 31.972 22.305 C 32.393002 21.977997 32.470001 21.372002 32.143002 20.951004 C 31.816 20.528999 31.209 20.453003 30.788 20.779999 Z"/>
        <path id="path59" fill="#19448d" stroke="none" d="M 35.178001 18.062004 L 34.264999 18.543999 C 33.785 18.798004 33.594002 19.391998 33.841 19.878998 C 34.09 20.371002 34.691002 20.567001 35.182999 20.318001 L 35.213001 20.303001 L 36.075001 19.865997 L 36.109001 19.848999 C 36.112 19.847 36.116001 19.845001 36.118999 19.844002 C 36.611 19.584 36.799 18.973999 36.539001 18.483002 C 36.278999 17.989998 35.669998 17.802002 35.178001 18.062004 Z"/>
        <path id="path60" fill="#19448d" stroke="none" d="M 39.625999 18.404999 L 39.655998 18.395004 L 40.577999 18.096001 L 40.612 18.084999 C 40.616001 18.084 40.619999 18.082001 40.624001 18.081001 C 41.172001 17.892998 41.464001 17.295998 41.276001 16.748001 C 41.088001 16.199997 40.491001 15.907997 39.943001 16.096001 L 38.967999 16.43 C 38.431999 16.613998 38.139999 17.195 38.316002 17.736 C 38.492001 18.282997 39.078999 18.582001 39.625999 18.404999 Z"/>
        <path id="path61" fill="#19448d" stroke="none" d="M 44.93 14.844002 L 43.919998 15.040001 C 43.341999 15.153 42.957001 15.709 43.060001 16.291 C 43.164001 16.879997 43.726002 17.273003 44.314999 17.168999 L 44.344002 17.164001 L 45.300999 16.995003 L 45.334 16.988998 C 45.338001 16.987999 45.341999 16.987 45.346001 16.987 C 45.938 16.872002 46.325001 16.299004 46.209999 15.708 C 46.095001 15.115997 45.521999 14.730003 44.93 14.844002 Z"/>
        <path id="path62" fill="#19448d" stroke="none" d="M 50.028999 14.249001 L 49.005001 14.319 C 48.394001 14.361 47.926998 14.885002 47.958 15.499001 C 47.990002 16.119003 48.519001 16.597 49.139 16.565002 L 49.166 16.564003 L 50.138 16.514 L 50.169998 16.512001 C 50.174 16.512001 50.179001 16.512001 50.182999 16.511002 C 50.807999 16.468002 51.278999 15.928001 51.237 15.303001 C 51.194 14.678001 50.653 14.206001 50.028999 14.249001 Z"/>
        <path id="path63" fill="#19448d" stroke="none" d="M 53.986 16.540001 L 54.02 16.542999 L 54.984001 16.615997 L 55.022999 16.619003 C 55.027 16.619003 55.030998 16.620003 55.034 16.620003 C 55.681 16.659004 56.237 16.167 56.276001 15.520004 C 56.314999 14.873001 55.823002 14.317001 55.175999 14.278 L 54.144001 14.214996 C 53.509998 14.177002 52.959999 14.654999 52.911999 15.290001 C 52.863998 15.931999 53.344002 16.490997 53.986 16.540001 Z"/>
        <path id="path64" fill="#19448d" stroke="none" d="M 60.289001 15.036003 L 59.276001 14.825996 C 58.633999 14.693001 58.000999 15.098999 57.858002 15.740997 C 57.713001 16.389 58.120998 17.031998 58.769001 17.177002 L 58.803001 17.184998 L 59.744999 17.395004 L 59.785 17.403999 C 59.789001 17.404999 59.792999 17.405998 59.796001 17.405998 C 60.450001 17.542 61.091 17.122002 61.227001 16.467003 C 61.363998 15.812004 60.944 15.171997 60.289001 15.036003 Z"/>
        <path id="path65" fill="#19448d" stroke="none" d="M 65.244003 16.516998 L 64.271004 16.165001 C 63.634998 15.934998 62.93 16.257004 62.689999 16.891998 C 62.446999 17.531998 62.77 18.248001 63.41 18.490997 L 63.443001 18.503998 L 64.345001 18.846001 L 64.384003 18.861 C 64.388 18.862 64.391998 18.863998 64.394997 18.864998 C 65.042999 19.098999 65.758003 18.764 65.992996 18.115997 C 66.226997 17.466003 65.891998 16.750999 65.244003 16.516998 Z"/>
        <path id="path66" fill="#19448d" stroke="none" d="M 67.816002 20.443001 L 67.848 20.459999 L 68.693001 20.924004 L 68.730003 20.944 C 68.734001 20.945999 68.737 20.947998 68.740997 20.949997 C 69.367996 21.281998 70.146004 21.042999 70.477997 20.416 C 70.809998 19.789001 70.570999 19.011002 69.944 18.679001 L 69.028999 18.195 C 68.414001 17.870003 67.648003 18.097 67.311996 18.709 C 66.972 19.327003 67.197998 20.102997 67.816002 20.443001 Z"/>
        <path id="path67" fill="#19448d" stroke="none" d="M 73.459999 20.864998 C 72.878998 20.445999 72.066002 20.57 71.637001 21.147003 C 71.204002 21.730003 71.324997 22.553001 71.906998 22.986 L 71.935997 23.008003 L 72.709 23.583 L 72.742996 23.608002 C 72.746002 23.611 72.75 23.612999 72.752998 23.614998 C 73.345001 24.042 74.171997 23.907997 74.598999 23.316002 C 75.026001 22.723999 74.891998 21.897003 74.300003 21.470001 L 73.459999 20.864998 Z"/>
        <path id="path68" fill="#19448d" stroke="none" d="M 78.240997 24.832001 L 77.489998 24.116997 C 76.956001 23.609001 76.111 23.622002 75.593002 24.149002 C 75.07 24.681999 75.078003 25.538002 75.611 26.059998 L 75.638 26.085999 L 76.325996 26.760002 L 76.357002 26.791 C 76.360001 26.793999 76.362999 26.796997 76.365997 26.800003 C 76.910004 27.318001 77.769997 27.296997 78.288002 26.752998 C 78.806 26.210999 78.785004 25.349998 78.240997 24.832001 Z"/>
        <path id="path69" fill="#19448d" stroke="none" d="M 81.470001 30.665001 C 82.072998 30.183998 82.171997 29.305 81.691002 28.702003 L 81.043999 27.889999 C 80.571999 27.298004 79.709 27.193001 79.108002 27.657997 C 78.500999 28.126999 78.389999 29 78.859001 29.606003 L 78.883003 29.637001 L 79.472 30.398003 L 79.5 30.433998 C 79.502998 30.438004 79.505997 30.441002 79.508003 30.445 C 79.987999 31.048004 80.866997 31.147003 81.470001 30.665001 Z"/>
        <path id="path70" fill="#19448d" stroke="none" d="M 84.080002 34.980003 C 84.761002 34.575996 84.986 33.695999 84.582001 33.014999 L 84.052002 32.121002 C 83.654999 31.453003 82.792999 31.223 82.115997 31.611 C 81.432999 32.002998 81.195999 32.874001 81.587997 33.557999 L 81.608002 33.593002 L 82.084999 34.426003 L 82.108002 34.467003 C 82.110001 34.471001 82.112999 34.474998 82.114998 34.478996 C 82.518997 35.158997 83.399002 35.384003 84.080002 34.980003 Z"/>
        <path id="path71" fill="#19448d" stroke="none" d="M 86.849998 37.695999 L 86.448997 36.734001 C 86.141998 35.998001 85.299004 35.640999 84.556 35.936996 C 83.805 36.237 83.440002 37.087997 83.738998 37.838997 L 83.754997 37.877998 L 84.110001 38.767998 L 84.127998 38.812996 C 84.129997 38.817001 84.132004 38.821999 84.133003 38.825996 C 84.445 39.575996 85.306999 39.931 86.056999 39.619003 C 86.806999 39.306999 87.162003 38.445999 86.849998 37.695999 Z"/>
    </g>
    <g id="g1">
        <path id="path72" fill="#19448d" stroke="none" d="M 141.451996 54.364998 L 141.445999 54.380997 L 141.080002 55.295998 L 141.072998 55.314003 C 141.067993 55.325996 141.063995 55.337997 141.059998 55.349998 C 140.906998 55.793999 141.143005 56.278 141.587006 56.431 C 142.031006 56.584 142.514999 56.348 142.667999 55.903999 L 142.998993 54.941002 C 143.139999 54.528 142.934998 54.07 142.524994 53.905998 C 142.100998 53.736 141.621002 53.941002 141.451996 54.364998 Z"/>
        <path id="path73" fill="#19448d" stroke="none" d="M 143.25 51.578003 C 143.641998 51.667 144.031998 51.421997 144.121994 51.029999 L 144.348007 50.038002 C 144.429993 49.675003 144.214996 49.306 143.852005 49.205002 C 143.477997 49.099998 143.089996 49.318001 142.985001 49.692001 L 142.979996 49.708 L 142.714005 50.655998 L 142.709 50.673996 C 142.705994 50.684998 142.703003 50.695 142.701004 50.706001 C 142.613007 51.098 142.858002 51.487999 143.25 51.578003 Z"/>
        <path id="path74" fill="#19448d" stroke="none" d="M 143.811005 45.874001 C 143.809998 45.883003 143.809006 45.891998 143.807999 45.901001 C 143.774002 46.234001 144.016998 46.530998 144.348999 46.565002 C 144.682007 46.598999 144.979004 46.356003 145.013 46.024002 L 145.115997 45.014 C 145.147003 44.708 144.932007 44.428001 144.625 44.380997 C 144.307999 44.333 144.011993 44.551003 143.964005 44.867996 L 143.962006 44.883003 L 143.815002 45.857002 L 143.811005 45.874001 Z"/>
        <path id="path75" fill="#19448d" stroke="none" d="M 144.785004 39.501999 C 144.531998 39.497002 144.322006 39.697998 144.317001 39.950996 L 144.317001 39.962997 L 144.296997 40.950996 L 144.296997 40.964996 C 144.296997 40.972 144.296997 40.980003 144.296997 40.987 C 144.304993 41.253998 144.526993 41.463997 144.794006 41.456001 C 145.061005 41.447998 145.270996 41.225998 145.263 40.959 L 145.233994 39.946999 C 145.227005 39.705002 145.029999 39.506996 144.785004 39.501999 Z"/>
        <path id="path76" fill="#19448d" stroke="none" d="M 144.151001 36.009003 L 144.151993 36.017998 C 144.153 36.023003 144.153 36.028999 144.154007 36.033997 C 144.184006 36.231003 144.367996 36.365997 144.565002 36.336998 C 144.761993 36.307999 144.897003 36.123001 144.867996 35.926003 L 144.716995 34.93 C 144.690002 34.753998 144.529999 34.627998 144.350998 34.645996 C 144.166 34.665001 144.031998 34.830002 144.050995 35.014 L 144.052002 35.022003 L 144.151001 36.009003 Z"/>
        <path id="path77" fill="#19448d" stroke="none" d="M 143.440002 31.112999 C 143.473007 31.239998 143.602997 31.317001 143.729996 31.284004 C 143.856995 31.250999 143.934006 31.121002 143.901001 30.994003 L 143.649994 30.022003 C 143.619995 29.913002 143.507996 29.842003 143.395996 29.866997 C 143.281006 29.892998 143.207993 30.007004 143.233994 30.122002 L 143.434998 31.097 C 143.438004 31.100998 143.440002 31.109001 143.440002 31.112999 Z"/>
        <path id="path78" fill="#19448d" stroke="none" d="M 142.054993 25.178001 C 142.007004 25.193001 141.979004 25.243004 141.994003 25.292 L 142.270004 26.251999 C 142.270004 26.253998 142.272003 26.257004 142.272003 26.259003 C 142.292999 26.32 142.358994 26.351997 142.419006 26.331001 C 142.479996 26.309998 142.511993 26.244003 142.490997 26.183998 L 142.167007 25.236 C 142.151993 25.190002 142.102005 25.164001 142.054993 25.178001 Z"/>
        <path id="path79" fill="#19448d" stroke="none" d="M 129.291 17.735001 C 129.294998 17.747002 129.307007 17.752998 129.319 17.75 C 129.330994 17.747002 129.337006 17.734001 129.334 17.723 L 129.041 16.765999 L 129.292007 17.735001 C 129.291 17.734001 129.291 17.735001 129.291 17.735001 Z"/>
        <path id="path80" fill="#19448d" stroke="none" d="M 130.444 22.605003 C 130.462997 22.675003 130.535004 22.717003 130.606003 22.697998 C 130.677002 22.679001 130.718002 22.607002 130.699005 22.536003 L 130.440002 21.568001 C 130.423996 21.512001 130.367004 21.475998 130.309006 21.488998 C 130.25 21.502998 130.212997 21.562004 130.225998 21.621002 L 130.442001 22.597 C 130.442993 22.599998 130.444 22.602997 130.444 22.605003 Z"/>
        <path id="path81" fill="#19448d" stroke="none" d="M 131.393997 27.516998 C 131.423004 27.648003 131.552002 27.730003 131.682007 27.702003 C 131.813004 27.673004 131.895004 27.543999 131.867004 27.414001 L 131.651993 26.434998 C 131.626007 26.320999 131.513 26.244003 131.397003 26.265999 C 131.276993 26.288002 131.197998 26.403 131.220001 26.522003 L 131.391006 27.504997 C 131.391998 27.507004 131.393005 27.514 131.393997 27.516998 Z"/>
        <path id="path82" fill="#19448d" stroke="none" d="M 132.255005 31.083 C 132.074005 31.106003 131.947006 31.272003 131.970001 31.453003 L 132.085999 32.443001 C 132.087006 32.447998 132.087997 32.458 132.089005 32.462997 C 132.119995 32.654999 132.300995 32.784996 132.492996 32.753998 C 132.684998 32.723 132.815002 32.542 132.783997 32.349998 L 132.623001 31.358002 C 132.593002 31.184998 132.431 31.059998 132.255005 31.083 Z"/>
        <path id="path83" fill="#19448d" stroke="none" d="M 132.421997 36.403 L 132.421997 36.408997 L 132.472 37.402 L 132.472 37.409996 C 132.472 37.416 132.473007 37.421997 132.473007 37.428001 C 132.496994 37.681999 132.722 37.869003 132.975998 37.845001 C 133.229996 37.820999 133.417007 37.596001 133.393005 37.342003 L 133.298996 36.339996 C 133.276993 36.107002 133.074997 35.93 132.839005 35.942001 C 132.597 35.954002 132.410004 36.161003 132.421997 36.403 Z"/>
        <path id="path84" fill="#19448d" stroke="none" d="M 133.084 40.829002 C 132.779999 40.82 132.526993 41.058998 132.518005 41.362999 L 132.518005 41.373001 L 132.488998 42.362999 L 132.488998 42.375 C 132.488998 42.383003 132.488998 42.389999 132.488998 42.398003 C 132.494003 42.713997 132.753006 42.965996 133.069 42.961998 C 133.384995 42.957001 133.636993 42.697998 133.632996 42.381996 L 133.617996 41.372002 C 133.613007 41.078003 133.378998 40.836998 133.084 40.829002 Z"/>
        <path id="path85" fill="#19448d" stroke="none" d="M 132.699997 48.061996 C 133.076004 48.090996 133.404007 47.809998 133.432999 47.433998 L 133.511002 46.425003 C 133.537003 46.074997 133.283997 45.762001 132.932999 45.719002 C 132.570999 45.675003 132.242004 45.932999 132.197998 46.294998 L 132.195999 46.307999 L 132.076996 47.287003 L 132.074997 47.302002 C 132.074005 47.310997 132.072998 47.32 132.072006 47.329002 C 132.042999 47.705002 132.324005 48.032997 132.699997 48.061996 Z"/>
        <path id="path86" fill="#19448d" stroke="none" d="M 131.815994 53.099998 C 132.246994 53.178001 132.658997 52.891998 132.737 52.461998 L 132.917999 51.461998 C 132.990005 51.058998 132.733994 50.665001 132.330994 50.573997 C 131.916 50.480003 131.503998 50.739998 131.410004 51.153999 L 131.406006 51.169998 L 131.188004 52.128998 L 131.184006 52.148003 C 131.182007 52.157997 131.179993 52.168999 131.177994 52.179001 C 131.098999 52.610001 131.384995 53.022003 131.815994 53.099998 Z"/>
        <path id="path87" fill="#19448d" stroke="none" d="M 130.384003 58.011002 C 130.862 58.153 131.363998 57.879997 131.505997 57.402 L 131.796005 56.423996 C 131.927994 55.975998 131.686005 55.496002 131.238998 55.342003 C 130.779999 55.182999 130.279007 55.427002 130.119995 55.887001 L 130.113007 55.905998 L 129.792999 56.833 L 129.785995 56.853996 C 129.781998 56.864998 129.778 56.876999 129.774994 56.889 C 129.632996 57.366997 129.906006 57.870003 130.384003 58.011002 Z"/>
        <path id="path88" fill="#19448d" stroke="none" d="M 128.319 60.446999 L 128.313995 60.457001 L 128.126007 60.859001 L 128.121002 60.871002 C 128.115005 60.883003 128.110001 60.895996 128.104996 60.907997 C 127.893997 61.417999 128.136002 62.003998 128.647003 62.214996 C 129.158005 62.426003 129.742996 62.183998 129.953995 61.672997 L 130.130997 61.245003 C 130.330994 60.759003 130.117004 60.194 129.634995 59.969002 C 129.139008 59.737 128.550003 59.950996 128.319 60.446999 Z"/>
        <path id="path89" fill="#19448d" stroke="none" d="M 113.554001 60 L 113.093002 60.863998 L 113.081001 60.886002 C 113.070999 60.903999 113.061996 60.922997 113.053001 60.942001 C 112.761002 61.568001 113.030998 62.311996 113.656998 62.605003 C 114.282997 62.897003 115.027 62.626999 115.32 62.000999 L 115.752998 61.073997 C 116.025002 60.488998 115.796997 59.783997 115.221001 59.476997 C 114.625 59.158997 113.884003 59.384003 113.566002 59.980003 L 113.554001 60 Z"/>
        <path id="path90" fill="#19448d" stroke="none" d="M 115.885002 57.970001 C 116.466003 58.179001 117.106003 57.877998 117.315002 57.296997 L 117.661003 56.335999 C 117.855003 55.794998 117.594002 55.187996 117.057999 54.961998 C 116.502998 54.727997 115.863998 54.988998 115.629997 55.543999 L 115.621002 55.564003 L 115.240997 56.467003 L 115.232002 56.488998 C 115.224998 56.505997 115.218002 56.523003 115.211998 56.541 C 115.002998 57.120003 115.304001 57.761002 115.885002 57.970001 Z"/>
        <path id="path91" fill="#19448d" stroke="none" d="M 117.263 50.923996 L 117.257004 50.943001 L 116.966003 51.879997 L 116.959 51.901001 C 116.954002 51.917 116.949997 51.931999 116.945999 51.947998 C 116.813004 52.474998 117.132004 53.011002 117.658997 53.143997 C 118.185997 53.277 118.722 52.958 118.855003 52.431 L 119.105003 51.442001 C 119.227997 50.953003 118.947998 50.444 118.459999 50.292999 C 117.956001 50.137001 117.419998 50.418999 117.263 50.923996 Z"/>
        <path id="path92" fill="#19448d" stroke="none" d="M 119.402 45.510002 C 118.956001 45.419998 118.521004 45.708 118.43 46.153999 L 118.427002 46.170998 L 118.232002 47.135002 L 118.227997 47.153999 C 118.224998 47.167999 118.223 47.181999 118.221001 47.195999 C 118.152 47.661003 118.473999 48.094002 118.939003 48.163002 C 119.403999 48.232002 119.836998 47.909996 119.905998 47.445 L 120.055 46.439003 C 120.116997 46.009003 119.833 45.597 119.402 45.510002 Z"/>
        <path id="path93" fill="#19448d" stroke="none" d="M 119.873001 40.659996 C 119.492996 40.622002 119.153999 40.899002 119.115997 41.278999 L 119.114998 41.292999 L 119.015999 42.275002 L 119.014 42.291 C 119.013 42.303001 119.012001 42.315002 119.011002 42.326996 C 118.991997 42.723 119.297997 43.059998 119.695 43.079002 C 120.092003 43.098 120.428001 42.792 120.446999 42.394997 L 120.495003 41.381996 C 120.511002 41.016998 120.239998 40.696999 119.873001 40.659996 Z"/>
        <path id="path94" fill="#19448d" stroke="none" d="M 119.330002 36.342003 L 119.330002 36.351997 L 119.323997 37.344002 L 119.323997 37.356003 C 119.323997 37.365997 119.323997 37.375 119.324997 37.385002 C 119.339996 37.708 119.613998 37.958 119.936996 37.942001 C 120.260002 37.927002 120.510002 37.653 120.494003 37.330002 L 120.446999 36.318001 C 120.432999 36.024002 120.191002 35.787003 119.892998 35.786003 C 119.583 35.784996 119.332001 36.033997 119.330002 36.342003 Z"/>
        <path id="path95" fill="#19448d" stroke="none" d="M 119.103996 31.399002 L 119.105003 31.405998 L 119.182999 32.392998 L 119.183998 32.402 C 119.184998 32.409996 119.184998 32.417 119.185997 32.425003 C 119.219002 32.672997 119.445999 32.847 119.694 32.814003 C 119.942001 32.780998 120.115997 32.554001 120.083 32.306 L 119.950996 31.310997 C 119.920998 31.088997 119.722 30.925003 119.496002 30.943001 C 119.261002 30.959999 119.085999 31.165001 119.103996 31.399002 Z"/>
        <path id="path96" fill="#19448d" stroke="none" d="M 118.488998 26.473999 L 118.639999 27.455002 C 118.640999 27.459999 118.642998 27.471001 118.643997 27.475998 C 118.68 27.649002 118.848999 27.759003 119.022003 27.723 C 119.195 27.687004 119.305 27.517998 119.268997 27.345001 L 119.064003 26.365997 C 119.029999 26.216003 118.883003 26.111 118.728996 26.137001 C 118.569 26.163002 118.461998 26.314003 118.488998 26.473999 Z"/>
        <path id="path97" fill="#19448d" stroke="none" d="M 117.984001 22.695 C 118.083 22.667999 118.140999 22.565002 118.113998 22.466003 L 117.848 21.501999 C 117.824997 21.420998 117.740997 21.370003 117.657997 21.389 C 117.571999 21.409004 117.518997 21.495003 117.538002 21.580002 L 117.750999 22.553001 C 117.751999 22.556 117.752998 22.562004 117.753998 22.565002 C 117.781998 22.664001 117.885002 22.722 117.984001 22.695 Z"/>
        <path id="path98" fill="#19448d" stroke="none" d="M 116.581001 17.707001 C 116.589996 17.735001 116.620003 17.75 116.648003 17.740997 C 116.676003 17.732002 116.691002 17.702003 116.681999 17.674004 L 116.366997 16.724998 C 116.362 16.711998 116.348 16.704002 116.334999 16.708 C 116.320999 16.711998 116.313004 16.726997 116.317001 16.740997 L 116.581001 17.705002 C 116.580002 17.704002 116.580002 17.706001 116.581001 17.707001 Z"/>
        <path id="path99" fill="#19448d" stroke="none" d="M 103.642998 20.451004 C 103.664001 20.445999 103.677002 20.425003 103.671997 20.404999 L 103.441002 19.432999 L 103.596001 20.419998 C 103.596001 20.420998 103.596001 20.423004 103.597 20.424004 C 103.601997 20.443001 103.623001 20.456001 103.642998 20.451004 Z"/>
        <path id="path100" fill="#19448d" stroke="none" d="M 104.147003 25.375999 C 104.147003 25.382004 104.148003 25.390999 104.149002 25.397003 C 104.168999 25.523003 104.288002 25.609001 104.414001 25.588997 C 104.540001 25.569 104.625999 25.449997 104.606003 25.323997 L 104.447998 24.337997 C 104.431 24.239998 104.339996 24.167 104.238998 24.177002 C 104.133003 24.187004 104.055 24.280998 104.066002 24.387001 L 104.147003 25.375999 Z"/>
        <path id="path101" fill="#19448d" stroke="none" d="M 104.339996 29.352997 L 104.339996 29.358002 L 104.356003 30.352997 L 104.356003 30.359001 C 104.356003 30.369003 104.357002 30.379997 104.358002 30.390999 C 104.379997 30.624001 104.585999 30.794998 104.82 30.774002 C 105.054001 30.752998 105.223999 30.545998 105.203003 30.312004 L 105.109001 29.310997 C 105.089996 29.112999 104.920998 28.958 104.719002 28.961998 C 104.505997 28.965004 104.336998 29.139999 104.339996 29.352997 Z"/>
        <path id="path102" fill="#19448d" stroke="none" d="M 104.295998 34.322998 L 104.295998 34.331001 L 104.25 35.322998 L 104.25 35.332001 C 104.249001 35.347 104.249001 35.362999 104.25 35.377998 C 104.260002 35.718002 104.544998 35.986 104.885002 35.975998 C 105.224998 35.965996 105.492996 35.681 105.483002 35.340996 L 105.452003 34.333 C 105.442001 34.034996 105.204002 33.788002 104.901001 33.773003 C 104.581001 33.758003 104.310997 34.003998 104.295998 34.322998 Z"/>
        <path id="path103" fill="#19448d" stroke="none" d="M 105.445 40.389 L 105.477997 39.378998 C 105.489998 38.981003 105.195 38.631996 104.792 38.587997 C 104.369003 38.541 103.987999 38.846001 103.942001 39.268997 L 103.941002 39.278999 L 103.832001 40.264 L 103.831001 40.276001 C 103.829002 40.295998 103.828003 40.316002 103.827003 40.335999 C 103.811996 40.782997 104.163002 41.156998 104.609001 41.171997 C 105.056 41.185997 105.43 40.835999 105.445 40.389 Z"/>
        <path id="path104" fill="#19448d" stroke="none" d="M 103.267998 44.179001 L 103.093002 45.150002 L 103.089996 45.165001 C 103.085999 45.189003 103.082001 45.213997 103.080002 45.238998 C 103.024002 45.790001 103.425003 46.280998 103.975998 46.336998 C 104.527 46.392998 105.017998 45.991997 105.073997 45.441002 L 105.176003 44.431 C 105.224998 43.935997 104.886002 43.475998 104.388 43.386002 C 103.864998 43.292 103.363998 43.639999 103.269997 44.163002 L 103.267998 44.179001 Z"/>
        <path id="path105" fill="#19448d" stroke="none" d="M 102.942001 51.443001 C 103.591003 51.559998 104.212997 51.128998 104.330002 50.478996 L 104.511002 49.474998 C 104.614998 48.888 104.252998 48.305 103.666 48.152 C 103.049004 47.990997 102.417 48.360001 102.255997 48.977997 L 102.250999 48.998001 L 102.002998 49.946999 L 101.998001 49.968002 C 101.990997 49.997002 101.984001 50.026001 101.978996 50.055 C 101.861 50.704002 102.292999 51.324997 102.942001 51.443001 Z"/>
        <path id="path106" fill="#19448d" stroke="none" d="M 101.432999 56.43 C 102.170998 56.637001 102.936996 56.206001 103.142998 55.468002 L 103.419998 54.476997 C 103.606003 53.806 103.249001 53.089996 102.584 52.847 C 101.885002 52.592003 101.111 52.951996 100.856003 53.651001 L 100.845001 53.68 L 100.512001 54.593002 L 100.501999 54.621002 C 100.489998 54.653 100.480003 54.685997 100.470001 54.720001 C 100.264 55.458 100.695 56.223999 101.432999 56.43 Z"/>
        <path id="path107" fill="#19448d" stroke="none" d="M 86.030998 40.505997 C 86.030998 40.505997 86.030998 40.504997 86.030998 40.505997 C 86.031998 40.500999 86.029999 40.497002 86.025002 40.496002 C 86.021004 40.495003 86.015999 40.497002 86.014999 40.501999 L 85.745003 41.464996 L 86.030998 40.505997 Z"/>
        <path id="path108" fill="#19448d" stroke="none" d="M 87.364998 36.737 L 87.747002 35.814003 C 87.747002 35.814003 87.748001 35.811996 87.748001 35.811996 C 87.758003 35.787003 87.746002 35.758003 87.720001 35.748001 C 87.695 35.737999 87.666 35.75 87.655998 35.776001 L 87.288002 36.707001 C 87.279999 36.727997 87.290001 36.751999 87.310997 36.760002 C 87.334 36.768997 87.357002 36.758003 87.364998 36.737 Z"/>
        <path id="path109" fill="#19448d" stroke="none" d="M 89.477997 32.215996 L 89.961998 31.344002 C 89.961998 31.344002 89.963997 31.340996 89.963997 31.340996 C 89.987 31.296997 89.971001 31.241997 89.927002 31.219002 C 89.883003 31.195999 89.828003 31.211998 89.805 31.255997 L 89.334 32.139999 C 89.314003 32.18 89.329002 32.230003 89.367996 32.250999 C 89.407997 32.272003 89.457001 32.255997 89.477997 32.215996 Z"/>
        <path id="path110" fill="#19448d" stroke="none" d="M 92.107002 27.982002 L 92.695999 27.178001 C 92.695999 27.178001 92.698997 27.174004 92.698997 27.173004 C 92.740997 27.113998 92.726997 27.031998 92.667999 26.989998 C 92.609001 26.947998 92.527 26.961998 92.485001 27.021004 L 91.904999 27.840004 C 91.867996 27.896004 91.879997 27.973999 91.934998 28.012001 C 91.991997 28.052002 92.068001 28.038002 92.107002 27.982002 Z"/>
        <path id="path111" fill="#19448d" stroke="none" d="M 95.263 24.134003 L 95.957001 23.420998 C 95.957001 23.420998 95.961998 23.416 95.961998 23.415001 C 96.027 23.346001 96.024002 23.237 95.955002 23.171997 C 95.886002 23.107002 95.777 23.110001 95.711998 23.179001 L 95.023003 23.911003 C 94.963997 23.977997 94.966003 24.083 95.030998 24.143997 C 95.098 24.206001 95.202003 24.201004 95.263 24.134003 Z"/>
        <path id="path112" fill="#19448d" stroke="none" d="M 98.927002 20.788002 L 98.931999 20.784004 L 99.723 20.182999 L 99.728996 20.178001 C 99.730003 20.178001 99.730003 20.177002 99.731003 20.177002 C 99.823997 20.104004 99.839996 19.970001 99.766998 19.877998 C 99.694 19.786003 99.559998 19.768997 99.468002 19.842003 L 98.677002 20.462997 C 98.588997 20.531998 98.572998 20.659004 98.639999 20.748001 C 98.708 20.838997 98.836998 20.856003 98.927002 20.788002 Z"/>
        <path id="path113" fill="#19448d" stroke="none" d="M 103.055 18.040001 L 103.061996 18.036003 L 103.935997 17.567001 L 103.944 17.563004 C 103.945 17.563004 103.945999 17.562004 103.945999 17.562004 C 104.068001 17.494003 104.112 17.338997 104.043999 17.216003 C 103.975998 17.094002 103.820999 17.050003 103.697998 17.118004 L 102.818001 17.609001 C 102.700996 17.674004 102.657997 17.821999 102.721001 17.940002 C 102.786003 18.059998 102.934998 18.104004 103.055 18.040001 Z"/>
        <path id="path114" fill="#19448d" stroke="none" d="M 107.555 15.971001 L 107.563004 15.968002 L 108.498001 15.639 L 108.508003 15.636002 C 108.509003 15.636002 108.510002 15.635002 108.511002 15.635002 C 108.664001 15.578003 108.741997 15.409004 108.684998 15.255997 C 108.627998 15.102997 108.459 15.025002 108.306 15.082001 L 107.360001 15.431999 C 107.213997 15.486 107.137001 15.648003 107.189003 15.795998 C 107.241997 15.945 107.405998 16.024002 107.555 15.971001 Z"/>
        <path id="path115" fill="#19448d" stroke="none" d="M 112.314003 14.609001 L 112.322998 14.607002 L 113.295998 14.417999 L 113.306999 14.416 C 113.307999 14.416 113.308998 14.416 113.310997 14.415001 C 113.492996 14.376999 113.609001 14.198997 113.57 14.016998 C 113.530998 13.834999 113.353996 13.719002 113.171997 13.758003 L 112.184998 13.966003 C 112.011002 14.002998 111.897003 14.172997 111.931 14.348999 C 111.963997 14.527 112.136002 14.642998 112.314003 14.609001 Z"/>
        <path id="path116" fill="#19448d" stroke="none" d="M 117.217003 13.93 L 117.225998 13.929001 L 118.214996 13.871002 L 118.225998 13.870003 C 118.226997 13.870003 118.228996 13.870003 118.230003 13.870003 C 118.438004 13.853996 118.593002 13.672997 118.577003 13.466003 C 118.560997 13.258003 118.379997 13.102997 118.172997 13.119003 L 117.167 13.195 C 116.967003 13.209999 116.815002 13.383003 116.827003 13.584 C 116.838997 13.787003 117.014 13.942001 117.217003 13.93 Z"/>
        <path id="path117" fill="#19448d" stroke="none" d="M 122.167999 13.873001 L 122.177002 13.874001 L 123.166 13.931 L 123.178001 13.931999 C 123.18 13.931999 123.181 13.931999 123.182999 13.931999 C 123.414001 13.941002 123.609001 13.762001 123.617996 13.530998 C 123.626999 13.300003 123.447998 13.105003 123.217003 13.096001 L 122.208 13.054001 C 121.985001 13.044998 121.794998 13.216003 121.781998 13.440002 C 121.769997 13.666 121.942001 13.860001 122.167999 13.873001 Z"/>
        <path id="path118" fill="#19448d" stroke="none" d="M 127.084 14.393997 L 127.096001 14.396004 L 128.067993 14.572998 L 128.082001 14.575996 C 128.084 14.575996 128.085007 14.577003 128.087006 14.577003 C 128.337997 14.618004 128.574997 14.448997 128.615997 14.197998 C 128.656998 13.946999 128.488007 13.709999 128.237 13.668999 L 127.238998 13.503998 C 126.996002 13.463997 126.764999 13.625999 126.721001 13.869003 C 126.676003 14.113998 126.838997 14.348999 127.084 14.393997 Z"/>
        <path id="path119" fill="#19448d" stroke="none" d="M 131.880997 15.535004 L 131.895004 15.540001 L 132.832001 15.848 L 132.848007 15.852997 C 132.850006 15.854004 132.852005 15.854004 132.854004 15.855003 C 133.119003 15.937004 133.401001 15.789001 133.483002 15.524002 C 133.565002 15.259003 133.417007 14.976997 133.151993 14.894997 L 132.182007 14.594002 C 131.925003 14.514 131.651001 14.654999 131.565994 14.911003 C 131.481003 15.169998 131.621994 15.448997 131.880997 15.535004 Z"/>
        <path id="path120" fill="#19448d" stroke="none" d="M 136.449997 17.347 L 136.466003 17.355003 L 137.341003 17.802002 L 137.358994 17.810997 C 137.360992 17.812004 137.363007 17.813004 137.365005 17.814003 C 137.634995 17.945999 137.960999 17.834 138.093994 17.564003 C 138.227005 17.293999 138.113998 16.968002 137.843994 16.834999 L 136.929993 16.387001 C 136.667999 16.259003 136.350006 16.363998 136.216995 16.625 C 136.082001 16.889 136.186005 17.211998 136.449997 17.347 Z"/>
        <path id="path121" fill="#19448d" stroke="none" d="M 140.669998 19.872002 L 141.453003 20.459999 L 141.472 20.474998 C 141.473999 20.475998 141.475998 20.477997 141.477005 20.479004 C 141.738998 20.668999 142.106003 20.611 142.296005 20.348999 C 142.485992 20.086998 142.427994 19.720001 142.166 19.529999 L 141.339005 18.93 C 141.084 18.745003 140.727005 18.798004 140.537003 19.051003 C 140.345001 19.306 140.397003 19.668999 140.651993 19.860001 L 140.669998 19.872002 Z"/>
        <path id="path122" fill="#19448d" stroke="none" d="M 144.343994 23.086998 L 144.998993 23.809998 L 145.018005 23.831001 C 145.020004 23.833 145.020996 23.834999 145.022995 23.835999 C 145.261002 24.088997 145.658005 24.101997 145.912003 23.864998 C 146.164993 23.626999 146.177994 23.230003 145.940994 22.975998 L 145.240005 22.227997 C 145.009003 21.982002 144.621994 21.965004 144.371002 22.193001 C 144.117004 22.423004 144.098007 22.815002 144.328003 23.069 L 144.343994 23.086998 Z"/>
        <path id="path123" fill="#19448d" stroke="none" d="M 147.307999 26.941002 L 147.800995 27.778999 L 147.817001 27.806 C 147.817993 27.807999 147.820007 27.809998 147.820999 27.813004 C 148.014008 28.128998 148.427002 28.229004 148.742996 28.036003 C 149.059006 27.843002 149.158997 27.43 148.966003 27.113998 L 148.429993 26.237 C 148.242004 25.93 147.841003 25.828003 147.529007 26.011002 C 147.214005 26.195999 147.108002 26.601997 147.294006 26.917 L 147.307999 26.941002 Z"/>
        <path id="path124" fill="#19448d" stroke="none" d="M 149.399002 31.310997 L 149.701996 32.232002 L 149.712997 32.264 C 149.714005 32.266998 149.714996 32.268997 149.716003 32.272003 C 149.845001 32.643997 150.251007 32.840996 150.623001 32.710999 C 150.994995 32.582001 151.192001 32.176003 151.061996 31.804001 L 150.723999 30.831001 C 150.598007 30.469002 150.205002 30.273003 149.839005 30.392998 C 149.468994 30.514 149.268005 30.912003 149.389999 31.281998 L 149.399002 31.310997 Z"/>
        <path id="path125" fill="#19448d" stroke="none" d="M 150.505997 35.986 L 150.509003 36.017998 L 150.608994 36.981003 L 150.613007 37.015999 C 150.613007 37.018997 150.613998 37.022003 150.613998 37.025002 C 150.664001 37.439003 151.039993 37.734001 151.453995 37.683998 C 151.867996 37.634003 152.162994 37.258003 152.113007 36.844002 L 151.988998 35.82 C 151.940002 35.417 151.576004 35.125 151.171005 35.167999 C 150.761002 35.209999 150.462997 35.575996 150.505997 35.986 Z"/>
        <path id="path126" fill="#19448d" stroke="none" d="M 151.479004 40.113998 C 151.046005 40.069 150.658997 40.384003 150.613998 40.817001 L 150.610992 40.849998 L 150.511993 41.810997 L 150.507996 41.848 C 150.507996 41.850998 150.507004 41.853996 150.507004 41.857002 C 150.468994 42.295998 150.794006 42.681999 151.233002 42.719002 C 151.671997 42.756996 152.057999 42.431999 152.095001 41.992996 L 152.184006 40.963997 C 152.220001 40.538002 151.906998 40.157997 151.479004 40.113998 Z"/>
        <path id="path127" fill="#19448d" stroke="none" d="M 150.770996 45.018997 C 150.335007 44.876999 149.865997 45.113998 149.723999 45.550003 L 149.712997 45.584 L 149.414001 46.5 L 149.401993 46.538002 C 149.401001 46.541 149.399994 46.543999 149.399002 46.546997 C 149.261993 46.989998 149.511002 47.459 149.953995 47.596001 C 150.397003 47.732002 150.865997 47.484001 151.003006 47.041 L 151.307999 46.051003 C 151.440002 45.621002 151.201996 45.158997 150.770996 45.018997 Z"/>
        <path id="path128" fill="#19448d" stroke="none" d="M 147.850998 49.975998 L 147.832001 50.008003 L 147.345001 50.838997 L 147.324005 50.875 C 147.322006 50.877998 147.320999 50.880997 147.319 50.884003 C 147.080002 51.307999 147.229996 51.845001 147.654007 52.084 C 148.078003 52.322998 148.615005 52.172997 148.854004 51.749001 L 149.363007 50.846001 C 149.595993 50.431999 149.455002 49.905998 149.044006 49.665001 C 148.628998 49.420998 148.095001 49.560997 147.850998 49.975998 Z"/>
        <path id="path129" fill="#19448d" stroke="none" d="M 145.089996 53.909996 L 145.065002 53.937996 L 144.417999 54.652 L 144.389999 54.681999 C 144.388 54.684998 144.384995 54.686996 144.382996 54.690002 C 144.046997 55.073997 144.085999 55.656998 144.468994 55.992996 C 144.852997 56.329002 145.436005 56.290001 145.772003 55.906998 L 146.455002 55.126999 C 146.783005 54.752998 146.751007 54.181999 146.380997 53.847 C 146.007004 53.506996 145.429001 53.536003 145.089996 53.909996 Z"/>
        <path id="path130" fill="#19448d" stroke="none" d="M 141.936005 59.375 L 142.753998 58.739998 C 143.164993 58.420998 143.246002 57.829002 142.932999 57.411003 C 142.615997 56.987999 142.016998 56.902 141.593994 57.219002 L 141.565002 57.239998 L 140.792999 57.819 L 140.761002 57.843002 C 140.757996 57.845001 140.755005 57.848 140.751999 57.849998 C 140.330994 58.177002 140.253998 58.782997 140.580994 59.204002 C 140.908997 59.625999 141.514999 59.701996 141.936005 59.375 Z"/>
        <path id="path131" fill="#19448d" stroke="none" d="M 137.546005 62.093002 L 138.459 61.611 C 138.938995 61.357002 139.130005 60.763 138.882996 60.276001 C 138.634003 59.783997 138.033005 59.587997 137.541 59.836998 L 137.511002 59.851997 L 136.649002 60.289001 L 136.615005 60.306 C 136.612 60.307999 136.608002 60.309998 136.604996 60.310997 C 136.113007 60.570999 135.925003 61.181 136.184998 61.671997 C 136.445007 62.165001 137.054993 62.352997 137.546005 62.093002 Z"/>
        <path id="path132" fill="#19448d" stroke="none" d="M 133.098007 61.75 L 133.067993 61.760002 L 132.145996 62.058998 L 132.112 62.07 C 132.108002 62.070999 132.104004 62.072998 132.100006 62.073997 C 131.552002 62.262001 131.259995 62.859001 131.447998 63.406998 C 131.636002 63.955002 132.233002 64.247002 132.781006 64.058998 L 133.755997 63.724998 C 134.292007 63.541 134.584 62.959999 134.408005 62.418999 C 134.231995 61.872002 133.645004 61.572998 133.098007 61.75 Z"/>
        <path id="path133" fill="#19448d" stroke="none" d="M 127.793999 65.311005 L 128.804001 65.114998 C 129.382004 65.001999 129.766998 64.445999 129.664001 63.863998 C 129.559998 63.275002 128.998001 62.881996 128.408997 62.986 L 128.380005 62.990997 L 127.422997 63.159996 L 127.389999 63.166 C 127.386002 63.167 127.382004 63.167999 127.377998 63.167999 C 126.786003 63.282997 126.399002 63.856003 126.514 64.446999 C 126.629997 65.039001 127.202003 65.426003 127.793999 65.311005 Z"/>
        <path id="path134" fill="#19448d" stroke="none" d="M 122.695999 65.906998 L 123.720001 65.836998 C 124.331001 65.794998 124.797997 65.271004 124.766998 64.656998 C 124.735001 64.037003 124.206001 63.558998 123.585999 63.591003 L 123.558998 63.592003 L 122.586998 63.641998 L 122.555 63.644005 C 122.551003 63.644005 122.545998 63.644005 122.542 63.645004 C 121.917 63.688004 121.445999 64.228004 121.487999 64.853004 C 121.529999 65.477005 122.070999 65.949005 122.695999 65.906998 Z"/>
        <path id="path135" fill="#19448d" stroke="none" d="M 118.738998 63.614998 L 118.705002 63.612 L 117.740997 63.539001 L 117.702003 63.536003 C 117.697998 63.536003 117.694 63.535004 117.691002 63.535004 C 117.043999 63.496002 116.487999 63.987999 116.448997 64.635002 C 116.410004 65.281998 116.902 65.838005 117.549004 65.876999 L 118.581001 65.940002 C 119.214996 65.978004 119.764999 65.5 119.813004 64.864998 C 119.861 64.223 119.379997 63.664001 118.738998 63.614998 Z"/>
        <path id="path136" fill="#19448d" stroke="none" d="M 112.434998 65.119003 L 113.447998 65.329002 C 114.089996 65.461998 114.723 65.056 114.865997 64.414001 C 115.011002 63.765999 114.602997 63.123001 113.955002 62.977997 L 113.920998 62.970001 L 112.978996 62.760002 L 112.939003 62.750999 C 112.934998 62.75 112.931 62.749001 112.928001 62.749001 C 112.274002 62.612999 111.633003 63.032997 111.497002 63.688004 C 111.361 64.343002 111.780998 64.983002 112.434998 65.119003 Z"/>
        <path id="path137" fill="#19448d" stroke="none" d="M 107.481003 63.638 L 108.454002 63.989998 C 109.089996 64.220001 109.794998 63.898003 110.035004 63.263 C 110.278 62.623001 109.955002 61.906998 109.315002 61.664001 L 109.281998 61.651001 L 108.379997 61.308998 L 108.341003 61.293999 C 108.336998 61.292999 108.333 61.291 108.330002 61.290001 C 107.681999 61.056 106.967003 61.390999 106.732002 62.039001 C 106.498001 62.689003 106.833 63.403999 107.481003 63.638 Z"/>
        <path id="path138" fill="#19448d" stroke="none" d="M 104.907997 59.711998 L 104.875999 59.695 L 104.030998 59.231003 L 103.994003 59.210999 C 103.989998 59.209 103.987 59.207001 103.983002 59.205002 C 103.356003 58.873001 102.578003 59.112 102.246002 59.738998 C 101.914001 60.365997 102.153 61.143997 102.779999 61.475998 L 103.695 61.959999 C 104.309998 62.284996 105.075996 62.057999 105.412003 61.445999 C 105.752998 60.828003 105.527 60.052002 104.907997 59.711998 Z"/>
        <path id="path139" fill="#19448d" stroke="none" d="M 99.264 59.290001 C 99.845001 59.709 100.657997 59.584999 101.086998 59.008003 C 101.519997 58.425003 101.399002 57.601997 100.817001 57.168999 L 100.788002 57.147003 L 100.014999 56.571999 L 99.981003 56.546997 C 99.977997 56.543999 99.973999 56.542 99.971001 56.540001 C 99.378998 56.112999 98.552002 56.247002 98.125 56.838997 C 97.697998 57.431 97.832001 58.258003 98.424004 58.684998 L 99.264 59.290001 Z"/>
        <path id="path140" fill="#19448d" stroke="none" d="M 94.484001 55.322998 L 95.235001 56.038002 C 95.768997 56.545998 96.613998 56.532997 97.132004 56.005997 C 97.654999 55.473 97.647003 54.616997 97.113998 54.095001 L 97.086998 54.069 L 96.399002 53.394997 L 96.367996 53.363998 C 96.364998 53.361 96.362 53.358002 96.359001 53.355003 C 95.815002 52.836998 94.955002 52.858002 94.436996 53.402 C 93.918999 53.945 93.940002 54.805 94.484001 55.322998 Z"/>
        <path id="path141" fill="#19448d" stroke="none" d="M 91.254997 49.489998 C 90.652 49.971001 90.553001 50.849998 91.033997 51.453003 L 91.681 52.264999 C 92.153 52.857002 93.015999 52.961998 93.616997 52.497002 C 94.223999 52.028 94.334999 51.154999 93.865997 50.548996 L 93.842003 50.517998 L 93.252998 49.756996 L 93.224998 49.721001 C 93.222 49.717003 93.219002 49.713997 93.217003 49.709999 C 92.736 49.107002 91.858002 49.009003 91.254997 49.489998 Z"/>
        <path id="path142" fill="#19448d" stroke="none" d="M 88.643997 45.175003 C 87.962997 45.579002 87.737999 46.459 88.141998 47.139999 L 88.671997 48.033997 C 89.069 48.701996 89.931 48.931999 90.608002 48.543999 C 91.291 48.152 91.528 47.280998 91.136002 46.597 L 91.115997 46.561996 L 90.639 45.728996 L 90.615997 45.689003 C 90.613998 45.684998 90.611 45.681 90.609001 45.677002 C 90.205002 44.996002 89.325996 44.770996 88.643997 45.175003 Z"/>
        <path id="path143" fill="#19448d" stroke="none" d="M 85.875 42.459 L 86.276001 43.420998 C 86.583 44.156998 87.426003 44.514 88.168999 44.218002 C 88.919998 43.917999 89.285004 43.067001 88.986 42.316002 L 88.970001 42.277 L 88.614998 41.387001 L 88.597 41.342003 C 88.595001 41.337997 88.593002 41.333 88.592003 41.329002 C 88.279999 40.579002 87.417999 40.223999 86.667999 40.536003 C 85.917999 40.848 85.563004 41.709 85.875 42.459 Z"/>
    </g>
</svg>
