<?xml version="1.0" encoding="UTF-8" standalone="no"?>
<svg
   xmlns:dc="http://purl.org/dc/elements/1.1/"
   xmlns:cc="http://creativecommons.org/ns#"
   xmlns:rdf="http://www.w3.org/1999/02/22-rdf-syntax-ns#"
   xmlns:svg="http://www.w3.org/2000/svg"
   xmlns="http://www.w3.org/2000/svg"
   xmlns:sodipodi="http://sodipodi.sourceforge.net/DTD/sodipodi-0.dtd"
   xmlns:inkscape="http://www.inkscape.org/namespaces/inkscape"
   version="1.1"
   id="Layer_1"
   x="0px"
   y="0px"
   viewBox="0 0 291.88668 54.047682"
   xml:space="preserve"
   sodipodi:docname="logo.svg"
   width="291.88669"
   height="54.04768"
   inkscape:version="1.0.1 (c497b03c, 2020-09-10)"><metadata
   id="metadata766"><rdf:RDF><cc:Work
       rdf:about=""><dc:format>image/svg+xml</dc:format><dc:type
         rdf:resource="http://purl.org/dc/dcmitype/StillImage" /><dc:title></dc:title></cc:Work></rdf:RDF></metadata><defs
   id="defs764" /><sodipodi:namedview
   pagecolor="#ffffff"
   bordercolor="#666666"
   borderopacity="1"
   objecttolerance="10"
   gridtolerance="10"
   guidetolerance="10"
   inkscape:pageopacity="0"
   inkscape:pageshadow="2"
   inkscape:window-width="1618"
   inkscape:window-height="1075"
   id="namedview762"
   showgrid="false"
   inkscape:zoom="2.4288475"
   inkscape:cx="62.663505"
   inkscape:cy="88.190618"
   inkscape:window-x="0"
   inkscape:window-y="23"
   inkscape:window-maximized="0"
   inkscape:current-layer="Layer_1"
   fit-margin-top="0"
   fit-margin-left="0"
   fit-margin-right="0"
   fit-margin-bottom="0" />
<g
   id="g421"
   transform="translate(132.7187,-65.77375)">
	<path
   fill="#19448d"
   d="m 15.925,93.077 c 0,-2.295 0.338,-4.449 1.015,-6.465 0.677,-2.015 1.655,-3.766 2.935,-5.252 1.28,-1.485 2.854,-2.654 4.722,-3.508 1.868,-0.853 3.979,-1.28 6.333,-1.28 1.854,0 3.456,0.243 4.81,0.729 1.354,0.486 2.493,1.089 3.42,1.81 0.927,0.721 1.685,1.508 2.273,2.36 0.588,0.854 1.036,1.655 1.346,2.405 0.309,0.75 0.521,1.397 0.64,1.941 0.117,0.545 0.177,0.847 0.177,0.905 h -1.942 c -0.206,-1.324 -0.633,-2.508 -1.279,-3.553 -0.647,-1.044 -1.456,-1.934 -2.427,-2.67 -0.971,-0.734 -2.053,-1.294 -3.244,-1.677 -1.191,-0.382 -2.449,-0.573 -3.772,-0.573 -2.06,0 -3.898,0.396 -5.517,1.191 -1.618,0.794 -2.986,1.86 -4.104,3.199 -1.118,1.339 -1.972,2.905 -2.56,4.699 -0.589,1.795 -0.883,3.707 -0.883,5.737 0,2.029 0.294,3.942 0.883,5.736 0.588,1.795 1.441,3.361 2.56,4.7 1.117,1.339 2.485,2.404 4.104,3.199 1.618,0.794 3.457,1.191 5.517,1.191 1.529,0 2.964,-0.316 4.303,-0.949 1.338,-0.632 2.508,-1.471 3.508,-2.515 1,-1.044 1.802,-2.251 2.405,-3.619 0.603,-1.368 0.948,-2.787 1.037,-4.258 h 1.941 c -0.177,1.883 -0.64,3.618 -1.39,5.207 -0.751,1.588 -1.707,2.964 -2.869,4.126 -1.162,1.162 -2.508,2.067 -4.037,2.714 -1.53,0.646 -3.163,0.971 -4.898,0.971 -2.354,0 -4.465,-0.427 -6.333,-1.28 -1.868,-0.853 -3.441,-2.021 -4.722,-3.508 -1.279,-1.485 -2.258,-3.235 -2.935,-5.251 -0.679,-2.011 -1.017,-4.168 -1.017,-6.462 z"
   id="path407" />
	<path
   fill="#19448d"
   d="m 49.949,77.324 v 31.508 H 48.271 V 77.324 Z"
   id="path409" />
	<path
   fill="#19448d"
   d="m 55.685,81.868 v -4.545 h 1.677 v 4.545 z m 0,26.963 V 86.149 h 1.677 v 22.683 h -1.677 z"
   id="path411" />
	<path
   fill="#19448d"
   d="m 62.702,86.149 h 1.677 v 4.854 h 0.088 c 0.294,-0.854 0.713,-1.61 1.258,-2.272 0.544,-0.662 1.177,-1.229 1.897,-1.699 0.72,-0.47 1.508,-0.823 2.361,-1.06 0.853,-0.234 1.721,-0.353 2.604,-0.353 1.323,0 2.449,0.162 3.376,0.485 0.927,0.324 1.684,0.75 2.272,1.279 0.588,0.53 1.052,1.126 1.39,1.788 0.338,0.661 0.581,1.331 0.729,2.008 0.146,0.677 0.235,1.331 0.265,1.963 0.029,0.634 0.044,1.185 0.044,1.655 V 108.83 H 78.986 V 94.49 c 0,-0.559 -0.044,-1.265 -0.132,-2.118 -0.089,-0.854 -0.347,-1.67 -0.772,-2.449 -0.427,-0.779 -1.074,-1.449 -1.942,-2.008 -0.867,-0.559 -2.066,-0.839 -3.596,-0.839 -1.295,0 -2.442,0.236 -3.442,0.706 -1,0.471 -1.854,1.125 -2.56,1.964 -0.706,0.839 -1.243,1.839 -1.61,3.001 -0.368,1.162 -0.552,2.435 -0.552,3.817 v 12.268 H 62.703 V 86.149 Z"
   id="path413" />
	<path
   fill="#19448d"
   d="m 84.766,93.253 c 0,-2.235 0.331,-4.36 0.992,-6.376 0.662,-2.015 1.626,-3.788 2.891,-5.317 1.265,-1.529 2.816,-2.743 4.656,-3.641 1.838,-0.897 3.949,-1.347 6.332,-1.347 1.617,0 3.162,0.236 4.634,0.706 1.471,0.472 2.787,1.163 3.949,2.074 1.162,0.912 2.141,2.016 2.935,3.31 0.794,1.295 1.324,2.766 1.589,4.413 h -1.854 c -0.735,-2.765 -2.06,-4.927 -3.972,-6.486 -1.913,-1.56 -4.324,-2.339 -7.237,-2.339 -2.118,0 -3.986,0.412 -5.604,1.235 -1.618,0.824 -2.972,1.927 -4.06,3.31 -1.089,1.383 -1.913,2.979 -2.471,4.788 -0.56,1.81 -0.839,3.7 -0.839,5.67 0,2.001 0.271,3.892 0.816,5.671 0.544,1.78 1.353,3.332 2.427,4.655 1.074,1.324 2.42,2.376 4.038,3.155 1.617,0.78 3.515,1.17 5.692,1.17 1.883,0 3.574,-0.31 5.075,-0.927 1.5,-0.618 2.772,-1.485 3.817,-2.604 1.043,-1.118 1.831,-2.464 2.36,-4.038 0.529,-1.573 0.75,-3.332 0.662,-5.273 H 99.99 v -1.677 h 13.283 v 15.445 h -1.677 v -6.708 h -0.088 c -0.383,1.147 -0.957,2.185 -1.722,3.111 -0.766,0.927 -1.67,1.706 -2.714,2.339 -1.045,0.633 -2.206,1.125 -3.486,1.479 -1.279,0.353 -2.611,0.529 -3.993,0.529 -2.383,0 -4.494,-0.427 -6.333,-1.28 -1.839,-0.853 -3.391,-2.015 -4.655,-3.485 -1.266,-1.471 -2.222,-3.199 -2.868,-5.186 -0.647,-1.984 -0.971,-4.109 -0.971,-6.376 z"
   id="path415" />
	<path
   fill="#19448d"
   d="m 118.922,97.71 v 0.266 c 0,1.323 0.177,2.589 0.531,3.795 0.354,1.206 0.877,2.266 1.57,3.177 0.693,0.912 1.563,1.633 2.61,2.162 1.047,0.53 2.264,0.795 3.65,0.795 2.271,0 4.071,-0.596 5.398,-1.787 1.327,-1.191 2.241,-2.847 2.743,-4.965 h 1.677 c -0.5,2.647 -1.581,4.678 -3.243,6.09 -1.662,1.412 -3.861,2.118 -6.598,2.118 -1.677,0 -3.141,-0.302 -4.391,-0.904 -1.251,-0.603 -2.295,-1.427 -3.133,-2.472 -0.839,-1.044 -1.464,-2.279 -1.876,-3.707 -0.412,-1.426 -0.617,-2.963 -0.617,-4.611 0,-1.589 0.213,-3.111 0.64,-4.567 0.426,-1.456 1.066,-2.735 1.92,-3.839 0.853,-1.104 1.919,-1.985 3.199,-2.647 1.279,-0.662 2.787,-0.993 4.523,-0.993 1.588,0 2.993,0.294 4.214,0.883 1.221,0.589 2.243,1.39 3.067,2.404 0.823,1.016 1.448,2.192 1.875,3.53 0.426,1.34 0.64,2.773 0.64,4.303 0,0.147 -0.008,0.316 -0.021,0.508 -0.016,0.191 -0.022,0.346 -0.022,0.463 h -18.356 z m 16.68,-1.456 c -0.06,-1.235 -0.266,-2.405 -0.619,-3.508 -0.354,-1.104 -0.878,-2.074 -1.571,-2.913 -0.693,-0.838 -1.534,-1.507 -2.521,-2.008 -0.989,-0.5 -2.117,-0.75 -3.385,-0.75 -1.357,0 -2.552,0.258 -3.584,0.772 -1.033,0.515 -1.903,1.191 -2.611,2.03 -0.708,0.838 -1.253,1.816 -1.637,2.935 -0.383,1.118 -0.62,2.266 -0.708,3.441 h 16.636 z"
   id="path417" />
	<path
   fill="#19448d"
   d="m 141.206,86.149 h 1.677 v 4.854 h 0.089 c 0.294,-0.854 0.713,-1.61 1.258,-2.272 0.544,-0.662 1.176,-1.229 1.897,-1.699 0.721,-0.471 1.507,-0.823 2.36,-1.06 0.854,-0.234 1.722,-0.353 2.604,-0.353 1.324,0 2.449,0.162 3.376,0.485 0.927,0.324 1.684,0.75 2.272,1.279 0.589,0.53 1.052,1.126 1.391,1.788 0.338,0.661 0.58,1.331 0.728,2.008 0.148,0.677 0.235,1.331 0.266,1.963 0.028,0.634 0.044,1.185 0.044,1.655 v 14.033 h -1.677 V 94.49 c 0,-0.559 -0.045,-1.265 -0.133,-2.118 -0.088,-0.853 -0.346,-1.67 -0.772,-2.449 -0.426,-0.779 -1.074,-1.449 -1.941,-2.008 -0.868,-0.559 -2.067,-0.839 -3.597,-0.839 -1.295,0 -2.442,0.236 -3.442,0.706 -1,0.471 -1.853,1.125 -2.559,1.964 -0.706,0.839 -1.243,1.839 -1.611,3.001 -0.368,1.162 -0.552,2.435 -0.552,3.817 v 12.268 h -1.677 V 86.149 Z"
   id="path419" />
</g>

<g
   id="g613"
   transform="translate(-20.538174,-13.76466)">
	<path
   fill="#19448d"
   d="m 31.273,26.501 0.006,-0.016 0.366,-0.915 0.007,-0.018 c 0.005,-0.012 0.009,-0.024 0.013,-0.036 0.153,-0.444 -0.083,-0.928 -0.527,-1.081 -0.444,-0.153 -0.928,0.083 -1.081,0.527 l -0.331,0.963 c -0.141,0.413 0.064,0.871 0.474,1.035 0.423,0.171 0.904,-0.035 1.073,-0.459 z"
   id="path469" />
	<path
   fill="#19448d"
   d="m 29.474,29.288 c -0.392,-0.089 -0.782,0.156 -0.872,0.548 l -0.226,0.992 c -0.082,0.363 0.133,0.732 0.496,0.833 0.374,0.105 0.762,-0.113 0.867,-0.487 l 0.005,-0.016 0.266,-0.948 0.005,-0.018 c 0.003,-0.011 0.006,-0.021 0.008,-0.032 0.089,-0.392 -0.157,-0.782 -0.549,-0.872 z"
   id="path471" />
	<path
   fill="#19448d"
   d="m 28.913,34.992 c 0.001,-0.009 0.002,-0.018 0.003,-0.027 0.034,-0.333 -0.209,-0.63 -0.541,-0.664 -0.333,-0.034 -0.63,0.209 -0.664,0.541 l -0.103,1.01 c -0.031,0.306 0.184,0.586 0.491,0.633 0.317,0.048 0.613,-0.17 0.661,-0.487 l 0.002,-0.015 0.147,-0.974 z"
   id="path473" />
	<path
   fill="#19448d"
   d="m 27.939,41.364 c 0.253,0.005 0.463,-0.196 0.468,-0.449 v -0.012 l 0.02,-0.988 v -0.014 c 0,-0.007 0,-0.015 0,-0.022 -0.008,-0.267 -0.23,-0.477 -0.497,-0.469 -0.267,0.008 -0.477,0.23 -0.469,0.497 l 0.029,1.012 c 0.008,0.242 0.204,0.44 0.449,0.445 z"
   id="path475" />
	<path
   fill="#19448d"
   d="m 28.574,44.857 -0.001,-0.009 c -0.001,-0.005 -0.001,-0.011 -0.002,-0.016 -0.03,-0.197 -0.214,-0.332 -0.411,-0.303 -0.197,0.029 -0.332,0.214 -0.303,0.411 l 0.151,0.996 c 0.027,0.176 0.187,0.302 0.366,0.284 0.185,-0.019 0.319,-0.184 0.3,-0.368 l -0.001,-0.008 z"
   id="path477" />
	<path
   fill="#19448d"
   d="m 29.284,49.753 c -0.033,-0.127 -0.163,-0.204 -0.29,-0.171 -0.127,0.033 -0.204,0.163 -0.171,0.29 l 0.251,0.972 c 0.03,0.109 0.142,0.18 0.254,0.155 0.115,-0.026 0.188,-0.14 0.162,-0.255 l -0.201,-0.975 c -0.002,-0.004 -0.004,-0.012 -0.005,-0.016 z"
   id="path479" />
	<path
   fill="#19448d"
   d="m 30.669,55.688 c 0.048,-0.015 0.076,-0.065 0.061,-0.114 l -0.276,-0.96 c 0,-0.002 -0.002,-0.005 -0.002,-0.007 -0.021,-0.061 -0.087,-0.093 -0.147,-0.072 -0.061,0.021 -0.093,0.087 -0.072,0.147 l 0.324,0.948 c 0.016,0.046 0.065,0.072 0.112,0.058 z"
   id="path481" />
	<path
   fill="#19448d"
   d="m 43.433,63.131 c -0.004,-0.012 -0.016,-0.018 -0.028,-0.015 -0.012,0.003 -0.018,0.016 -0.015,0.027 l 0.293,0.957 -0.251,-0.969 c 10e-4,10e-4 10e-4,0 10e-4,0 z"
   id="path483" />
	<path
   fill="#19448d"
   d="m 42.28,58.261 c -0.019,-0.07 -0.091,-0.112 -0.162,-0.093 -0.071,0.019 -0.112,0.091 -0.093,0.162 l 0.259,0.968 c 0.016,0.056 0.073,0.092 0.131,0.079 0.059,-0.014 0.096,-0.073 0.083,-0.132 L 42.282,58.269 C 42.281,58.266 42.281,58.263 42.28,58.261 Z"
   id="path485" />
	<path
   fill="#19448d"
   d="m 41.331,53.349 c -0.029,-0.131 -0.158,-0.213 -0.288,-0.185 -0.131,0.029 -0.213,0.158 -0.185,0.288 l 0.215,0.979 c 0.026,0.114 0.139,0.191 0.255,0.169 0.12,-0.022 0.199,-0.137 0.177,-0.256 l -0.171,-0.983 c -0.001,-0.002 -0.002,-0.008 -0.003,-0.012 z"
   id="path487" />
	<path
   fill="#19448d"
   d="m 40.47,49.783 c 0.181,-0.023 0.308,-0.189 0.285,-0.37 l -0.116,-0.99 c -0.001,-0.005 -0.002,-0.015 -0.003,-0.02 -0.031,-0.192 -0.212,-0.322 -0.404,-0.291 -0.192,0.031 -0.322,0.212 -0.291,0.404 l 0.161,0.992 c 0.03,0.173 0.192,0.298 0.368,0.275 z"
   id="path489" />
	<path
   fill="#19448d"
   d="m 40.302,44.463 v -0.006 l -0.05,-0.993 v -0.008 c 0,-0.006 -0.001,-0.012 -0.001,-0.018 -0.024,-0.254 -0.249,-0.441 -0.503,-0.417 -0.254,0.024 -0.441,0.249 -0.417,0.503 l 0.094,1.002 c 0.022,0.233 0.224,0.41 0.46,0.398 0.243,-0.012 0.43,-0.219 0.417,-0.461 z"
   id="path491" />
	<path
   fill="#19448d"
   d="m 39.641,40.037 c 0.304,0.009 0.557,-0.23 0.566,-0.534 v -0.01 l 0.029,-0.99 v -0.012 c 0,-0.008 0,-0.015 0,-0.023 -0.005,-0.316 -0.264,-0.568 -0.58,-0.564 -0.316,0.005 -0.568,0.264 -0.564,0.58 l 0.015,1.01 c 0.005,0.294 0.239,0.535 0.534,0.543 z"
   id="path493" />
	<path
   fill="#19448d"
   d="m 40.024,32.804 c -0.376,-0.029 -0.704,0.252 -0.733,0.628 l -0.078,1.009 c -0.026,0.35 0.227,0.663 0.578,0.706 0.362,0.044 0.691,-0.214 0.735,-0.576 l 0.002,-0.013 0.119,-0.979 0.002,-0.015 c 10e-4,-0.009 0.002,-0.018 0.003,-0.027 0.029,-0.376 -0.252,-0.704 -0.628,-0.733 z"
   id="path495" />
	<path
   fill="#19448d"
   d="m 40.909,27.766 c -0.431,-0.078 -0.843,0.208 -0.921,0.638 l -0.181,1 c -0.072,0.403 0.184,0.797 0.587,0.888 0.415,0.094 0.827,-0.166 0.921,-0.58 l 0.004,-0.016 0.218,-0.959 0.004,-0.019 c 0.002,-0.01 0.004,-0.021 0.006,-0.031 0.078,-0.431 -0.208,-0.843 -0.638,-0.921 z"
   id="path497" />
	<path
   fill="#19448d"
   d="m 42.341,22.855 c -0.478,-0.142 -0.98,0.131 -1.122,0.609 l -0.29,0.978 c -0.132,0.448 0.11,0.928 0.557,1.082 0.459,0.159 0.96,-0.085 1.119,-0.545 l 0.007,-0.019 0.32,-0.927 0.007,-0.021 c 0.004,-0.011 0.008,-0.023 0.011,-0.035 0.141,-0.478 -0.131,-0.981 -0.609,-1.122 z"
   id="path499" />
	<path
   fill="#19448d"
   d="m 44.406,20.419 0.005,-0.01 0.188,-0.402 0.005,-0.012 c 0.006,-0.012 0.011,-0.025 0.016,-0.037 0.211,-0.51 -0.031,-1.096 -0.542,-1.307 -0.511,-0.211 -1.096,0.031 -1.307,0.542 l -0.177,0.428 c -0.2,0.486 0.014,1.051 0.496,1.276 0.495,0.232 1.084,0.018 1.316,-0.478 z"
   id="path501" />
	<path
   fill="#19448d"
   d="m 59.17,20.866 0.461,-0.864 0.012,-0.022 c 0.01,-0.018 0.019,-0.037 0.028,-0.056 0.292,-0.626 0.022,-1.37 -0.604,-1.663 -0.626,-0.292 -1.37,-0.022 -1.663,0.604 l -0.433,0.927 c -0.272,0.585 -0.044,1.29 0.532,1.597 0.596,0.318 1.337,0.093 1.655,-0.503 z"
   id="path503" />
	<path
   fill="#19448d"
   d="m 56.84,22.896 c -0.581,-0.209 -1.221,0.092 -1.43,0.673 l -0.346,0.961 c -0.194,0.541 0.067,1.148 0.603,1.374 0.555,0.234 1.194,-0.027 1.428,-0.582 l 0.009,-0.02 0.38,-0.903 0.009,-0.022 c 0.007,-0.017 0.014,-0.034 0.02,-0.052 0.209,-0.579 -0.092,-1.22 -0.673,-1.429 z"
   id="path505" />
	<path
   fill="#19448d"
   d="m 55.462,29.942 0.006,-0.019 0.291,-0.937 0.007,-0.021 c 0.005,-0.016 0.009,-0.031 0.013,-0.047 0.133,-0.527 -0.186,-1.063 -0.713,-1.196 -0.527,-0.133 -1.063,0.186 -1.196,0.713 l -0.25,0.989 c -0.123,0.489 0.157,0.998 0.645,1.149 0.504,0.156 1.04,-0.126 1.197,-0.631 z"
   id="path507" />
	<path
   fill="#19448d"
   d="m 53.323,35.356 c 0.446,0.09 0.881,-0.198 0.972,-0.644 l 0.003,-0.017 0.195,-0.964 0.004,-0.019 c 0.003,-0.014 0.005,-0.028 0.007,-0.042 0.069,-0.465 -0.253,-0.898 -0.718,-0.967 -0.465,-0.069 -0.898,0.253 -0.967,0.718 l -0.149,1.006 c -0.062,0.43 0.221,0.842 0.653,0.929 z"
   id="path509" />
	<path
   fill="#19448d"
   d="m 52.851,40.206 c 0.38,0.038 0.719,-0.239 0.757,-0.619 l 0.001,-0.014 0.099,-0.982 0.002,-0.016 c 10e-4,-0.012 0.002,-0.024 0.003,-0.036 0.019,-0.396 -0.287,-0.733 -0.684,-0.752 -0.397,-0.019 -0.733,0.287 -0.752,0.684 l -0.048,1.013 c -0.016,0.365 0.255,0.685 0.622,0.722 z"
   id="path511" />
	<path
   fill="#19448d"
   d="m 53.395,44.524 v -0.01 l 0.006,-0.992 V 43.51 c 0,-0.01 0,-0.019 -0.001,-0.029 -0.015,-0.323 -0.289,-0.573 -0.612,-0.557 -0.323,0.015 -0.573,0.289 -0.557,0.612 l 0.047,1.012 c 0.014,0.294 0.256,0.531 0.554,0.532 0.309,0.001 0.561,-0.248 0.563,-0.556 z"
   id="path513" />
	<path
   fill="#19448d"
   d="M 53.62,49.467 V 49.46 l -0.078,-0.987 -0.001,-0.009 c -10e-4,-0.008 -10e-4,-0.015 -0.002,-0.023 -0.033,-0.248 -0.26,-0.422 -0.508,-0.389 -0.248,0.033 -0.422,0.26 -0.389,0.508 l 0.132,0.995 c 0.03,0.222 0.229,0.386 0.455,0.368 0.235,-0.017 0.41,-0.222 0.391,-0.456 z"
   id="path515" />
	<path
   fill="#19448d"
   d="m 54.236,54.392 -0.151,-0.981 c -10e-4,-0.005 -0.003,-0.016 -0.004,-0.021 -0.036,-0.173 -0.205,-0.283 -0.378,-0.247 -0.173,0.036 -0.283,0.205 -0.247,0.378 l 0.205,0.979 c 0.034,0.15 0.181,0.255 0.335,0.229 0.159,-0.026 0.267,-0.177 0.24,-0.337 z"
   id="path517" />
	<path
   fill="#19448d"
   d="m 54.74,58.171 c -0.099,0.027 -0.157,0.13 -0.13,0.229 l 0.266,0.964 c 0.023,0.081 0.107,0.132 0.19,0.113 0.086,-0.02 0.139,-0.106 0.12,-0.191 L 54.973,58.313 C 54.972,58.31 54.971,58.304 54.97,58.301 54.942,58.202 54.84,58.144 54.74,58.171 Z"
   id="path519" />
	<path
   fill="#19448d"
   d="m 56.144,63.159 c -0.009,-0.028 -0.039,-0.043 -0.067,-0.034 -0.028,0.009 -0.043,0.039 -0.034,0.067 l 0.315,0.949 c 0.005,0.013 0.019,0.021 0.032,0.017 0.014,-0.004 0.022,-0.019 0.018,-0.033 l -0.264,-0.964 c 0.001,10e-4 0,-0.001 0,-0.002 z"
   id="path521" />
	<path
   fill="#19448d"
   d="m 69.081,60.415 c -0.021,0.005 -0.034,0.026 -0.029,0.046 l 0.231,0.972 -0.155,-0.987 c 0,-10e-4 0,-0.003 -0.001,-0.004 -0.004,-0.019 -0.025,-0.032 -0.046,-0.027 z"
   id="path523" />
	<path
   fill="#19448d"
   d="m 68.578,55.49 c 0,-0.006 -0.001,-0.015 -0.002,-0.021 -0.02,-0.126 -0.139,-0.212 -0.265,-0.192 -0.126,0.02 -0.212,0.139 -0.192,0.265 l 0.158,0.986 c 0.017,0.098 0.108,0.171 0.209,0.161 0.106,-0.01 0.184,-0.104 0.173,-0.21 z"
   id="path525" />
	<path
   fill="#19448d"
   d="m 68.384,51.513 v -0.005 l -0.016,-0.995 v -0.006 c 0,-0.01 -10e-4,-0.021 -0.002,-0.032 -0.022,-0.233 -0.228,-0.404 -0.462,-0.383 -0.234,0.021 -0.404,0.228 -0.383,0.462 l 0.094,1.001 c 0.019,0.198 0.188,0.353 0.39,0.349 0.213,-0.003 0.383,-0.178 0.379,-0.391 z"
   id="path527" />
	<path
   fill="#19448d"
   d="m 68.429,46.543 v -0.008 l 0.046,-0.992 v -0.009 c 0.001,-0.015 0.001,-0.031 0,-0.046 -0.01,-0.34 -0.295,-0.608 -0.635,-0.598 -0.34,0.01 -0.608,0.295 -0.598,0.635 l 0.031,1.008 c 0.01,0.298 0.248,0.545 0.551,0.56 0.319,0.015 0.59,-0.231 0.605,-0.55 z"
   id="path529" />
	<path
   fill="#19448d"
   d="m 67.28,40.477 -0.033,1.01 c -0.012,0.398 0.283,0.747 0.686,0.791 0.423,0.047 0.804,-0.258 0.85,-0.681 l 0.001,-0.01 0.109,-0.985 0.001,-0.012 c 0.002,-0.02 0.003,-0.04 0.004,-0.06 0.015,-0.447 -0.336,-0.821 -0.782,-0.836 -0.447,-0.014 -0.821,0.336 -0.836,0.783 z"
   id="path531" />
	<path
   fill="#19448d"
   d="m 69.457,36.687 0.175,-0.971 0.003,-0.015 c 0.004,-0.024 0.008,-0.049 0.01,-0.074 0.056,-0.551 -0.345,-1.042 -0.896,-1.098 -0.551,-0.056 -1.042,0.345 -1.098,0.896 l -0.102,1.01 c -0.049,0.495 0.29,0.955 0.788,1.045 0.523,0.094 1.024,-0.254 1.118,-0.777 z"
   id="path533" />
	<path
   fill="#19448d"
   d="m 69.782,29.423 c -0.649,-0.117 -1.271,0.314 -1.388,0.964 l -0.181,1.004 c -0.104,0.587 0.258,1.17 0.845,1.323 0.617,0.161 1.249,-0.208 1.41,-0.826 l 0.005,-0.02 0.248,-0.949 0.005,-0.021 c 0.007,-0.029 0.014,-0.058 0.019,-0.087 0.118,-0.649 -0.313,-1.27 -0.963,-1.388 z"
   id="path535" />
	<path
   fill="#19448d"
   d="m 71.291,24.436 c -0.738,-0.207 -1.504,0.224 -1.71,0.962 l -0.277,0.991 c -0.186,0.671 0.171,1.387 0.836,1.63 0.699,0.255 1.473,-0.105 1.728,-0.804 l 0.011,-0.029 0.333,-0.913 0.01,-0.028 c 0.012,-0.032 0.022,-0.065 0.032,-0.099 0.206,-0.738 -0.225,-1.504 -0.963,-1.71 z"
   id="path537" />
	<path
   fill="#19448d"
   d="m 86.694,40.36 c 0,10e-4 0,10e-4 0,0 -0.001,0.005 10e-4,0.009 0.006,0.01 0.004,0.001 0.009,-10e-4 0.01,-0.006 l 0.27,-0.963 z"
   id="path539" />
	<path
   fill="#19448d"
   d="m 85.359,44.129 -0.382,0.923 c 0,0 -0.001,0.002 -0.001,0.002 -0.01,0.025 0.002,0.054 0.028,0.064 0.025,0.01 0.054,-0.002 0.064,-0.028 l 0.368,-0.931 c 0.008,-0.021 -0.002,-0.045 -0.023,-0.053 -0.022,-0.009 -0.046,0.002 -0.054,0.023 z"
   id="path541" />
	<path
   fill="#19448d"
   d="m 83.246,48.65 -0.484,0.872 c 0,0 -0.002,0.003 -0.002,0.003 -0.023,0.044 -0.007,0.099 0.037,0.122 0.044,0.023 0.099,0.007 0.122,-0.037 l 0.471,-0.884 c 0.02,-0.04 0.005,-0.09 -0.034,-0.111 -0.039,-0.021 -0.089,-0.005 -0.11,0.035 z"
   id="path543" />
	<path
   fill="#19448d"
   d="m 80.617,52.884 -0.589,0.804 c 0,0 -0.003,0.004 -0.003,0.005 -0.042,0.059 -0.028,0.141 0.031,0.183 0.059,0.042 0.141,0.028 0.183,-0.031 l 0.58,-0.819 c 0.037,-0.056 0.025,-0.134 -0.03,-0.172 -0.056,-0.04 -0.133,-0.026 -0.172,0.03 z"
   id="path545" />
	<path
   fill="#19448d"
   d="m 77.462,56.732 -0.694,0.713 c 0,0 -0.005,0.005 -0.005,0.006 -0.065,0.069 -0.062,0.178 0.007,0.243 0.069,0.065 0.178,0.062 0.243,-0.007 l 0.689,-0.732 c 0.059,-0.067 0.057,-0.172 -0.008,-0.233 -0.068,-0.061 -0.171,-0.057 -0.232,0.01 z"
   id="path547" />
	<path
   fill="#19448d"
   d="m 73.798,60.078 -0.005,0.004 -0.791,0.601 -0.006,0.005 c -10e-4,0 -10e-4,10e-4 -0.002,10e-4 -0.093,0.073 -0.109,0.207 -0.036,0.299 0.073,0.092 0.207,0.109 0.299,0.036 l 0.791,-0.621 c 0.088,-0.069 0.104,-0.196 0.037,-0.285 -0.069,-0.091 -0.197,-0.108 -0.287,-0.04 z"
   id="path549" />
	<path
   fill="#19448d"
   d="m 69.67,62.826 -0.007,0.004 -0.874,0.469 -0.008,0.004 c -0.001,0 -0.002,0.001 -0.002,0.001 -0.122,0.068 -0.166,0.223 -0.098,0.346 0.068,0.122 0.223,0.166 0.346,0.098 l 0.88,-0.491 c 0.117,-0.065 0.16,-0.213 0.097,-0.331 -0.066,-0.12 -0.215,-0.164 -0.334,-0.1 z"
   id="path551" />
	<path
   fill="#19448d"
   d="m 65.17,64.895 -0.008,0.003 -0.935,0.329 -0.01,0.003 c -0.001,0 -0.002,10e-4 -0.003,10e-4 -0.153,0.057 -0.231,0.226 -0.174,0.379 0.057,0.153 0.226,0.231 0.379,0.174 l 0.946,-0.35 c 0.146,-0.054 0.223,-0.216 0.171,-0.364 -0.053,-0.149 -0.217,-0.228 -0.366,-0.175 z"
   id="path553" />
	<path
   fill="#19448d"
   d="m 60.411,66.257 -0.009,0.002 -0.973,0.189 -0.011,0.002 c -10e-4,0 -0.002,0 -0.004,10e-4 -0.182,0.038 -0.298,0.216 -0.259,0.398 0.039,0.182 0.216,0.298 0.398,0.259 L 60.54,66.9 c 0.174,-0.037 0.288,-0.207 0.254,-0.383 -0.034,-0.178 -0.205,-0.294 -0.383,-0.26 z"
   id="path555" />
	<path
   fill="#19448d"
   d="m 55.508,66.936 -0.009,10e-4 -0.989,0.058 -0.011,10e-4 c -0.001,0 -0.003,0 -0.004,0 -0.208,0.016 -0.363,0.197 -0.347,0.404 0.016,0.208 0.197,0.363 0.404,0.347 l 1.006,-0.076 c 0.2,-0.015 0.352,-0.188 0.34,-0.389 -0.013,-0.203 -0.187,-0.358 -0.39,-0.346 z"
   id="path557" />
	<path
   fill="#19448d"
   d="m 50.556,66.993 -0.009,-10e-4 -0.989,-0.057 -0.012,-0.001 c -0.002,0 -0.003,0 -0.005,0 -0.231,-0.009 -0.426,0.17 -0.435,0.401 -0.009,0.231 0.17,0.426 0.401,0.435 l 1.009,0.042 c 0.223,0.009 0.413,-0.162 0.426,-0.386 0.013,-0.226 -0.16,-0.42 -0.386,-0.433 z"
   id="path559" />
	<path
   fill="#19448d"
   d="M 45.64,66.472 45.628,66.47 44.656,66.293 44.642,66.29 c -0.002,0 -0.003,-0.001 -0.005,-0.001 -0.251,-0.041 -0.488,0.128 -0.529,0.379 -0.041,0.251 0.128,0.488 0.379,0.529 l 0.998,0.165 c 0.243,0.04 0.474,-0.122 0.518,-0.365 0.046,-0.244 -0.117,-0.48 -0.363,-0.525 z"
   id="path561" />
	<path
   fill="#19448d"
   d="M 40.844,65.331 40.83,65.326 39.893,65.018 39.877,65.013 c -0.002,-0.001 -0.004,-0.001 -0.006,-0.002 -0.265,-0.082 -0.547,0.066 -0.629,0.331 -0.082,0.265 0.066,0.547 0.331,0.629 l 0.97,0.301 c 0.257,0.08 0.531,-0.061 0.616,-0.317 0.085,-0.259 -0.056,-0.538 -0.315,-0.624 z"
   id="path563" />
	<path
   fill="#19448d"
   d="m 36.275,63.519 -0.016,-0.008 -0.875,-0.447 -0.018,-0.009 c -0.002,-10e-4 -0.004,-0.002 -0.006,-0.003 -0.27,-0.132 -0.596,-0.02 -0.729,0.25 -0.133,0.27 -0.02,0.596 0.25,0.729 l 0.914,0.448 c 0.262,0.128 0.58,0.023 0.713,-0.238 0.135,-0.264 0.03,-0.587 -0.233,-0.722 z"
   id="path565" />
	<path
   fill="#19448d"
   d="m 32.054,60.994 -0.783,-0.588 -0.019,-0.015 c -0.002,-10e-4 -0.004,-0.003 -0.005,-0.004 -0.262,-0.19 -0.629,-0.132 -0.819,0.13 -0.19,0.262 -0.132,0.629 0.13,0.819 l 0.827,0.6 c 0.255,0.185 0.612,0.132 0.802,-0.121 0.192,-0.255 0.14,-0.618 -0.115,-0.809 z"
   id="path567" />
	<path
   fill="#19448d"
   d="m 28.38,57.779 -0.655,-0.723 -0.019,-0.021 c -0.002,-0.002 -0.003,-0.004 -0.005,-0.005 -0.238,-0.253 -0.635,-0.266 -0.889,-0.029 -0.253,0.238 -0.266,0.635 -0.029,0.889 l 0.701,0.748 c 0.231,0.246 0.618,0.263 0.869,0.035 0.254,-0.23 0.273,-0.622 0.043,-0.876 z"
   id="path569" />
	<path
   fill="#19448d"
   d="M 25.417,53.925 24.924,53.087 24.908,53.06 c -0.001,-0.002 -0.003,-0.004 -0.004,-0.007 -0.193,-0.316 -0.606,-0.416 -0.922,-0.223 -0.316,0.193 -0.416,0.606 -0.223,0.922 l 0.536,0.877 c 0.188,0.307 0.589,0.409 0.901,0.226 0.315,-0.185 0.421,-0.591 0.235,-0.906 z"
   id="path571" />
	<path
   fill="#19448d"
   d="m 23.325,49.555 -0.303,-0.921 -0.011,-0.032 c -10e-4,-0.003 -0.002,-0.005 -0.003,-0.008 -0.129,-0.372 -0.535,-0.569 -0.907,-0.439 -0.372,0.129 -0.569,0.535 -0.439,0.907 L 22,50.035 c 0.126,0.362 0.519,0.558 0.885,0.438 0.37,-0.121 0.571,-0.519 0.449,-0.889 z"
   id="path573" />
	<path
   fill="#19448d"
   d="m 22.219,44.88 -0.003,-0.032 -0.1,-0.963 -0.004,-0.035 c 0,-0.003 -10e-4,-0.006 -10e-4,-0.009 -0.05,-0.414 -0.426,-0.709 -0.84,-0.659 -0.414,0.05 -0.709,0.426 -0.659,0.84 l 0.124,1.024 c 0.049,0.403 0.413,0.695 0.818,0.652 0.41,-0.041 0.708,-0.408 0.665,-0.818 z"
   id="path575" />
	<path
   fill="#19448d"
   d="m 21.246,40.752 c 0.433,0.045 0.82,-0.27 0.865,-0.703 l 0.003,-0.033 0.099,-0.961 0.004,-0.037 c 0,-0.003 0.001,-0.006 0.001,-0.009 0.038,-0.439 -0.287,-0.825 -0.726,-0.862 -0.439,-0.038 -0.825,0.287 -0.862,0.726 l -0.089,1.029 c -0.036,0.426 0.276,0.806 0.705,0.85 z"
   id="path577" />
	<path
   fill="#19448d"
   d="M 21.953,35.848 C 22.389,35.99 22.858,35.753 23,35.317 l 0.011,-0.034 0.299,-0.916 0.012,-0.038 c 0.001,-0.003 0.002,-0.006 0.003,-0.009 0.137,-0.443 -0.112,-0.912 -0.555,-1.049 -0.443,-0.136 -0.912,0.112 -1.049,0.555 l -0.305,0.99 c -0.131,0.429 0.106,0.891 0.537,1.032 z"
   id="path579" />
	<path
   fill="#19448d"
   d="m 24.873,30.89 0.019,-0.032 0.487,-0.831 0.021,-0.036 c 0.002,-0.003 0.003,-0.006 0.005,-0.009 0.239,-0.424 0.089,-0.961 -0.335,-1.2 -0.424,-0.239 -0.961,-0.089 -1.2,0.335 l -0.509,0.903 c -0.233,0.414 -0.092,0.94 0.319,1.181 0.415,0.244 0.95,0.104 1.193,-0.311 z"
   id="path581" />
	<path
   fill="#19448d"
   d="m 27.635,26.956 0.025,-0.028 0.647,-0.714 0.028,-0.03 c 0.002,-0.003 0.005,-0.005 0.007,-0.008 0.336,-0.384 0.297,-0.967 -0.086,-1.303 -0.384,-0.336 -0.967,-0.297 -1.303,0.086 l -0.683,0.78 c -0.328,0.374 -0.296,0.945 0.074,1.28 0.374,0.34 0.952,0.311 1.291,-0.063 z"
   id="path583" />
	<path
   fill="#19448d"
   d="m 30.788,21.491 -0.818,0.635 c -0.411,0.319 -0.492,0.911 -0.179,1.329 0.317,0.423 0.916,0.509 1.339,0.192 l 0.029,-0.021 0.772,-0.579 0.032,-0.024 c 0.003,-0.002 0.006,-0.005 0.009,-0.007 0.421,-0.327 0.498,-0.933 0.171,-1.354 -0.327,-0.422 -0.934,-0.498 -1.355,-0.171 z"
   id="path585" />
	<path
   fill="#19448d"
   d="m 35.178,18.773 -0.913,0.482 c -0.48,0.254 -0.671,0.848 -0.424,1.335 0.249,0.492 0.85,0.688 1.342,0.439 l 0.03,-0.015 0.862,-0.437 0.034,-0.017 c 0.003,-0.002 0.007,-0.004 0.01,-0.005 0.492,-0.26 0.68,-0.87 0.42,-1.361 -0.26,-0.493 -0.869,-0.681 -1.361,-0.421 z"
   id="path587" />
	<path
   fill="#19448d"
   d="m 39.626,19.116 0.03,-0.01 0.922,-0.299 0.034,-0.011 c 0.004,-10e-4 0.008,-0.003 0.012,-0.004 0.548,-0.188 0.84,-0.785 0.652,-1.333 -0.188,-0.548 -0.785,-0.84 -1.333,-0.652 l -0.975,0.334 c -0.536,0.184 -0.828,0.765 -0.652,1.306 0.176,0.547 0.763,0.846 1.31,0.669 z"
   id="path589" />
	<path
   fill="#19448d"
   d="m 44.93,15.555 -1.01,0.196 c -0.578,0.113 -0.963,0.669 -0.86,1.251 0.104,0.589 0.666,0.982 1.255,0.878 l 0.029,-0.005 0.957,-0.169 0.033,-0.006 c 0.004,-10e-4 0.008,-0.002 0.012,-0.002 0.592,-0.115 0.979,-0.688 0.864,-1.279 -0.115,-0.592 -0.688,-0.978 -1.28,-0.864 z"
   id="path591" />
	<path
   fill="#19448d"
   d="m 50.029,14.96 -1.024,0.07 c -0.611,0.042 -1.078,0.566 -1.047,1.18 0.032,0.62 0.561,1.098 1.181,1.066 l 0.027,-0.001 0.972,-0.05 0.032,-0.002 c 0.004,0 0.009,0 0.013,-10e-4 0.625,-0.043 1.096,-0.583 1.054,-1.208 -0.043,-0.625 -0.584,-1.097 -1.208,-1.054 z"
   id="path593" />
	<path
   fill="#19448d"
   d="m 53.986,17.251 0.034,0.003 0.964,0.073 0.039,0.003 c 0.004,0 0.008,0.001 0.011,0.001 0.647,0.039 1.203,-0.453 1.242,-1.1 0.039,-0.647 -0.453,-1.203 -1.1,-1.242 l -1.032,-0.063 c -0.634,-0.038 -1.184,0.44 -1.232,1.075 -0.048,0.642 0.432,1.201 1.074,1.25 z"
   id="path595" />
	<path
   fill="#19448d"
   d="m 60.289,15.747 -1.013,-0.21 c -0.642,-0.133 -1.275,0.273 -1.418,0.915 -0.145,0.648 0.263,1.291 0.911,1.436 l 0.034,0.008 0.942,0.21 0.04,0.009 c 0.004,0.001 0.008,0.002 0.011,0.002 0.654,0.136 1.295,-0.284 1.431,-0.939 0.137,-0.655 -0.283,-1.295 -0.938,-1.431 z"
   id="path597" />
	<path
   fill="#19448d"
   d="m 65.244,17.228 -0.973,-0.352 c -0.636,-0.23 -1.341,0.092 -1.581,0.727 -0.243,0.64 0.08,1.356 0.72,1.599 l 0.033,0.013 0.902,0.342 0.039,0.015 c 0.004,0.001 0.008,0.003 0.011,0.004 0.648,0.234 1.363,-0.101 1.598,-0.749 0.234,-0.65 -0.101,-1.365 -0.749,-1.599 z"
   id="path599" />
	<path
   fill="#19448d"
   d="m 67.816,21.154 0.032,0.017 0.845,0.464 0.037,0.02 c 0.004,0.002 0.007,0.004 0.011,0.006 0.627,0.332 1.405,0.093 1.737,-0.534 0.332,-0.627 0.093,-1.405 -0.534,-1.737 l -0.915,-0.484 c -0.615,-0.325 -1.381,-0.098 -1.717,0.514 -0.34,0.618 -0.114,1.394 0.504,1.734 z"
   id="path601" />
	<path
   fill="#19448d"
   d="m 73.46,21.576 c -0.581,-0.419 -1.394,-0.295 -1.823,0.282 -0.433,0.583 -0.312,1.406 0.27,1.839 l 0.029,0.022 0.773,0.575 0.034,0.025 c 0.003,0.003 0.007,0.005 0.01,0.007 0.592,0.427 1.419,0.293 1.846,-0.299 0.427,-0.592 0.293,-1.419 -0.299,-1.846 z"
   id="path603" />
	<path
   fill="#19448d"
   d="M 78.241,25.543 77.49,24.828 c -0.534,-0.508 -1.379,-0.495 -1.897,0.032 -0.523,0.533 -0.515,1.389 0.018,1.911 l 0.027,0.026 0.688,0.674 0.031,0.031 c 0.003,0.003 0.006,0.006 0.009,0.009 0.544,0.518 1.404,0.497 1.922,-0.047 0.518,-0.542 0.497,-1.403 -0.047,-1.921 z"
   id="path605" />
	<path
   fill="#19448d"
   d="m 81.47,31.376 c 0.603,-0.481 0.702,-1.36 0.221,-1.963 l -0.647,-0.812 c -0.472,-0.592 -1.335,-0.697 -1.936,-0.232 -0.607,0.469 -0.718,1.342 -0.249,1.948 l 0.024,0.031 0.589,0.761 0.028,0.036 c 0.003,0.004 0.006,0.007 0.008,0.011 0.48,0.603 1.359,0.702 1.962,0.22 z"
   id="path607" />
	<path
   fill="#19448d"
   d="m 84.08,35.691 c 0.681,-0.404 0.906,-1.284 0.502,-1.965 l -0.53,-0.894 c -0.397,-0.668 -1.259,-0.898 -1.936,-0.51 -0.683,0.392 -0.92,1.263 -0.528,1.947 l 0.02,0.035 0.477,0.833 0.023,0.041 c 0.002,0.004 0.005,0.008 0.007,0.012 0.404,0.68 1.284,0.905 1.965,0.501 z"
   id="path609" />
	<path
   fill="#19448d"
   d="m 86.85,38.407 -0.401,-0.962 c -0.307,-0.736 -1.15,-1.093 -1.893,-0.797 -0.751,0.3 -1.116,1.151 -0.817,1.902 l 0.016,0.039 0.355,0.89 0.018,0.045 c 0.002,0.004 0.004,0.009 0.005,0.013 0.312,0.75 1.174,1.105 1.924,0.793 0.75,-0.312 1.105,-1.173 0.793,-1.923 z"
   id="path611" />
</g>
<g
   id="g759"
   transform="translate(-20.538174,-13.76466)">
	<path
   fill="#19448d"
   d="m 141.452,55.076 -0.006,0.016 -0.366,0.915 -0.007,0.018 c -0.005,0.012 -0.009,0.024 -0.013,0.036 -0.153,0.444 0.083,0.928 0.527,1.081 0.444,0.153 0.928,-0.083 1.081,-0.527 l 0.331,-0.963 c 0.141,-0.413 -0.064,-0.871 -0.474,-1.035 -0.424,-0.17 -0.904,0.035 -1.073,0.459 z"
   id="path615" />
	<path
   fill="#19448d"
   d="m 143.25,52.289 c 0.392,0.089 0.782,-0.156 0.872,-0.548 l 0.226,-0.992 c 0.082,-0.363 -0.133,-0.732 -0.496,-0.833 -0.374,-0.105 -0.762,0.113 -0.867,0.487 l -0.005,0.016 -0.266,0.948 -0.005,0.018 c -0.003,0.011 -0.006,0.021 -0.008,0.032 -0.088,0.392 0.157,0.782 0.549,0.872 z"
   id="path617" />
	<path
   fill="#19448d"
   d="m 143.811,46.585 c -0.001,0.009 -0.002,0.018 -0.003,0.027 -0.034,0.333 0.209,0.63 0.541,0.664 0.333,0.034 0.63,-0.209 0.664,-0.541 l 0.103,-1.01 c 0.031,-0.306 -0.184,-0.586 -0.491,-0.633 -0.317,-0.048 -0.613,0.17 -0.661,0.487 l -0.002,0.015 -0.147,0.974 z"
   id="path619" />
	<path
   fill="#19448d"
   d="m 144.785,40.213 c -0.253,-0.005 -0.463,0.196 -0.468,0.449 v 0.012 l -0.02,0.988 v 0.014 c 0,0.007 0,0.015 0,0.022 0.008,0.267 0.23,0.477 0.497,0.469 0.267,-0.008 0.477,-0.23 0.469,-0.497 l -0.029,-1.012 c -0.007,-0.242 -0.204,-0.44 -0.449,-0.445 z"
   id="path621" />
	<path
   fill="#19448d"
   d="m 144.151,36.72 10e-4,0.009 c 0.001,0.005 0.001,0.011 0.002,0.016 0.03,0.197 0.214,0.332 0.411,0.303 0.197,-0.029 0.332,-0.214 0.303,-0.411 l -0.151,-0.996 c -0.027,-0.176 -0.187,-0.302 -0.366,-0.284 -0.185,0.019 -0.319,0.184 -0.3,0.368 l 0.001,0.008 z"
   id="path623" />
	<path
   fill="#19448d"
   d="m 143.44,31.824 c 0.033,0.127 0.163,0.204 0.29,0.171 0.127,-0.033 0.204,-0.163 0.171,-0.29 l -0.251,-0.972 c -0.03,-0.109 -0.142,-0.18 -0.254,-0.155 -0.115,0.026 -0.188,0.14 -0.162,0.255 l 0.201,0.975 c 0.003,0.004 0.005,0.012 0.005,0.016 z"
   id="path625" />
	<path
   fill="#19448d"
   d="m 142.055,25.889 c -0.048,0.015 -0.076,0.065 -0.061,0.114 l 0.276,0.96 c 0,0.002 0.002,0.005 0.002,0.007 0.021,0.061 0.087,0.093 0.147,0.072 0.061,-0.021 0.093,-0.087 0.072,-0.147 l -0.324,-0.948 c -0.015,-0.046 -0.065,-0.072 -0.112,-0.058 z"
   id="path627" />
	<path
   fill="#19448d"
   d="m 129.291,18.446 c 0.004,0.012 0.016,0.018 0.028,0.015 0.012,-0.003 0.018,-0.016 0.015,-0.027 l -0.293,-0.957 0.251,0.969 c -0.001,-0.001 -0.001,0 -0.001,0 z"
   id="path629" />
	<path
   fill="#19448d"
   d="m 130.444,23.316 c 0.019,0.07 0.091,0.112 0.162,0.093 0.071,-0.019 0.112,-0.091 0.093,-0.162 l -0.259,-0.968 c -0.016,-0.056 -0.073,-0.092 -0.131,-0.079 -0.059,0.014 -0.096,0.073 -0.083,0.132 l 0.216,0.976 c 0.001,0.003 0.002,0.006 0.002,0.008 z"
   id="path631" />
	<path
   fill="#19448d"
   d="m 131.394,28.228 c 0.029,0.131 0.158,0.213 0.288,0.185 0.131,-0.029 0.213,-0.158 0.185,-0.288 l -0.215,-0.979 c -0.026,-0.114 -0.139,-0.191 -0.255,-0.169 -0.12,0.022 -0.199,0.137 -0.177,0.256 l 0.171,0.983 c 0.001,0.002 0.002,0.009 0.003,0.012 z"
   id="path633" />
	<path
   fill="#19448d"
   d="m 132.255,31.794 c -0.181,0.023 -0.308,0.189 -0.285,0.37 l 0.116,0.99 c 10e-4,0.005 0.002,0.015 0.003,0.02 0.031,0.192 0.212,0.322 0.404,0.291 0.192,-0.031 0.322,-0.212 0.291,-0.404 l -0.161,-0.992 c -0.03,-0.173 -0.192,-0.298 -0.368,-0.275 z"
   id="path635" />
	<path
   fill="#19448d"
   d="m 132.422,37.114 v 0.006 l 0.05,0.993 v 0.008 c 0,0.006 0.001,0.012 0.001,0.018 0.024,0.254 0.249,0.441 0.503,0.417 0.254,-0.024 0.441,-0.249 0.417,-0.503 l -0.094,-1.002 c -0.022,-0.233 -0.224,-0.41 -0.46,-0.398 -0.242,0.012 -0.429,0.219 -0.417,0.461 z"
   id="path637" />
	<path
   fill="#19448d"
   d="m 133.084,41.54 c -0.304,-0.009 -0.557,0.23 -0.566,0.534 v 0.01 l -0.029,0.99 v 0.012 c 0,0.008 0,0.015 0,0.023 0.005,0.316 0.264,0.568 0.58,0.564 0.316,-0.005 0.568,-0.264 0.564,-0.58 l -0.015,-1.01 c -0.005,-0.294 -0.239,-0.535 -0.534,-0.543 z"
   id="path639" />
	<path
   fill="#19448d"
   d="m 132.7,48.773 c 0.376,0.029 0.704,-0.252 0.733,-0.628 l 0.078,-1.009 c 0.026,-0.35 -0.227,-0.663 -0.578,-0.706 -0.362,-0.044 -0.691,0.214 -0.735,0.576 l -0.002,0.013 -0.119,0.979 -0.002,0.015 c -10e-4,0.009 -0.002,0.018 -0.003,0.027 -0.029,0.376 0.252,0.704 0.628,0.733 z"
   id="path641" />
	<path
   fill="#19448d"
   d="m 131.816,53.811 c 0.431,0.078 0.843,-0.208 0.921,-0.638 l 0.181,-1 c 0.072,-0.403 -0.184,-0.797 -0.587,-0.888 -0.415,-0.094 -0.827,0.166 -0.921,0.58 l -0.004,0.016 -0.218,0.959 -0.004,0.019 c -0.002,0.01 -0.004,0.021 -0.006,0.031 -0.079,0.431 0.207,0.843 0.638,0.921 z"
   id="path643" />
	<path
   fill="#19448d"
   d="m 130.384,58.722 c 0.478,0.142 0.98,-0.131 1.122,-0.609 l 0.29,-0.978 c 0.132,-0.448 -0.11,-0.928 -0.557,-1.082 -0.459,-0.159 -0.96,0.085 -1.119,0.545 l -0.007,0.019 -0.32,0.927 -0.007,0.021 c -0.004,0.011 -0.008,0.023 -0.011,0.035 -0.142,0.478 0.131,0.981 0.609,1.122 z"
   id="path645" />
	<path
   fill="#19448d"
   d="m 128.319,61.158 -0.005,0.01 -0.188,0.402 -0.005,0.012 c -0.006,0.012 -0.011,0.025 -0.016,0.037 -0.211,0.51 0.031,1.096 0.542,1.307 0.511,0.211 1.096,-0.031 1.307,-0.542 l 0.177,-0.428 c 0.2,-0.486 -0.014,-1.051 -0.496,-1.276 -0.496,-0.232 -1.085,-0.018 -1.316,0.478 z"
   id="path647" />
	<path
   fill="#19448d"
   d="m 113.554,60.711 -0.461,0.864 -0.012,0.022 c -0.01,0.018 -0.019,0.037 -0.028,0.056 -0.292,0.626 -0.022,1.37 0.604,1.663 0.626,0.292 1.37,0.022 1.663,-0.604 l 0.433,-0.927 c 0.272,-0.585 0.044,-1.29 -0.532,-1.597 -0.596,-0.318 -1.337,-0.093 -1.655,0.503 z"
   id="path649" />
	<path
   fill="#19448d"
   d="m 115.885,58.681 c 0.581,0.209 1.221,-0.092 1.43,-0.673 l 0.346,-0.961 c 0.194,-0.541 -0.067,-1.148 -0.603,-1.374 -0.555,-0.234 -1.194,0.027 -1.428,0.582 l -0.009,0.02 -0.38,0.903 -0.009,0.022 c -0.007,0.017 -0.014,0.034 -0.02,0.052 -0.209,0.579 0.092,1.22 0.673,1.429 z"
   id="path651" />
	<path
   fill="#19448d"
   d="m 117.263,51.635 -0.006,0.019 -0.291,0.937 -0.007,0.021 c -0.005,0.016 -0.009,0.031 -0.013,0.047 -0.133,0.527 0.186,1.063 0.713,1.196 0.527,0.133 1.063,-0.186 1.196,-0.713 l 0.25,-0.989 c 0.123,-0.489 -0.157,-0.998 -0.645,-1.149 -0.504,-0.156 -1.04,0.126 -1.197,0.631 z"
   id="path653" />
	<path
   fill="#19448d"
   d="m 119.402,46.221 c -0.446,-0.09 -0.881,0.198 -0.972,0.644 l -0.003,0.017 -0.195,0.964 -0.004,0.019 c -0.003,0.014 -0.005,0.028 -0.007,0.042 -0.069,0.465 0.253,0.898 0.718,0.967 0.465,0.069 0.898,-0.253 0.967,-0.718 l 0.149,-1.006 c 0.062,-0.43 -0.222,-0.842 -0.653,-0.929 z"
   id="path655" />
	<path
   fill="#19448d"
   d="m 119.873,41.371 c -0.38,-0.038 -0.719,0.239 -0.757,0.619 l -0.001,0.014 -0.099,0.982 -0.002,0.016 c -10e-4,0.012 -0.002,0.024 -0.003,0.036 -0.019,0.396 0.287,0.733 0.684,0.752 0.397,0.019 0.733,-0.287 0.752,-0.684 l 0.048,-1.013 c 0.016,-0.365 -0.255,-0.685 -0.622,-0.722 z"
   id="path657" />
	<path
   fill="#19448d"
   d="m 119.33,37.053 v 0.01 l -0.006,0.992 v 0.012 c 0,0.01 0,0.019 0.001,0.029 0.015,0.323 0.289,0.573 0.612,0.557 0.323,-0.015 0.573,-0.289 0.557,-0.612 l -0.047,-1.012 c -0.014,-0.294 -0.256,-0.531 -0.554,-0.532 -0.31,-10e-4 -0.561,0.248 -0.563,0.556 z"
   id="path659" />
	<path
   fill="#19448d"
   d="m 119.104,32.11 0.001,0.007 0.078,0.987 10e-4,0.009 c 0.001,0.008 0.001,0.015 0.002,0.023 0.033,0.248 0.26,0.422 0.508,0.389 0.248,-0.033 0.422,-0.26 0.389,-0.508 l -0.132,-0.995 c -0.03,-0.222 -0.229,-0.386 -0.455,-0.368 -0.235,0.017 -0.41,0.222 -0.392,0.456 z"
   id="path661" />
	<path
   fill="#19448d"
   d="m 118.489,27.185 0.151,0.981 c 0.001,0.005 0.003,0.016 0.004,0.021 0.036,0.173 0.205,0.283 0.378,0.247 0.173,-0.036 0.283,-0.205 0.247,-0.378 l -0.205,-0.979 c -0.034,-0.15 -0.181,-0.255 -0.335,-0.229 -0.16,0.026 -0.267,0.177 -0.24,0.337 z"
   id="path663" />
	<path
   fill="#19448d"
   d="m 117.984,23.406 c 0.099,-0.027 0.157,-0.13 0.13,-0.229 l -0.266,-0.964 c -0.023,-0.081 -0.107,-0.132 -0.19,-0.113 -0.086,0.02 -0.139,0.106 -0.12,0.191 l 0.213,0.973 c 10e-4,0.003 0.002,0.009 0.003,0.012 0.028,0.099 0.131,0.157 0.23,0.13 z"
   id="path665" />
	<path
   fill="#19448d"
   d="m 116.581,18.418 c 0.009,0.028 0.039,0.043 0.067,0.034 0.028,-0.009 0.043,-0.039 0.034,-0.067 l -0.315,-0.949 c -0.005,-0.013 -0.019,-0.021 -0.032,-0.017 -0.014,0.004 -0.022,0.019 -0.018,0.033 l 0.264,0.964 c -0.001,-0.001 -0.001,0.001 0,0.002 z"
   id="path667" />
	<path
   fill="#19448d"
   d="m 103.643,21.162 c 0.021,-0.005 0.034,-0.026 0.029,-0.046 l -0.231,-0.972 0.155,0.987 c 0,0.001 0,0.003 10e-4,0.004 0.005,0.019 0.026,0.032 0.046,0.027 z"
   id="path669" />
	<path
   fill="#19448d"
   d="m 104.147,26.087 c 0,0.006 10e-4,0.015 0.002,0.021 0.02,0.126 0.139,0.212 0.265,0.192 0.126,-0.02 0.212,-0.139 0.192,-0.265 l -0.158,-0.986 c -0.017,-0.098 -0.108,-0.171 -0.209,-0.161 -0.106,0.01 -0.184,0.104 -0.173,0.21 z"
   id="path671" />
	<path
   fill="#19448d"
   d="m 104.34,30.064 v 0.005 l 0.016,0.995 v 0.006 c 0,0.01 0.001,0.021 0.002,0.032 0.022,0.233 0.228,0.404 0.462,0.383 0.234,-0.021 0.404,-0.228 0.383,-0.462 l -0.094,-1.001 c -0.019,-0.198 -0.188,-0.353 -0.39,-0.349 -0.213,0.003 -0.382,0.178 -0.379,0.391 z"
   id="path673" />
	<path
   fill="#19448d"
   d="m 104.296,35.034 v 0.008 l -0.046,0.992 v 0.009 c -0.001,0.015 -0.001,0.031 0,0.046 0.01,0.34 0.295,0.608 0.635,0.598 0.34,-0.01 0.608,-0.295 0.598,-0.635 l -0.031,-1.008 c -0.01,-0.298 -0.248,-0.545 -0.551,-0.56 -0.32,-0.015 -0.59,0.231 -0.605,0.55 z"
   id="path675" />
	<path
   fill="#19448d"
   d="m 105.445,41.1 0.033,-1.01 c 0.012,-0.398 -0.283,-0.747 -0.686,-0.791 -0.423,-0.047 -0.804,0.258 -0.85,0.681 l -10e-4,0.01 -0.109,0.985 -10e-4,0.012 c -0.002,0.02 -0.003,0.04 -0.004,0.06 -0.015,0.447 0.336,0.821 0.782,0.836 0.447,0.014 0.821,-0.336 0.836,-0.783 z"
   id="path677" />
	<path
   fill="#19448d"
   d="m 103.268,44.89 -0.175,0.971 -0.003,0.015 c -0.004,0.024 -0.008,0.049 -0.01,0.074 -0.056,0.551 0.345,1.042 0.896,1.098 0.551,0.056 1.042,-0.345 1.098,-0.896 l 0.102,-1.01 c 0.049,-0.495 -0.29,-0.955 -0.788,-1.045 -0.523,-0.094 -1.024,0.254 -1.118,0.777 z"
   id="path679" />
	<path
   fill="#19448d"
   d="m 102.942,52.154 c 0.649,0.117 1.271,-0.314 1.388,-0.964 l 0.181,-1.004 c 0.104,-0.587 -0.258,-1.17 -0.845,-1.323 -0.617,-0.161 -1.249,0.208 -1.41,0.826 l -0.005,0.02 -0.248,0.949 -0.005,0.021 c -0.007,0.029 -0.014,0.058 -0.019,0.087 -0.118,0.649 0.314,1.27 0.963,1.388 z"
   id="path681" />
	<path
   fill="#19448d"
   d="m 101.433,57.141 c 0.738,0.207 1.504,-0.224 1.71,-0.962 l 0.277,-0.991 c 0.186,-0.671 -0.171,-1.387 -0.836,-1.63 -0.699,-0.255 -1.473,0.105 -1.728,0.804 l -0.011,0.029 -0.333,0.913 -0.01,0.028 c -0.012,0.032 -0.022,0.065 -0.032,0.099 -0.206,0.738 0.225,1.504 0.963,1.71 z"
   id="path683" />
	<path
   fill="#19448d"
   d="m 86.031,41.217 c 0,0 0,-10e-4 0,0 10e-4,-0.005 -0.001,-0.009 -0.006,-0.01 -0.004,-10e-4 -0.009,10e-4 -0.01,0.006 l -0.27,0.963 z"
   id="path685" />
	<path
   fill="#19448d"
   d="m 87.365,37.448 0.382,-0.923 c 0,0 0.001,-0.002 0.001,-0.002 0.01,-0.025 -0.002,-0.054 -0.028,-0.064 -0.025,-0.01 -0.054,0.002 -0.064,0.028 l -0.368,0.931 c -0.008,0.021 0.002,0.045 0.023,0.053 0.023,0.009 0.046,-0.002 0.054,-0.023 z"
   id="path687" />
	<path
   fill="#19448d"
   d="m 89.478,32.927 0.484,-0.872 c 0,0 0.002,-0.003 0.002,-0.003 0.023,-0.044 0.007,-0.099 -0.037,-0.122 -0.044,-0.023 -0.099,-0.007 -0.122,0.037 l -0.471,0.884 c -0.02,0.04 -0.005,0.09 0.034,0.111 0.04,0.021 0.089,0.005 0.11,-0.035 z"
   id="path689" />
	<path
   fill="#19448d"
   d="m 92.107,28.693 0.589,-0.804 c 0,0 0.003,-0.004 0.003,-0.005 0.042,-0.059 0.028,-0.141 -0.031,-0.183 -0.059,-0.042 -0.141,-0.028 -0.183,0.031 l -0.58,0.819 c -0.037,0.056 -0.025,0.134 0.03,0.172 0.057,0.04 0.133,0.026 0.172,-0.03 z"
   id="path691" />
	<path
   fill="#19448d"
   d="m 95.263,24.845 0.694,-0.713 c 0,0 0.005,-0.005 0.005,-0.006 0.065,-0.069 0.062,-0.178 -0.007,-0.243 -0.069,-0.065 -0.178,-0.062 -0.243,0.007 l -0.689,0.732 c -0.059,0.067 -0.057,0.172 0.008,0.233 0.067,0.062 0.171,0.057 0.232,-0.01 z"
   id="path693" />
	<path
   fill="#19448d"
   d="m 98.927,21.499 0.005,-0.004 0.791,-0.601 0.006,-0.005 c 0.001,0 0.001,-10e-4 0.002,-10e-4 0.093,-0.073 0.109,-0.207 0.036,-0.299 -0.073,-0.092 -0.207,-0.109 -0.299,-0.036 l -0.791,0.621 c -0.088,0.069 -0.104,0.196 -0.037,0.285 0.068,0.091 0.197,0.108 0.287,0.04 z"
   id="path695" />
	<path
   fill="#19448d"
   d="m 103.055,18.751 0.007,-0.004 0.874,-0.469 0.008,-0.004 c 10e-4,0 0.002,-0.001 0.002,-0.001 0.122,-0.068 0.166,-0.223 0.098,-0.346 -0.068,-0.122 -0.223,-0.166 -0.346,-0.098 l -0.88,0.491 c -0.117,0.065 -0.16,0.213 -0.097,0.331 0.065,0.12 0.214,0.164 0.334,0.1 z"
   id="path697" />
	<path
   fill="#19448d"
   d="m 107.555,16.682 0.008,-0.003 0.935,-0.329 0.01,-0.003 c 0.001,0 0.002,-0.001 0.003,-0.001 0.153,-0.057 0.231,-0.226 0.174,-0.379 -0.057,-0.153 -0.226,-0.231 -0.379,-0.174 l -0.946,0.35 c -0.146,0.054 -0.223,0.216 -0.171,0.364 0.053,0.149 0.217,0.228 0.366,0.175 z"
   id="path699" />
	<path
   fill="#19448d"
   d="m 112.314,15.32 0.009,-0.002 0.973,-0.189 0.011,-0.002 c 0.001,0 0.002,0 0.004,-0.001 0.182,-0.038 0.298,-0.216 0.259,-0.398 -0.039,-0.182 -0.216,-0.298 -0.398,-0.259 l -0.987,0.208 c -0.174,0.037 -0.288,0.207 -0.254,0.383 0.033,0.178 0.205,0.294 0.383,0.26 z"
   id="path701" />
	<path
   fill="#19448d"
   d="m 117.217,14.641 0.009,-10e-4 0.989,-0.058 0.011,-0.001 c 0.001,0 0.003,0 0.004,0 0.208,-0.016 0.363,-0.197 0.347,-0.404 -0.016,-0.208 -0.197,-0.363 -0.404,-0.347 l -1.006,0.076 c -0.2,0.015 -0.352,0.188 -0.34,0.389 0.012,0.203 0.187,0.358 0.39,0.346 z"
   id="path703" />
	<path
   fill="#19448d"
   d="m 122.168,14.584 0.009,0.001 0.989,0.057 0.012,0.001 c 0.002,0 0.003,0 0.005,0 0.231,0.009 0.426,-0.17 0.435,-0.401 0.009,-0.231 -0.17,-0.426 -0.401,-0.435 l -1.009,-0.042 c -0.223,-0.009 -0.413,0.162 -0.426,0.386 -0.012,0.226 0.16,0.42 0.386,0.433 z"
   id="path705" />
	<path
   fill="#19448d"
   d="m 127.084,15.105 0.012,0.002 0.972,0.177 0.014,0.003 c 0.002,0 0.003,10e-4 0.005,10e-4 0.251,0.041 0.488,-0.128 0.529,-0.379 0.041,-0.251 -0.128,-0.488 -0.379,-0.529 l -0.998,-0.165 c -0.243,-0.04 -0.474,0.122 -0.518,0.365 -0.045,0.245 0.118,0.48 0.363,0.525 z"
   id="path707" />
	<path
   fill="#19448d"
   d="m 131.881,16.246 0.014,0.005 0.937,0.308 0.016,0.005 c 0.002,0.001 0.004,0.001 0.006,0.002 0.265,0.082 0.547,-0.066 0.629,-0.331 0.082,-0.265 -0.066,-0.547 -0.331,-0.629 l -0.97,-0.301 c -0.257,-0.08 -0.531,0.061 -0.616,0.317 -0.085,0.259 0.056,0.538 0.315,0.624 z"
   id="path709" />
	<path
   fill="#19448d"
   d="m 136.45,18.058 0.016,0.008 0.875,0.447 0.018,0.009 c 0.002,0.001 0.004,0.002 0.006,0.003 0.27,0.132 0.596,0.02 0.729,-0.25 0.133,-0.27 0.02,-0.596 -0.25,-0.729 l -0.914,-0.448 c -0.262,-0.128 -0.58,-0.023 -0.713,0.238 -0.135,0.264 -0.031,0.587 0.233,0.722 z"
   id="path711" />
	<path
   fill="#19448d"
   d="m 140.67,20.583 0.783,0.588 0.019,0.015 c 0.002,0.001 0.004,0.003 0.005,0.004 0.262,0.19 0.629,0.132 0.819,-0.13 0.19,-0.262 0.132,-0.629 -0.13,-0.819 l -0.827,-0.6 c -0.255,-0.185 -0.612,-0.132 -0.802,0.121 -0.192,0.255 -0.14,0.618 0.115,0.809 z"
   id="path713" />
	<path
   fill="#19448d"
   d="m 144.344,23.798 0.655,0.723 0.019,0.021 c 0.002,0.002 0.003,0.004 0.005,0.005 0.238,0.253 0.635,0.266 0.889,0.029 0.253,-0.238 0.266,-0.635 0.029,-0.889 l -0.701,-0.748 c -0.231,-0.246 -0.618,-0.263 -0.869,-0.035 -0.254,0.23 -0.273,0.622 -0.043,0.876 z"
   id="path715" />
	<path
   fill="#19448d"
   d="m 147.308,27.652 0.493,0.838 0.016,0.027 c 0.001,0.002 0.003,0.004 0.004,0.007 0.193,0.316 0.606,0.416 0.922,0.223 0.316,-0.193 0.416,-0.606 0.223,-0.922 l -0.536,-0.877 c -0.188,-0.307 -0.589,-0.409 -0.901,-0.226 -0.315,0.185 -0.421,0.591 -0.235,0.906 z"
   id="path717" />
	<path
   fill="#19448d"
   d="m 149.399,32.022 0.303,0.921 0.011,0.032 c 0.001,0.003 0.002,0.005 0.003,0.008 0.129,0.372 0.535,0.569 0.907,0.439 0.372,-0.129 0.569,-0.535 0.439,-0.907 l -0.338,-0.973 c -0.126,-0.362 -0.519,-0.558 -0.885,-0.438 -0.37,0.121 -0.571,0.519 -0.449,0.889 z"
   id="path719" />
	<path
   fill="#19448d"
   d="m 150.506,36.697 0.003,0.032 0.1,0.963 0.004,0.035 c 0,0.003 0.001,0.006 0.001,0.009 0.05,0.414 0.426,0.709 0.84,0.659 0.414,-0.05 0.709,-0.426 0.659,-0.84 l -0.124,-1.024 c -0.049,-0.403 -0.413,-0.695 -0.818,-0.652 -0.41,0.042 -0.708,0.408 -0.665,0.818 z"
   id="path721" />
	<path
   fill="#19448d"
   d="m 151.479,40.825 c -0.433,-0.045 -0.82,0.27 -0.865,0.703 l -0.003,0.033 -0.099,0.961 -0.004,0.037 c 0,0.003 -0.001,0.006 -0.001,0.009 -0.038,0.439 0.287,0.825 0.726,0.862 0.439,0.038 0.825,-0.287 0.862,-0.726 l 0.089,-1.029 c 0.036,-0.426 -0.277,-0.806 -0.705,-0.85 z"
   id="path723" />
	<path
   fill="#19448d"
   d="m 150.771,45.73 c -0.436,-0.142 -0.905,0.095 -1.047,0.531 l -0.011,0.034 -0.299,0.916 -0.012,0.038 c -10e-4,0.003 -0.002,0.006 -0.003,0.009 -0.137,0.443 0.112,0.912 0.555,1.049 0.443,0.136 0.912,-0.112 1.049,-0.555 l 0.305,-0.99 c 0.132,-0.43 -0.106,-0.892 -0.537,-1.032 z"
   id="path725" />
	<path
   fill="#19448d"
   d="m 147.851,50.687 -0.019,0.032 -0.487,0.831 -0.021,0.036 c -0.002,0.003 -0.003,0.006 -0.005,0.009 -0.239,0.424 -0.089,0.961 0.335,1.2 0.424,0.239 0.961,0.089 1.2,-0.335 l 0.509,-0.903 c 0.233,-0.414 0.092,-0.94 -0.319,-1.181 -0.415,-0.244 -0.949,-0.104 -1.193,0.311 z"
   id="path727" />
	<path
   fill="#19448d"
   d="m 145.09,54.621 -0.025,0.028 -0.647,0.714 -0.028,0.03 c -0.002,0.003 -0.005,0.005 -0.007,0.008 -0.336,0.384 -0.297,0.967 0.086,1.303 0.384,0.336 0.967,0.297 1.303,-0.086 l 0.683,-0.78 c 0.328,-0.374 0.296,-0.945 -0.074,-1.28 -0.374,-0.34 -0.952,-0.311 -1.291,0.063 z"
   id="path729" />
	<path
   fill="#19448d"
   d="m 141.936,60.086 0.818,-0.635 c 0.411,-0.319 0.492,-0.911 0.179,-1.329 -0.317,-0.423 -0.916,-0.509 -1.339,-0.192 l -0.029,0.021 -0.772,0.579 -0.032,0.024 c -0.003,0.002 -0.006,0.005 -0.009,0.007 -0.421,0.327 -0.498,0.933 -0.171,1.354 0.328,0.422 0.934,0.498 1.355,0.171 z"
   id="path731" />
	<path
   fill="#19448d"
   d="m 137.546,62.804 0.913,-0.482 c 0.48,-0.254 0.671,-0.848 0.424,-1.335 -0.249,-0.492 -0.85,-0.688 -1.342,-0.439 l -0.03,0.015 -0.862,0.437 -0.034,0.017 c -0.003,0.002 -0.007,0.004 -0.01,0.005 -0.492,0.26 -0.68,0.87 -0.42,1.361 0.26,0.493 0.87,0.681 1.361,0.421 z"
   id="path733" />
	<path
   fill="#19448d"
   d="m 133.098,62.461 -0.03,0.01 -0.922,0.299 -0.034,0.011 c -0.004,10e-4 -0.008,0.003 -0.012,0.004 -0.548,0.188 -0.84,0.785 -0.652,1.333 0.188,0.548 0.785,0.84 1.333,0.652 l 0.975,-0.334 c 0.536,-0.184 0.828,-0.765 0.652,-1.306 -0.176,-0.547 -0.763,-0.846 -1.31,-0.669 z"
   id="path735" />
	<path
   fill="#19448d"
   d="m 127.794,66.022 1.01,-0.196 c 0.578,-0.113 0.963,-0.669 0.86,-1.251 -0.104,-0.589 -0.666,-0.982 -1.255,-0.878 l -0.029,0.005 -0.957,0.169 -0.033,0.006 c -0.004,10e-4 -0.008,0.002 -0.012,0.002 -0.592,0.115 -0.979,0.688 -0.864,1.279 0.116,0.592 0.688,0.979 1.28,0.864 z"
   id="path737" />
	<path
   fill="#19448d"
   d="m 122.696,66.618 1.024,-0.07 c 0.611,-0.042 1.078,-0.566 1.047,-1.18 -0.032,-0.62 -0.561,-1.098 -1.181,-1.066 l -0.027,10e-4 -0.972,0.05 -0.032,0.002 c -0.004,0 -0.009,0 -0.013,10e-4 -0.625,0.043 -1.096,0.583 -1.054,1.208 0.042,0.624 0.583,1.096 1.208,1.054 z"
   id="path739" />
	<path
   fill="#19448d"
   d="m 118.739,64.326 -0.034,-0.003 -0.964,-0.073 -0.039,-0.003 c -0.004,0 -0.008,-0.001 -0.011,-0.001 -0.647,-0.039 -1.203,0.453 -1.242,1.1 -0.039,0.647 0.453,1.203 1.1,1.242 l 1.032,0.063 c 0.634,0.038 1.184,-0.44 1.232,-1.075 0.048,-0.642 -0.433,-1.201 -1.074,-1.25 z"
   id="path741" />
	<path
   fill="#19448d"
   d="m 112.435,65.83 1.013,0.21 c 0.642,0.133 1.275,-0.273 1.418,-0.915 0.145,-0.648 -0.263,-1.291 -0.911,-1.436 l -0.034,-0.008 -0.942,-0.21 -0.04,-0.009 c -0.004,-0.001 -0.008,-0.002 -0.011,-0.002 -0.654,-0.136 -1.295,0.284 -1.431,0.939 -0.136,0.655 0.284,1.295 0.938,1.431 z"
   id="path743" />
	<path
   fill="#19448d"
   d="m 107.481,64.349 0.973,0.352 c 0.636,0.23 1.341,-0.092 1.581,-0.727 0.243,-0.64 -0.08,-1.356 -0.72,-1.599 l -0.033,-0.013 -0.902,-0.342 -0.039,-0.015 c -0.004,-0.001 -0.008,-0.003 -0.011,-0.004 -0.648,-0.234 -1.363,0.101 -1.598,0.749 -0.234,0.65 0.101,1.365 0.749,1.599 z"
   id="path745" />
	<path
   fill="#19448d"
   d="m 104.908,60.423 -0.032,-0.017 -0.845,-0.464 -0.037,-0.02 c -0.004,-0.002 -0.007,-0.004 -0.011,-0.006 -0.627,-0.332 -1.405,-0.093 -1.737,0.534 -0.332,0.627 -0.093,1.405 0.534,1.737 l 0.915,0.484 c 0.615,0.325 1.381,0.098 1.717,-0.514 0.341,-0.618 0.115,-1.394 -0.504,-1.734 z"
   id="path747" />
	<path
   fill="#19448d"
   d="m 99.264,60.001 c 0.581,0.419 1.394,0.295 1.823,-0.282 0.433,-0.583 0.312,-1.406 -0.27,-1.839 l -0.029,-0.022 -0.773,-0.575 -0.034,-0.025 c -0.003,-0.003 -0.007,-0.005 -0.01,-0.007 -0.592,-0.427 -1.419,-0.293 -1.846,0.299 -0.427,0.592 -0.293,1.419 0.299,1.846 z"
   id="path749" />
	<path
   fill="#19448d"
   d="m 94.484,56.034 0.751,0.715 c 0.534,0.508 1.379,0.495 1.897,-0.032 0.523,-0.533 0.515,-1.389 -0.018,-1.911 L 97.087,54.78 96.399,54.106 96.368,54.075 c -0.003,-0.003 -0.006,-0.006 -0.009,-0.009 -0.544,-0.518 -1.404,-0.497 -1.922,0.047 -0.518,0.543 -0.497,1.403 0.047,1.921 z"
   id="path751" />
	<path
   fill="#19448d"
   d="m 91.255,50.201 c -0.603,0.481 -0.702,1.36 -0.221,1.963 l 0.647,0.812 c 0.472,0.592 1.335,0.697 1.936,0.232 0.607,-0.469 0.718,-1.342 0.249,-1.948 l -0.024,-0.031 -0.589,-0.761 -0.028,-0.036 c -0.003,-0.004 -0.006,-0.007 -0.008,-0.011 -0.481,-0.603 -1.359,-0.701 -1.962,-0.22 z"
   id="path753" />
	<path
   fill="#19448d"
   d="m 88.644,45.886 c -0.681,0.404 -0.906,1.284 -0.502,1.965 l 0.53,0.894 c 0.397,0.668 1.259,0.898 1.936,0.51 0.683,-0.392 0.92,-1.263 0.528,-1.947 L 91.116,47.273 90.639,46.44 90.616,46.4 c -0.002,-0.004 -0.005,-0.008 -0.007,-0.012 -0.404,-0.681 -1.283,-0.906 -1.965,-0.502 z"
   id="path755" />
	<path
   fill="#19448d"
   d="m 85.875,43.17 0.401,0.962 c 0.307,0.736 1.15,1.093 1.893,0.797 0.751,-0.3 1.116,-1.151 0.817,-1.902 l -0.016,-0.039 -0.355,-0.89 -0.018,-0.045 c -0.002,-0.004 -0.004,-0.009 -0.005,-0.013 -0.312,-0.75 -1.174,-1.105 -1.924,-0.793 -0.75,0.312 -1.105,1.173 -0.793,1.923 z"
   id="path757" />
</g>
</svg>
